{"glyphs":{"0":{"ha":833,"x_min":103,"x_max":731,"o":"m 417 -14 q 188 68 272 -14 q 103 288 103 150 l 103 728 q 188 946 103 864 q 417 1028 272 1028 q 646 946 561 1028 q 731 728 731 864 l 731 288 q 692 128 731 196 q 583 24 653 61 q 417 -14 513 -14 m 417 115 q 541 163 494 115 q 588 288 588 210 l 588 728 q 541 851 588 804 q 417 899 494 899 q 292 851 339 899 q 246 728 246 804 l 246 288 q 292 163 246 210 q 417 115 339 115 m 417 421 q 353 446 378 421 q 329 511 329 471 q 353 574 329 550 q 417 599 378 599 q 480 574 456 599 q 504 511 504 550 q 480 446 504 471 q 417 421 456 421 z "},"1":{"ha":833,"x_min":119,"x_max":758,"o":"m 121 0 l 121 133 l 390 133 l 390 883 l 119 682 l 119 844 l 351 1014 l 540 1014 l 540 133 l 758 133 l 758 0 l 121 0 z "},"2":{"ha":833,"x_min":90,"x_max":738,"o":"m 118 0 l 118 142 l 432 472 q 538 608 504 547 q 572 728 572 668 q 530 850 572 806 q 414 894 488 894 q 287 848 333 894 q 240 721 240 801 l 90 721 q 182 944 94 861 q 415 1028 269 1028 q 639 949 556 1028 q 722 736 722 869 q 676 560 722 646 q 524 368 629 474 l 297 136 l 738 136 l 738 0 l 118 0 z "},"3":{"ha":833,"x_min":90,"x_max":721,"o":"m 404 -14 q 238 22 308 -14 q 129 124 168 58 q 90 278 90 190 l 240 278 q 284 159 240 201 q 406 117 328 117 q 528 160 485 117 q 571 278 571 204 l 571 350 q 527 470 571 428 q 406 513 483 513 l 292 513 l 292 638 l 525 882 l 133 882 l 133 1014 l 688 1014 l 688 883 l 451 642 q 648 552 575 629 q 721 351 721 475 l 721 278 q 681 124 721 190 q 571 22 642 58 q 404 -14 500 -14 z "},"4":{"ha":833,"x_min":101,"x_max":706,"o":"m 556 0 l 556 211 l 101 211 l 101 436 l 474 1014 l 639 1014 l 247 400 l 247 346 l 556 346 l 556 583 l 706 583 l 706 0 l 556 0 z "},"5":{"ha":833,"x_min":108,"x_max":726,"o":"m 414 -14 q 200 53 282 -14 q 108 235 118 121 l 258 235 q 304 149 264 179 q 415 118 344 118 q 535 160 494 118 q 576 281 576 203 l 576 379 q 536 498 576 456 q 417 540 496 540 q 331 517 367 540 q 278 454 294 493 l 129 454 l 136 1014 l 689 1014 l 689 878 l 279 878 l 276 563 l 281 563 q 342 639 293 611 q 465 667 390 667 q 657 591 588 667 q 726 379 726 515 l 726 281 q 644 65 726 144 q 414 -14 561 -14 z "},"6":{"ha":833,"x_min":81,"x_max":753,"o":"m 418 -14 q 241 28 317 -14 q 123 144 165 69 q 81 318 81 218 q 105 454 81 383 q 175 606 129 525 l 408 1014 l 571 1014 l 293 542 l 300 536 q 372 599 326 576 q 478 622 418 622 q 622 584 560 622 q 718 476 683 546 q 753 315 753 407 q 710 142 753 217 q 593 27 668 68 q 418 -14 518 -14 m 417 117 q 552 170 500 117 q 604 313 604 224 q 552 455 604 400 q 417 510 500 510 q 281 455 333 510 q 229 313 229 400 q 281 170 229 224 q 417 117 333 117 z "},"7":{"ha":833,"x_min":85,"x_max":751,"o":"m 229 0 l 596 876 l 235 876 l 235 715 l 85 715 l 85 1014 l 751 1014 l 751 875 l 393 0 l 229 0 z "},"8":{"ha":833,"x_min":83,"x_max":750,"o":"m 417 -14 q 242 20 317 -14 q 125 116 167 54 q 83 258 83 178 q 136 415 83 344 q 279 528 189 486 q 106 765 106 614 q 145 901 106 842 q 255 994 185 960 q 417 1029 325 1029 q 578 994 508 1029 q 688 901 649 960 q 728 765 728 842 q 554 528 728 614 q 698 414 646 485 q 750 258 750 343 q 708 115 750 176 q 592 20 667 54 q 417 -14 517 -14 m 379 597 l 417 583 l 450 596 q 544 663 508 619 q 581 758 581 706 q 535 860 581 821 q 417 900 490 900 q 297 860 343 900 q 251 758 251 819 q 287 663 251 706 q 379 597 322 619 m 417 115 q 552 160 500 115 q 604 275 604 204 q 567 377 604 331 q 471 447 531 424 l 417 469 l 360 446 q 265 376 300 422 q 229 275 229 329 q 281 160 229 204 q 417 115 333 115 z "},"9":{"ha":833,"x_min":81,"x_max":753,"o":"m 264 0 l 539 471 l 532 475 q 460 412 506 435 q 356 389 415 389 q 213 428 275 389 q 115 536 150 467 q 81 697 81 606 q 123 870 81 796 q 241 986 165 944 q 415 1028 317 1028 q 592 986 515 1028 q 710 870 668 944 q 753 699 753 796 q 727 560 753 632 q 658 410 701 489 l 431 0 l 264 0 m 417 503 q 552 557 500 503 q 604 700 604 611 q 552 844 604 789 q 417 899 500 899 q 281 844 333 899 q 229 700 229 789 q 281 557 229 611 q 417 503 333 503 z "},"A":{"ha":833,"x_min":60,"x_max":775,"o":"m 60 0 l 318 1014 l 515 1014 l 775 0 l 622 0 l 561 257 l 274 257 l 213 0 l 60 0 m 301 382 l 532 382 l 463 674 q 433 808 444 751 q 417 888 421 865 q 401 808 413 865 q 371 675 390 751 l 301 382 z "},"Á":{"ha":833,"x_min":60,"x_max":775,"o":"m 60 0 l 318 1014 l 515 1014 l 775 0 l 622 0 l 561 257 l 274 257 l 213 0 l 60 0 m 301 382 l 532 382 l 463 674 q 433 808 444 751 q 417 888 421 865 q 401 808 413 865 q 371 675 390 751 l 301 382 m 324 1125 l 471 1319 l 632 1319 l 475 1125 l 324 1125 z "},"Ă":{"ha":833,"x_min":60,"x_max":775,"o":"m 60 0 l 318 1014 l 515 1014 l 775 0 l 622 0 l 561 257 l 274 257 l 213 0 l 60 0 m 301 382 l 532 382 l 463 674 q 433 808 444 751 q 417 888 421 865 q 401 808 413 865 q 371 675 390 751 l 301 382 m 417 1117 q 249 1172 313 1117 q 185 1319 185 1228 l 301 1319 q 333 1239 301 1269 q 415 1208 364 1208 q 500 1239 468 1208 q 532 1319 532 1269 l 650 1319 q 585 1172 650 1228 q 417 1117 521 1117 z "},"Ắ":{"ha":833,"x_min":60,"x_max":775,"o":"m 326 1253 l 472 1417 l 619 1417 l 465 1253 l 326 1253 m 378 1083 q 228 1133 283 1083 q 172 1267 172 1182 l 281 1267 q 306 1199 281 1224 q 378 1175 332 1175 l 454 1175 q 526 1199 500 1175 q 553 1267 553 1224 l 661 1267 q 605 1133 661 1182 q 454 1083 549 1083 l 378 1083 m 60 0 l 318 1014 l 515 1014 l 775 0 l 622 0 l 561 257 l 274 257 l 213 0 l 60 0 m 301 382 l 532 382 l 463 674 q 433 808 444 751 q 417 888 421 865 q 401 808 413 865 q 371 675 390 751 l 301 382 z "},"Ặ":{"ha":833,"x_min":60,"x_max":775,"o":"m 417 1117 q 249 1172 313 1117 q 185 1319 185 1228 l 301 1319 q 333 1239 301 1269 q 415 1208 364 1208 q 500 1239 468 1208 q 532 1319 532 1269 l 650 1319 q 585 1172 650 1228 q 417 1117 521 1117 m 60 0 l 318 1014 l 515 1014 l 775 0 l 622 0 l 561 257 l 274 257 l 213 0 l 60 0 m 301 382 l 532 382 l 463 674 q 433 808 444 751 q 417 888 421 865 q 401 808 413 865 q 371 675 390 751 l 301 382 m 417 -304 q 339 -279 368 -304 q 310 -210 310 -254 q 339 -141 310 -167 q 417 -115 368 -115 q 494 -141 465 -115 q 524 -210 524 -167 q 494 -279 524 -254 q 417 -304 465 -304 z "},"Ằ":{"ha":833,"x_min":60,"x_max":775,"o":"m 60 0 l 318 1014 l 515 1014 l 775 0 l 622 0 l 561 257 l 274 257 l 213 0 l 60 0 m 301 382 l 532 382 l 463 674 q 433 808 444 751 q 417 888 421 865 q 401 808 413 865 q 371 675 390 751 l 301 382 m 372 1253 l 235 1417 l 378 1417 l 506 1253 l 372 1253 m 378 1083 q 228 1133 283 1083 q 172 1267 172 1182 l 281 1267 q 306 1199 281 1224 q 378 1175 332 1175 l 454 1175 q 526 1199 500 1175 q 553 1267 553 1224 l 661 1267 q 605 1133 661 1182 q 454 1083 549 1083 l 378 1083 z "},"Ẳ":{"ha":833,"x_min":60,"x_max":775,"o":"m 60 0 l 318 1014 l 515 1014 l 775 0 l 622 0 l 561 257 l 274 257 l 213 0 l 60 0 m 301 382 l 532 382 l 463 674 q 433 808 444 751 q 417 888 421 865 q 401 808 413 865 q 371 675 390 751 l 301 382 m 351 1226 l 407 1293 q 418 1317 418 1306 q 401 1329 418 1329 l 303 1329 l 303 1417 l 438 1417 q 503 1397 481 1417 q 526 1343 526 1378 q 503 1269 526 1301 l 468 1226 l 351 1226 m 378 1083 q 228 1133 283 1083 q 172 1267 172 1182 l 281 1267 q 306 1199 281 1224 q 378 1175 332 1175 l 454 1175 q 526 1199 500 1175 q 553 1267 553 1224 l 661 1267 q 605 1133 661 1182 q 454 1083 549 1083 l 378 1083 z "},"Ẵ":{"ha":833,"x_min":60,"x_max":775,"o":"m 60 0 l 318 1014 l 515 1014 l 775 0 l 622 0 l 561 257 l 274 257 l 213 0 l 60 0 m 301 382 l 532 382 l 463 674 q 433 808 444 751 q 417 888 421 865 q 401 808 413 865 q 371 675 390 751 l 301 382 m 525 1274 q 434 1289 468 1274 q 375 1319 400 1304 q 319 1333 350 1333 q 291 1323 301 1333 q 281 1294 281 1313 l 281 1286 l 182 1286 l 182 1294 q 217 1383 182 1350 q 311 1417 251 1417 q 401 1401 368 1417 q 459 1372 435 1386 q 514 1357 483 1357 q 543 1367 532 1357 q 554 1396 554 1378 l 554 1406 l 653 1406 l 653 1396 q 618 1307 653 1340 q 525 1274 583 1274 m 375 1083 q 234 1124 286 1083 q 182 1246 182 1165 l 289 1246 q 311 1192 289 1208 q 372 1175 333 1175 l 461 1175 q 522 1192 500 1175 q 544 1246 544 1208 l 653 1246 q 600 1124 653 1165 q 458 1083 547 1083 l 375 1083 z "},"Ǎ":{"ha":833,"x_min":60,"x_max":775,"o":"m 60 0 l 318 1014 l 515 1014 l 775 0 l 622 0 l 561 257 l 274 257 l 213 0 l 60 0 m 301 382 l 532 382 l 463 674 q 433 808 444 751 q 417 888 421 865 q 401 808 413 865 q 371 675 390 751 l 301 382 m 347 1125 l 156 1319 l 308 1319 l 418 1214 l 524 1319 l 678 1319 l 486 1125 l 347 1125 z "},"Â":{"ha":833,"x_min":60,"x_max":775,"o":"m 60 0 l 318 1014 l 515 1014 l 775 0 l 622 0 l 561 257 l 274 257 l 213 0 l 60 0 m 301 382 l 532 382 l 463 674 q 433 808 444 751 q 417 888 421 865 q 401 808 413 865 q 371 675 390 751 l 301 382 m 156 1125 l 347 1319 l 486 1319 l 678 1125 l 525 1125 l 415 1231 l 310 1125 l 156 1125 z "},"Ấ":{"ha":833,"x_min":60,"x_max":878,"o":"m 60 0 l 318 1014 l 515 1014 l 775 0 l 622 0 l 561 257 l 274 257 l 213 0 l 60 0 m 301 382 l 532 382 l 463 674 q 433 808 444 751 q 417 888 421 865 q 401 808 413 865 q 371 675 390 751 l 301 382 m 572 1253 l 718 1417 l 878 1417 l 722 1253 l 572 1253 m 157 1083 l 347 1278 l 486 1278 l 678 1083 l 524 1083 l 417 1189 l 310 1083 l 157 1083 z "},"Ậ":{"ha":833,"x_min":60,"x_max":775,"o":"m 156 1125 l 347 1319 l 486 1319 l 678 1125 l 525 1125 l 415 1231 l 310 1125 l 156 1125 m 60 0 l 318 1014 l 515 1014 l 775 0 l 622 0 l 561 257 l 274 257 l 213 0 l 60 0 m 301 382 l 532 382 l 463 674 q 433 808 444 751 q 417 888 421 865 q 401 808 413 865 q 371 675 390 751 l 301 382 m 417 -304 q 339 -279 368 -304 q 310 -210 310 -254 q 339 -141 310 -167 q 417 -115 368 -115 q 494 -141 465 -115 q 524 -210 524 -167 q 494 -279 524 -254 q 417 -304 465 -304 z "},"Ầ":{"ha":833,"x_min":60,"x_max":775,"o":"m 60 0 l 318 1014 l 515 1014 l 775 0 l 622 0 l 561 257 l 274 257 l 213 0 l 60 0 m 301 382 l 532 382 l 463 674 q 433 808 444 751 q 417 888 421 865 q 401 808 413 865 q 371 675 390 751 l 301 382 m 622 1253 l 458 1417 l 615 1417 l 771 1253 l 622 1253 m 157 1083 l 347 1278 l 486 1278 l 678 1083 l 524 1083 l 417 1189 l 310 1083 l 157 1083 z "},"Ẩ":{"ha":833,"x_min":60,"x_max":781,"o":"m 60 0 l 318 1014 l 515 1014 l 775 0 l 622 0 l 561 257 l 274 257 l 213 0 l 60 0 m 301 382 l 532 382 l 463 674 q 433 808 444 751 q 417 888 421 865 q 401 808 413 865 q 371 675 390 751 l 301 382 m 590 1218 l 651 1278 q 665 1306 665 1292 q 640 1329 665 1329 l 547 1329 l 547 1417 l 669 1417 q 750 1391 719 1417 q 781 1322 781 1365 q 756 1258 781 1282 l 713 1218 l 590 1218 m 157 1083 l 347 1278 l 486 1278 l 678 1083 l 524 1083 l 417 1189 l 310 1083 l 157 1083 z "},"Ẫ":{"ha":833,"x_min":60,"x_max":775,"o":"m 60 0 l 318 1014 l 515 1014 l 775 0 l 622 0 l 561 257 l 274 257 l 213 0 l 60 0 m 301 382 l 532 382 l 463 674 q 433 808 444 751 q 417 888 421 865 q 401 808 413 865 q 371 675 390 751 l 301 382 m 525 1274 q 434 1289 468 1274 q 375 1319 400 1304 q 319 1333 350 1333 q 291 1323 301 1333 q 281 1294 281 1313 l 281 1286 l 182 1286 l 182 1294 q 217 1383 182 1350 q 311 1417 251 1417 q 401 1401 368 1417 q 459 1372 435 1386 q 514 1357 483 1357 q 543 1367 532 1357 q 554 1396 554 1378 l 554 1406 l 653 1406 l 653 1396 q 618 1307 653 1340 q 525 1274 583 1274 m 157 1083 l 308 1233 l 525 1233 l 678 1083 l 522 1083 l 417 1186 l 310 1083 l 157 1083 z "},"Ä":{"ha":833,"x_min":60,"x_max":775,"o":"m 60 0 l 318 1014 l 515 1014 l 775 0 l 622 0 l 561 257 l 274 257 l 213 0 l 60 0 m 301 382 l 532 382 l 463 674 q 433 808 444 751 q 417 888 421 865 q 401 808 413 865 q 371 675 390 751 l 301 382 m 575 1129 q 506 1154 532 1129 q 481 1222 481 1179 q 506 1292 481 1267 q 575 1318 532 1318 q 645 1292 619 1318 q 671 1222 671 1267 q 645 1154 671 1179 q 575 1129 619 1129 m 258 1129 q 188 1154 214 1129 q 163 1222 163 1179 q 188 1292 163 1267 q 258 1318 214 1318 q 328 1292 301 1318 q 354 1222 354 1267 q 328 1154 354 1179 q 258 1129 301 1129 z "},"Ạ":{"ha":833,"x_min":60,"x_max":775,"o":"m 60 0 l 318 1014 l 515 1014 l 775 0 l 622 0 l 561 257 l 274 257 l 213 0 l 60 0 m 301 382 l 532 382 l 463 674 q 433 808 444 751 q 417 888 421 865 q 401 808 413 865 q 371 675 390 751 l 301 382 m 417 -304 q 339 -279 368 -304 q 310 -210 310 -254 q 339 -141 310 -167 q 417 -115 368 -115 q 494 -141 465 -115 q 524 -210 524 -167 q 494 -279 524 -254 q 417 -304 465 -304 z "},"À":{"ha":833,"x_min":60,"x_max":775,"o":"m 60 0 l 318 1014 l 515 1014 l 775 0 l 622 0 l 561 257 l 274 257 l 213 0 l 60 0 m 301 382 l 532 382 l 463 674 q 433 808 444 751 q 417 888 421 865 q 401 808 413 865 q 371 675 390 751 l 301 382 m 358 1125 l 197 1319 l 364 1319 l 514 1125 l 358 1125 z "},"Ả":{"ha":833,"x_min":60,"x_max":775,"o":"m 60 0 l 318 1014 l 515 1014 l 775 0 l 622 0 l 561 257 l 274 257 l 213 0 l 60 0 m 301 382 l 532 382 l 463 674 q 433 808 444 751 q 417 888 421 865 q 401 808 413 865 q 371 675 390 751 l 301 382 m 353 1110 l 417 1194 q 436 1238 436 1221 q 394 1265 436 1265 l 288 1265 l 288 1364 l 410 1364 q 515 1334 475 1364 q 556 1254 556 1304 q 529 1178 556 1213 l 481 1110 l 353 1110 z "},"Ā":{"ha":833,"x_min":60,"x_max":775,"o":"m 60 0 l 318 1014 l 515 1014 l 775 0 l 622 0 l 561 257 l 274 257 l 213 0 l 60 0 m 301 382 l 532 382 l 463 674 q 433 808 444 751 q 417 888 421 865 q 401 808 413 865 q 371 675 390 751 l 301 382 m 186 1158 l 186 1278 l 647 1278 l 647 1158 l 186 1158 z "},"Ą":{"ha":833,"x_min":60,"x_max":807,"o":"m 60 0 l 318 1014 l 515 1014 l 775 0 l 735 0 l 726 -7 q 647 -125 647 -74 q 667 -171 647 -153 q 719 -189 686 -189 l 807 -189 l 807 -292 l 686 -292 q 560 -253 607 -292 q 513 -156 513 -214 q 539 -76 513 -115 q 622 1 565 -37 l 561 257 l 274 257 l 213 0 l 60 0 m 301 382 l 532 382 l 463 674 q 433 808 444 751 q 417 888 421 865 q 401 808 413 865 q 371 675 390 751 l 301 382 z "},"Å":{"ha":833,"x_min":60,"x_max":775,"o":"m 60 0 l 318 1014 l 515 1014 l 775 0 l 622 0 l 561 257 l 274 257 l 213 0 l 60 0 m 301 382 l 532 382 l 463 674 q 433 808 444 751 q 417 888 421 865 q 401 808 413 865 q 371 675 390 751 l 301 382 m 417 1058 q 290 1103 338 1058 q 242 1222 242 1149 q 290 1341 242 1296 q 417 1386 338 1386 q 544 1341 496 1386 q 592 1222 592 1296 q 544 1103 592 1149 q 417 1058 496 1058 m 417 1139 q 477 1162 454 1139 q 500 1222 500 1185 q 477 1283 500 1260 q 417 1307 454 1307 q 356 1283 379 1307 q 333 1222 333 1260 q 356 1162 333 1185 q 417 1139 379 1139 z "},"Ã":{"ha":833,"x_min":60,"x_max":775,"o":"m 60 0 l 318 1014 l 515 1014 l 775 0 l 622 0 l 561 257 l 274 257 l 213 0 l 60 0 m 301 382 l 532 382 l 463 674 q 433 808 444 751 q 417 888 421 865 q 401 808 413 865 q 371 675 390 751 l 301 382 m 514 1126 q 444 1140 471 1126 q 400 1172 418 1154 q 365 1205 382 1190 q 326 1219 349 1219 q 285 1171 285 1219 l 285 1133 l 186 1133 l 186 1176 q 223 1281 186 1242 q 319 1319 260 1319 q 389 1305 363 1319 q 433 1272 415 1290 q 468 1240 451 1254 q 507 1226 485 1226 q 549 1271 549 1226 l 549 1313 l 647 1313 l 647 1268 q 610 1165 647 1203 q 514 1126 574 1126 z "},"Æ":{"ha":833,"x_min":29,"x_max":796,"o":"m 29 0 l 228 1014 l 796 1014 l 796 882 l 550 882 l 550 590 l 761 590 l 761 456 l 550 456 l 550 132 l 796 132 l 796 0 l 415 0 l 415 267 l 226 267 l 178 0 l 29 0 m 247 383 l 415 383 l 415 882 l 340 882 l 247 383 z "},"Ǽ":{"ha":833,"x_min":29,"x_max":796,"o":"m 29 0 l 228 1014 l 796 1014 l 796 882 l 550 882 l 550 590 l 761 590 l 761 456 l 550 456 l 550 132 l 796 132 l 796 0 l 415 0 l 415 267 l 226 267 l 178 0 l 29 0 m 247 383 l 415 383 l 415 882 l 340 882 l 247 383 m 324 1125 l 471 1319 l 632 1319 l 475 1125 l 324 1125 z "},"B":{"ha":833,"x_min":118,"x_max":749,"o":"m 118 0 l 118 1014 l 417 1014 q 642 944 560 1014 q 725 753 725 874 q 680 609 725 667 q 558 535 635 551 q 697 451 644 517 q 749 285 749 386 q 665 77 749 154 q 436 0 581 0 l 118 0 m 264 589 l 415 589 q 533 628 489 589 q 576 738 576 668 q 533 845 576 806 q 417 885 490 885 l 264 885 l 264 589 m 264 129 l 424 129 q 551 173 504 129 q 599 292 599 217 q 551 417 599 369 q 424 464 504 464 l 264 464 l 264 129 z "},"C":{"ha":833,"x_min":111,"x_max":732,"o":"m 422 -14 q 195 66 279 -14 q 111 282 111 146 l 111 732 q 195 949 111 869 q 422 1028 279 1028 q 648 948 564 1028 q 732 732 732 868 l 582 732 q 540 853 582 811 q 422 894 497 894 q 303 853 346 894 q 261 733 261 811 l 261 282 q 303 161 261 203 q 422 119 346 119 q 540 161 497 119 q 582 282 582 203 l 732 282 q 648 66 732 146 q 422 -14 564 -14 z "},"Ć":{"ha":833,"x_min":111,"x_max":732,"o":"m 422 -14 q 195 66 279 -14 q 111 282 111 146 l 111 732 q 195 949 111 869 q 422 1028 279 1028 q 648 948 564 1028 q 732 732 732 868 l 582 732 q 540 853 582 811 q 422 894 497 894 q 303 853 346 894 q 261 733 261 811 l 261 282 q 303 161 261 203 q 422 119 346 119 q 540 161 497 119 q 582 282 582 203 l 732 282 q 648 66 732 146 q 422 -14 564 -14 m 331 1125 l 478 1319 l 639 1319 l 482 1125 l 331 1125 z "},"Č":{"ha":833,"x_min":111,"x_max":732,"o":"m 422 -14 q 195 66 279 -14 q 111 282 111 146 l 111 732 q 195 949 111 869 q 422 1028 279 1028 q 648 948 564 1028 q 732 732 732 868 l 582 732 q 540 853 582 811 q 422 894 497 894 q 303 853 346 894 q 261 733 261 811 l 261 282 q 303 161 261 203 q 422 119 346 119 q 540 161 497 119 q 582 282 582 203 l 732 282 q 648 66 732 146 q 422 -14 564 -14 m 354 1125 l 163 1319 l 315 1319 l 425 1214 l 531 1319 l 685 1319 l 493 1125 l 354 1125 z "},"Ç":{"ha":833,"x_min":111,"x_max":732,"o":"m 288 -292 l 288 -208 l 389 -208 q 440 -192 421 -208 q 460 -158 460 -176 q 420 -114 460 -132 q 310 -96 381 -96 l 343 -7 q 173 90 235 14 q 111 282 111 165 l 111 732 q 195 949 111 869 q 422 1028 279 1028 q 648 948 564 1028 q 732 732 732 868 l 582 732 q 540 853 582 811 q 422 894 497 894 q 303 853 346 894 q 261 733 261 811 l 261 282 q 303 161 261 203 q 422 119 346 119 q 540 161 497 119 q 582 282 582 203 l 732 282 q 694 125 732 192 q 588 22 656 58 q 428 -14 519 -14 l 415 -50 q 494 -69 453 -54 q 563 -109 535 -83 q 592 -172 592 -135 q 543 -256 592 -221 q 417 -292 494 -292 l 288 -292 z "},"Ĉ":{"ha":833,"x_min":111,"x_max":732,"o":"m 422 -14 q 195 66 279 -14 q 111 282 111 146 l 111 732 q 195 949 111 869 q 422 1028 279 1028 q 648 948 564 1028 q 732 732 732 868 l 582 732 q 540 853 582 811 q 422 894 497 894 q 303 853 346 894 q 261 733 261 811 l 261 282 q 303 161 261 203 q 422 119 346 119 q 540 161 497 119 q 582 282 582 203 l 732 282 q 648 66 732 146 q 422 -14 564 -14 m 163 1125 l 354 1319 l 493 1319 l 685 1125 l 532 1125 l 422 1231 l 317 1125 l 163 1125 z "},"Ċ":{"ha":833,"x_min":111,"x_max":732,"o":"m 422 -14 q 195 66 279 -14 q 111 282 111 146 l 111 732 q 195 949 111 869 q 422 1028 279 1028 q 648 948 564 1028 q 732 732 732 868 l 582 732 q 540 853 582 811 q 422 894 497 894 q 303 853 346 894 q 261 733 261 811 l 261 282 q 303 161 261 203 q 422 119 346 119 q 540 161 497 119 q 582 282 582 203 l 732 282 q 648 66 732 146 q 422 -14 564 -14 m 424 1128 q 346 1153 375 1128 q 317 1222 317 1179 q 346 1291 317 1265 q 424 1317 375 1317 q 501 1291 472 1317 q 531 1222 531 1265 q 501 1153 531 1179 q 424 1128 472 1128 z "},"D":{"ha":833,"x_min":115,"x_max":728,"o":"m 115 0 l 115 1014 l 399 1014 q 572 976 499 1014 q 687 867 646 938 q 728 704 728 797 l 728 313 q 687 147 728 217 q 572 39 646 78 q 399 0 499 0 l 115 0 m 265 136 l 399 136 q 530 183 482 136 q 578 313 578 229 l 578 704 q 530 831 578 785 q 399 878 482 878 l 265 878 l 265 136 z "},"Ð":{"ha":833,"x_min":14,"x_max":728,"o":"m 115 0 l 115 461 l 14 461 l 14 574 l 115 574 l 115 1014 l 399 1014 q 572 976 499 1014 q 687 867 646 938 q 728 704 728 797 l 728 313 q 687 147 728 217 q 572 39 646 78 q 399 0 499 0 l 115 0 m 265 136 l 399 136 q 530 183 482 136 q 578 313 578 229 l 578 704 q 530 831 578 785 q 399 878 482 878 l 265 878 l 265 574 l 403 574 l 403 461 l 265 461 l 265 136 z "},"Ď":{"ha":833,"x_min":115,"x_max":728,"o":"m 115 0 l 115 1014 l 399 1014 q 572 976 499 1014 q 687 867 646 938 q 728 704 728 797 l 728 313 q 687 147 728 217 q 572 39 646 78 q 399 0 499 0 l 115 0 m 265 136 l 399 136 q 530 183 482 136 q 578 313 578 229 l 578 704 q 530 831 578 785 q 399 878 482 878 l 265 878 l 265 136 m 347 1125 l 156 1319 l 308 1319 l 418 1214 l 524 1319 l 678 1319 l 486 1125 l 347 1125 z "},"Đ":{"ha":833,"x_min":14,"x_max":728,"o":"m 115 0 l 115 461 l 14 461 l 14 574 l 115 574 l 115 1014 l 399 1014 q 572 976 499 1014 q 687 867 646 938 q 728 704 728 797 l 728 313 q 687 147 728 217 q 572 39 646 78 q 399 0 499 0 l 115 0 m 265 136 l 399 136 q 530 183 482 136 q 578 313 578 229 l 578 704 q 530 831 578 785 q 399 878 482 878 l 265 878 l 265 574 l 403 574 l 403 461 l 265 461 l 265 136 z "},"E":{"ha":833,"x_min":131,"x_max":726,"o":"m 131 0 l 131 1014 l 726 1014 l 726 881 l 278 881 l 278 593 l 678 593 l 678 461 l 278 461 l 278 133 l 726 133 l 726 0 l 131 0 z "},"É":{"ha":833,"x_min":131,"x_max":726,"o":"m 131 0 l 131 1014 l 726 1014 l 726 881 l 278 881 l 278 593 l 678 593 l 678 461 l 278 461 l 278 133 l 726 133 l 726 0 l 131 0 m 351 1125 l 499 1319 l 660 1319 l 503 1125 l 351 1125 z "},"Ĕ":{"ha":833,"x_min":131,"x_max":726,"o":"m 131 0 l 131 1014 l 726 1014 l 726 881 l 278 881 l 278 593 l 678 593 l 678 461 l 278 461 l 278 133 l 726 133 l 726 0 l 131 0 m 444 1117 q 276 1172 340 1117 q 213 1319 213 1228 l 329 1319 q 360 1239 329 1269 q 443 1208 392 1208 q 528 1239 496 1208 q 560 1319 560 1269 l 678 1319 q 613 1172 678 1228 q 444 1117 549 1117 z "},"Ě":{"ha":833,"x_min":131,"x_max":726,"o":"m 131 0 l 131 1014 l 726 1014 l 726 881 l 278 881 l 278 593 l 678 593 l 678 461 l 278 461 l 278 133 l 726 133 l 726 0 l 131 0 m 375 1125 l 183 1319 l 336 1319 l 446 1214 l 551 1319 l 706 1319 l 514 1125 l 375 1125 z "},"Ê":{"ha":833,"x_min":131,"x_max":726,"o":"m 131 0 l 131 1014 l 726 1014 l 726 881 l 278 881 l 278 593 l 678 593 l 678 461 l 278 461 l 278 133 l 726 133 l 726 0 l 131 0 m 183 1125 l 375 1319 l 514 1319 l 706 1125 l 553 1125 l 443 1231 l 338 1125 l 183 1125 z "},"Ế":{"ha":833,"x_min":131,"x_max":906,"o":"m 131 0 l 131 1014 l 726 1014 l 726 881 l 278 881 l 278 593 l 678 593 l 678 461 l 278 461 l 278 133 l 726 133 l 726 0 l 131 0 m 600 1253 l 746 1417 l 906 1417 l 750 1253 l 600 1253 m 185 1083 l 375 1278 l 514 1278 l 706 1083 l 551 1083 l 444 1189 l 338 1083 l 185 1083 z "},"Ệ":{"ha":833,"x_min":131,"x_max":726,"o":"m 131 0 l 131 1014 l 726 1014 l 726 881 l 278 881 l 278 593 l 678 593 l 678 461 l 278 461 l 278 133 l 726 133 l 726 0 l 131 0 m 444 -304 q 367 -279 396 -304 q 338 -210 338 -254 q 367 -141 338 -167 q 444 -115 396 -115 q 522 -141 493 -115 q 551 -210 551 -167 q 522 -279 551 -254 q 444 -304 493 -304 m 183 1125 l 375 1319 l 514 1319 l 706 1125 l 553 1125 l 443 1231 l 338 1125 l 183 1125 z "},"Ề":{"ha":833,"x_min":131,"x_max":799,"o":"m 131 0 l 131 1014 l 726 1014 l 726 881 l 278 881 l 278 593 l 678 593 l 678 461 l 278 461 l 278 133 l 726 133 l 726 0 l 131 0 m 650 1253 l 486 1417 l 643 1417 l 799 1253 l 650 1253 m 185 1083 l 375 1278 l 514 1278 l 706 1083 l 551 1083 l 444 1189 l 338 1083 l 185 1083 z "},"Ể":{"ha":833,"x_min":131,"x_max":808,"o":"m 131 0 l 131 1014 l 726 1014 l 726 881 l 278 881 l 278 593 l 678 593 l 678 461 l 278 461 l 278 133 l 726 133 l 726 0 l 131 0 m 618 1218 l 679 1278 q 693 1306 693 1292 q 668 1329 693 1329 l 575 1329 l 575 1417 l 697 1417 q 778 1391 747 1417 q 808 1322 808 1365 q 783 1258 808 1282 l 740 1218 l 618 1218 m 185 1083 l 375 1278 l 514 1278 l 706 1083 l 551 1083 l 444 1189 l 338 1083 l 185 1083 z "},"Ễ":{"ha":833,"x_min":131,"x_max":726,"o":"m 131 0 l 131 1014 l 726 1014 l 726 881 l 278 881 l 278 593 l 678 593 l 678 461 l 278 461 l 278 133 l 726 133 l 726 0 l 131 0 m 553 1274 q 462 1289 496 1274 q 403 1319 428 1304 q 347 1333 378 1333 q 319 1323 329 1333 q 308 1294 308 1313 l 308 1286 l 210 1286 l 210 1294 q 244 1383 210 1350 q 339 1417 279 1417 q 429 1401 396 1417 q 487 1372 463 1386 q 542 1357 511 1357 q 571 1367 560 1357 q 582 1396 582 1378 l 582 1406 l 681 1406 l 681 1396 q 646 1307 681 1340 q 553 1274 611 1274 m 185 1083 l 336 1233 l 553 1233 l 706 1083 l 550 1083 l 444 1186 l 338 1083 l 185 1083 z "},"Ë":{"ha":833,"x_min":131,"x_max":726,"o":"m 131 0 l 131 1014 l 726 1014 l 726 881 l 278 881 l 278 593 l 678 593 l 678 461 l 278 461 l 278 133 l 726 133 l 726 0 l 131 0 m 603 1129 q 534 1154 560 1129 q 508 1222 508 1179 q 534 1292 508 1267 q 603 1318 560 1318 q 673 1292 647 1318 q 699 1222 699 1267 q 673 1154 699 1179 q 603 1129 647 1129 m 286 1129 q 216 1154 242 1129 q 190 1222 190 1179 q 216 1292 190 1267 q 286 1318 242 1318 q 356 1292 329 1318 q 382 1222 382 1267 q 356 1154 382 1179 q 286 1129 329 1129 z "},"Ė":{"ha":833,"x_min":131,"x_max":726,"o":"m 131 0 l 131 1014 l 726 1014 l 726 881 l 278 881 l 278 593 l 678 593 l 678 461 l 278 461 l 278 133 l 726 133 l 726 0 l 131 0 m 444 1128 q 367 1153 396 1128 q 338 1222 338 1179 q 367 1291 338 1265 q 444 1317 396 1317 q 522 1291 493 1317 q 551 1222 551 1265 q 522 1153 551 1179 q 444 1128 493 1128 z "},"Ẹ":{"ha":833,"x_min":131,"x_max":726,"o":"m 131 0 l 131 1014 l 726 1014 l 726 881 l 278 881 l 278 593 l 678 593 l 678 461 l 278 461 l 278 133 l 726 133 l 726 0 l 131 0 m 444 -304 q 367 -279 396 -304 q 338 -210 338 -254 q 367 -141 338 -167 q 444 -115 396 -115 q 522 -141 493 -115 q 551 -210 551 -167 q 522 -279 551 -254 q 444 -304 493 -304 z "},"È":{"ha":833,"x_min":131,"x_max":726,"o":"m 131 0 l 131 1014 l 726 1014 l 726 881 l 278 881 l 278 593 l 678 593 l 678 461 l 278 461 l 278 133 l 726 133 l 726 0 l 131 0 m 386 1125 l 225 1319 l 392 1319 l 542 1125 l 386 1125 z "},"Ẻ":{"ha":833,"x_min":131,"x_max":726,"o":"m 131 0 l 131 1014 l 726 1014 l 726 881 l 278 881 l 278 593 l 678 593 l 678 461 l 278 461 l 278 133 l 726 133 l 726 0 l 131 0 m 381 1110 l 444 1194 q 464 1238 464 1221 q 422 1265 464 1265 l 315 1265 l 315 1364 l 438 1364 q 543 1334 503 1364 q 583 1254 583 1304 q 557 1178 583 1213 l 508 1110 l 381 1110 z "},"Ē":{"ha":833,"x_min":131,"x_max":726,"o":"m 131 0 l 131 1014 l 726 1014 l 726 881 l 278 881 l 278 593 l 678 593 l 678 461 l 278 461 l 278 133 l 726 133 l 726 0 l 131 0 m 214 1158 l 214 1278 l 675 1278 l 675 1158 l 214 1158 z "},"Ę":{"ha":833,"x_min":131,"x_max":733,"o":"m 131 0 l 131 1014 l 726 1014 l 726 881 l 278 881 l 278 593 l 678 593 l 678 461 l 278 461 l 278 133 l 726 133 l 726 0 l 660 0 l 653 -7 q 574 -125 574 -74 q 593 -171 574 -153 q 646 -189 613 -189 l 733 -189 l 733 -292 l 613 -292 q 486 -253 533 -292 q 439 -154 439 -214 q 465 -77 439 -117 q 546 0 490 -37 l 131 0 z "},"Ẽ":{"ha":833,"x_min":131,"x_max":726,"o":"m 131 0 l 131 1014 l 726 1014 l 726 881 l 278 881 l 278 593 l 678 593 l 678 461 l 278 461 l 278 133 l 726 133 l 726 0 l 131 0 m 542 1126 q 472 1140 499 1126 q 428 1172 446 1154 q 393 1205 410 1190 q 354 1219 376 1219 q 313 1171 313 1219 l 313 1133 l 214 1133 l 214 1176 q 251 1281 214 1242 q 347 1319 288 1319 q 417 1305 390 1319 q 461 1272 443 1290 q 496 1240 479 1254 q 535 1226 513 1226 q 576 1271 576 1226 l 576 1313 l 675 1313 l 675 1268 q 638 1165 675 1203 q 542 1126 601 1126 z "},"F":{"ha":833,"x_min":122,"x_max":736,"o":"m 122 0 l 122 1014 l 736 1014 l 736 876 l 269 876 l 269 574 l 700 574 l 700 435 l 272 435 l 272 0 l 122 0 z "},"G":{"ha":833,"x_min":111,"x_max":732,"o":"m 422 -14 q 195 66 279 -14 q 111 282 111 146 l 111 732 q 195 949 111 869 q 422 1028 279 1028 q 648 948 564 1028 q 732 732 732 868 l 582 732 q 540 853 582 811 q 422 894 497 894 q 303 853 346 894 q 261 733 261 811 l 261 282 q 303 160 261 203 q 422 118 346 118 q 540 160 497 118 q 582 282 582 203 l 582 396 l 393 396 l 393 528 l 732 528 l 732 282 q 648 66 732 146 q 422 -14 564 -14 z "},"Ǵ":{"ha":833,"x_min":111,"x_max":732,"o":"m 422 -14 q 195 66 279 -14 q 111 282 111 146 l 111 732 q 195 949 111 869 q 422 1028 279 1028 q 648 948 564 1028 q 732 732 732 868 l 582 732 q 540 853 582 811 q 422 894 497 894 q 303 853 346 894 q 261 733 261 811 l 261 282 q 303 160 261 203 q 422 118 346 118 q 540 160 497 118 q 582 282 582 203 l 582 396 l 393 396 l 393 528 l 732 528 l 732 282 q 648 66 732 146 q 422 -14 564 -14 m 324 1125 l 471 1319 l 632 1319 l 475 1125 l 324 1125 z "},"Ğ":{"ha":833,"x_min":111,"x_max":732,"o":"m 422 -14 q 195 66 279 -14 q 111 282 111 146 l 111 732 q 195 949 111 869 q 422 1028 279 1028 q 648 948 564 1028 q 732 732 732 868 l 582 732 q 540 853 582 811 q 422 894 497 894 q 303 853 346 894 q 261 733 261 811 l 261 282 q 303 160 261 203 q 422 118 346 118 q 540 160 497 118 q 582 282 582 203 l 582 396 l 393 396 l 393 528 l 732 528 l 732 282 q 648 66 732 146 q 422 -14 564 -14 m 417 1117 q 249 1172 313 1117 q 185 1319 185 1228 l 301 1319 q 333 1239 301 1269 q 415 1208 364 1208 q 500 1239 468 1208 q 532 1319 532 1269 l 650 1319 q 585 1172 650 1228 q 417 1117 521 1117 z "},"Ǧ":{"ha":833,"x_min":111,"x_max":732,"o":"m 422 -14 q 195 66 279 -14 q 111 282 111 146 l 111 732 q 195 949 111 869 q 422 1028 279 1028 q 648 948 564 1028 q 732 732 732 868 l 582 732 q 540 853 582 811 q 422 894 497 894 q 303 853 346 894 q 261 733 261 811 l 261 282 q 303 160 261 203 q 422 118 346 118 q 540 160 497 118 q 582 282 582 203 l 582 396 l 393 396 l 393 528 l 732 528 l 732 282 q 648 66 732 146 q 422 -14 564 -14 m 347 1125 l 156 1319 l 308 1319 l 418 1214 l 524 1319 l 678 1319 l 486 1125 l 347 1125 z "},"Ĝ":{"ha":833,"x_min":111,"x_max":732,"o":"m 422 -14 q 195 66 279 -14 q 111 282 111 146 l 111 732 q 195 949 111 869 q 422 1028 279 1028 q 648 948 564 1028 q 732 732 732 868 l 582 732 q 540 853 582 811 q 422 894 497 894 q 303 853 346 894 q 261 733 261 811 l 261 282 q 303 160 261 203 q 422 118 346 118 q 540 160 497 118 q 582 282 582 203 l 582 396 l 393 396 l 393 528 l 732 528 l 732 282 q 648 66 732 146 q 422 -14 564 -14 m 156 1125 l 347 1319 l 486 1319 l 678 1125 l 525 1125 l 415 1231 l 310 1125 l 156 1125 z "},"Ģ":{"ha":833,"x_min":111,"x_max":732,"o":"m 422 -14 q 195 66 279 -14 q 111 282 111 146 l 111 732 q 195 949 111 869 q 422 1028 279 1028 q 648 948 564 1028 q 732 732 732 868 l 582 732 q 540 853 582 811 q 422 894 497 894 q 303 853 346 894 q 261 733 261 811 l 261 282 q 303 160 261 203 q 422 118 346 118 q 540 160 497 118 q 582 282 582 203 l 582 396 l 393 396 l 393 528 l 732 528 l 732 282 q 648 66 732 146 q 422 -14 564 -14 m 264 -333 l 396 -132 l 560 -132 l 410 -333 l 264 -333 z "},"Ġ":{"ha":833,"x_min":111,"x_max":732,"o":"m 422 -14 q 195 66 279 -14 q 111 282 111 146 l 111 732 q 195 949 111 869 q 422 1028 279 1028 q 648 948 564 1028 q 732 732 732 868 l 582 732 q 540 853 582 811 q 422 894 497 894 q 303 853 346 894 q 261 733 261 811 l 261 282 q 303 160 261 203 q 422 118 346 118 q 540 160 497 118 q 582 282 582 203 l 582 396 l 393 396 l 393 528 l 732 528 l 732 282 q 648 66 732 146 q 422 -14 564 -14 m 417 1128 q 339 1153 368 1128 q 310 1222 310 1179 q 339 1291 310 1265 q 417 1317 368 1317 q 494 1291 465 1317 q 524 1222 524 1265 q 494 1153 524 1179 q 417 1128 465 1128 z "},"H":{"ha":833,"x_min":118,"x_max":715,"o":"m 118 0 l 118 1014 l 268 1014 l 268 594 l 565 594 l 565 1014 l 715 1014 l 715 0 l 565 0 l 565 456 l 268 456 l 268 0 l 118 0 z "},"Ħ":{"ha":833,"x_min":14,"x_max":819,"o":"m 118 0 l 118 729 l 14 729 l 14 842 l 118 842 l 118 1014 l 268 1014 l 268 842 l 565 842 l 565 1014 l 715 1014 l 715 842 l 819 842 l 819 729 l 715 729 l 715 0 l 565 0 l 565 456 l 268 456 l 268 0 l 118 0 m 268 594 l 565 594 l 565 729 l 268 729 l 268 594 z "},"Ĥ":{"ha":833,"x_min":118,"x_max":715,"o":"m 118 0 l 118 1014 l 268 1014 l 268 594 l 565 594 l 565 1014 l 715 1014 l 715 0 l 565 0 l 565 456 l 268 456 l 268 0 l 118 0 m 156 1125 l 347 1319 l 486 1319 l 678 1125 l 525 1125 l 415 1231 l 310 1125 l 156 1125 z "},"I":{"ha":833,"x_min":136,"x_max":699,"o":"m 136 0 l 136 133 l 340 133 l 340 881 l 136 881 l 136 1014 l 699 1014 l 699 881 l 493 881 l 493 133 l 699 133 l 699 0 l 136 0 z "},"Í":{"ha":833,"x_min":136,"x_max":699,"o":"m 136 0 l 136 133 l 340 133 l 340 881 l 136 881 l 136 1014 l 699 1014 l 699 881 l 493 881 l 493 133 l 699 133 l 699 0 l 136 0 m 324 1125 l 471 1319 l 632 1319 l 475 1125 l 324 1125 z "},"Ĭ":{"ha":833,"x_min":136,"x_max":699,"o":"m 136 0 l 136 133 l 340 133 l 340 881 l 136 881 l 136 1014 l 699 1014 l 699 881 l 493 881 l 493 133 l 699 133 l 699 0 l 136 0 m 417 1117 q 249 1172 313 1117 q 185 1319 185 1228 l 301 1319 q 333 1239 301 1269 q 415 1208 364 1208 q 500 1239 468 1208 q 532 1319 532 1269 l 650 1319 q 585 1172 650 1228 q 417 1117 521 1117 z "},"Î":{"ha":833,"x_min":136,"x_max":699,"o":"m 136 0 l 136 133 l 340 133 l 340 881 l 136 881 l 136 1014 l 699 1014 l 699 881 l 493 881 l 493 133 l 699 133 l 699 0 l 136 0 m 156 1125 l 347 1319 l 486 1319 l 678 1125 l 525 1125 l 415 1231 l 310 1125 l 156 1125 z "},"Ï":{"ha":833,"x_min":136,"x_max":699,"o":"m 136 0 l 136 133 l 340 133 l 340 881 l 136 881 l 136 1014 l 699 1014 l 699 881 l 493 881 l 493 133 l 699 133 l 699 0 l 136 0 m 575 1129 q 506 1154 532 1129 q 481 1222 481 1179 q 506 1292 481 1267 q 575 1318 532 1318 q 645 1292 619 1318 q 671 1222 671 1267 q 645 1154 671 1179 q 575 1129 619 1129 m 258 1129 q 188 1154 214 1129 q 163 1222 163 1179 q 188 1292 163 1267 q 258 1318 214 1318 q 328 1292 301 1318 q 354 1222 354 1267 q 328 1154 354 1179 q 258 1129 301 1129 z "},"İ":{"ha":833,"x_min":136,"x_max":699,"o":"m 136 0 l 136 133 l 340 133 l 340 881 l 136 881 l 136 1014 l 699 1014 l 699 881 l 493 881 l 493 133 l 699 133 l 699 0 l 136 0 m 417 1128 q 339 1153 368 1128 q 310 1222 310 1179 q 339 1291 310 1265 q 417 1317 368 1317 q 494 1291 465 1317 q 524 1222 524 1265 q 494 1153 524 1179 q 417 1128 465 1128 z "},"Ị":{"ha":833,"x_min":136,"x_max":699,"o":"m 136 0 l 136 133 l 340 133 l 340 881 l 136 881 l 136 1014 l 699 1014 l 699 881 l 493 881 l 493 133 l 699 133 l 699 0 l 136 0 m 417 -304 q 339 -279 368 -304 q 310 -210 310 -254 q 339 -141 310 -167 q 417 -115 368 -115 q 494 -141 465 -115 q 524 -210 524 -167 q 494 -279 524 -254 q 417 -304 465 -304 z "},"Ì":{"ha":833,"x_min":136,"x_max":699,"o":"m 136 0 l 136 133 l 340 133 l 340 881 l 136 881 l 136 1014 l 699 1014 l 699 881 l 493 881 l 493 133 l 699 133 l 699 0 l 136 0 m 358 1125 l 197 1319 l 364 1319 l 514 1125 l 358 1125 z "},"Ỉ":{"ha":833,"x_min":136,"x_max":699,"o":"m 136 0 l 136 133 l 340 133 l 340 881 l 136 881 l 136 1014 l 699 1014 l 699 881 l 493 881 l 493 133 l 699 133 l 699 0 l 136 0 m 353 1110 l 417 1194 q 436 1238 436 1221 q 394 1265 436 1265 l 288 1265 l 288 1364 l 410 1364 q 515 1334 475 1364 q 556 1254 556 1304 q 529 1178 556 1213 l 481 1110 l 353 1110 z "},"Ī":{"ha":833,"x_min":136,"x_max":699,"o":"m 136 0 l 136 133 l 340 133 l 340 881 l 136 881 l 136 1014 l 699 1014 l 699 881 l 493 881 l 493 133 l 699 133 l 699 0 l 136 0 m 186 1158 l 186 1278 l 647 1278 l 647 1158 l 186 1158 z "},"Į":{"ha":833,"x_min":136,"x_max":699,"o":"m 136 0 l 136 133 l 340 133 l 340 881 l 136 881 l 136 1014 l 699 1014 l 699 881 l 493 881 l 493 133 l 699 133 l 699 0 l 469 0 l 463 -7 q 383 -125 383 -74 q 403 -171 383 -153 q 456 -189 422 -189 l 543 -189 l 543 -292 l 422 -292 q 296 -253 343 -292 q 249 -154 249 -214 q 274 -77 249 -117 q 356 0 300 -37 l 136 0 z "},"Ĩ":{"ha":833,"x_min":136,"x_max":699,"o":"m 136 0 l 136 133 l 340 133 l 340 881 l 136 881 l 136 1014 l 699 1014 l 699 881 l 493 881 l 493 133 l 699 133 l 699 0 l 136 0 m 514 1126 q 444 1140 471 1126 q 400 1172 418 1154 q 365 1205 382 1190 q 326 1219 349 1219 q 285 1171 285 1219 l 285 1133 l 186 1133 l 186 1176 q 223 1281 186 1242 q 319 1319 260 1319 q 389 1305 363 1319 q 433 1272 415 1290 q 468 1240 451 1254 q 507 1226 485 1226 q 549 1271 549 1226 l 549 1313 l 647 1313 l 647 1268 q 610 1165 647 1203 q 514 1126 574 1126 z "},"J":{"ha":833,"x_min":53,"x_max":699,"o":"m 375 -14 q 139 69 225 -14 q 53 296 53 153 l 203 296 q 248 165 203 211 q 375 118 293 118 q 502 165 456 118 q 549 294 549 211 l 549 876 l 264 876 l 264 1014 l 699 1014 l 699 294 q 612 69 699 151 q 375 -14 525 -14 z "},"Ĵ":{"ha":833,"x_min":53,"x_max":761,"o":"m 375 -14 q 139 69 225 -14 q 53 296 53 153 l 203 296 q 248 165 203 211 q 375 118 293 118 q 502 165 456 118 q 549 294 549 211 l 549 876 l 264 876 l 264 1014 l 699 1014 l 699 294 q 612 69 699 151 q 375 -14 525 -14 m 239 1125 l 431 1319 l 569 1319 l 761 1125 l 608 1125 l 499 1231 l 393 1125 l 239 1125 z "},"K":{"ha":833,"x_min":117,"x_max":785,"o":"m 117 0 l 117 1014 l 267 1014 l 267 592 l 401 592 l 608 1014 l 772 1014 l 533 528 l 785 0 l 615 0 l 399 457 l 267 457 l 267 0 l 117 0 z "},"Ķ":{"ha":833,"x_min":117,"x_max":785,"o":"m 117 0 l 117 1014 l 267 1014 l 267 592 l 401 592 l 608 1014 l 772 1014 l 533 528 l 785 0 l 615 0 l 399 457 l 267 457 l 267 0 l 117 0 m 258 -333 l 390 -132 l 554 -132 l 404 -333 l 258 -333 z "},"L":{"ha":833,"x_min":151,"x_max":746,"o":"m 151 0 l 151 1014 l 301 1014 l 301 138 l 746 138 l 746 0 l 151 0 z "},"Ĺ":{"ha":833,"x_min":135,"x_max":746,"o":"m 151 0 l 151 1014 l 301 1014 l 301 138 l 746 138 l 746 0 l 151 0 m 135 1125 l 282 1319 l 443 1319 l 286 1125 l 135 1125 z "},"Ľ":{"ha":833,"x_min":151,"x_max":746,"o":"m 151 0 l 151 1014 l 301 1014 l 301 138 l 746 138 l 746 0 l 151 0 m 490 764 l 504 1014 l 646 1014 l 618 764 l 490 764 z "},"Ļ":{"ha":833,"x_min":151,"x_max":746,"o":"m 151 0 l 151 1014 l 301 1014 l 301 138 l 746 138 l 746 0 l 151 0 m 286 -333 l 418 -132 l 582 -132 l 432 -333 l 286 -333 z "},"Ŀ":{"ha":833,"x_min":151,"x_max":750,"o":"m 151 0 l 151 1014 l 301 1014 l 301 138 l 746 138 l 746 0 l 151 0 m 628 368 q 538 401 571 368 q 506 489 506 433 q 538 580 506 546 q 628 614 571 614 q 717 580 685 614 q 750 489 750 546 q 717 401 750 433 q 628 368 685 368 z "},"Ł":{"ha":833,"x_min":28,"x_max":750,"o":"m 156 0 l 156 399 l 28 319 l 28 456 l 156 535 l 156 1014 l 306 1014 l 306 628 l 546 778 l 546 642 l 306 492 l 306 138 l 750 138 l 750 0 l 156 0 z "},"M":{"ha":833,"x_min":92,"x_max":742,"o":"m 92 0 l 92 1014 l 276 1014 l 381 689 q 405 601 394 642 q 419 538 415 560 q 433 601 424 560 q 457 690 443 643 l 557 1014 l 742 1014 l 742 0 l 600 0 l 600 342 q 603 486 600 407 q 611 647 606 565 q 623 803 617 729 q 636 933 629 878 l 485 440 l 349 440 l 196 933 q 208 808 201 879 q 221 656 215 736 q 231 494 226 575 q 235 342 235 413 l 235 0 l 92 0 z "},"N":{"ha":833,"x_min":113,"x_max":721,"o":"m 113 0 l 113 1014 l 303 1014 l 597 171 q 590 265 594 210 q 584 381 586 321 q 582 490 582 440 l 582 1014 l 721 1014 l 721 0 l 532 0 l 238 843 q 244 752 240 806 q 250 640 247 699 q 253 532 253 582 l 253 0 l 113 0 z "},"Ń":{"ha":833,"x_min":113,"x_max":721,"o":"m 113 0 l 113 1014 l 303 1014 l 597 171 q 590 265 594 210 q 584 381 586 321 q 582 490 582 440 l 582 1014 l 721 1014 l 721 0 l 532 0 l 238 843 q 244 752 240 806 q 250 640 247 699 q 253 532 253 582 l 253 0 l 113 0 m 324 1125 l 471 1319 l 632 1319 l 475 1125 l 324 1125 z "},"Ň":{"ha":833,"x_min":113,"x_max":721,"o":"m 113 0 l 113 1014 l 303 1014 l 597 171 q 590 265 594 210 q 584 381 586 321 q 582 490 582 440 l 582 1014 l 721 1014 l 721 0 l 532 0 l 238 843 q 244 752 240 806 q 250 640 247 699 q 253 532 253 582 l 253 0 l 113 0 m 347 1125 l 156 1319 l 308 1319 l 418 1214 l 524 1319 l 678 1319 l 486 1125 l 347 1125 z "},"Ņ":{"ha":833,"x_min":113,"x_max":721,"o":"m 113 0 l 113 1014 l 303 1014 l 597 171 q 590 265 594 210 q 584 381 586 321 q 582 490 582 440 l 582 1014 l 721 1014 l 721 0 l 532 0 l 238 843 q 244 752 240 806 q 250 640 247 699 q 253 532 253 582 l 253 0 l 113 0 m 258 -333 l 390 -132 l 554 -132 l 404 -333 l 258 -333 z "},"Ŋ":{"ha":833,"x_min":113,"x_max":721,"o":"m 338 -250 l 338 -110 l 426 -110 q 532 -72 493 -110 q 571 32 571 -35 l 238 843 q 244 752 240 806 q 250 640 247 699 q 253 532 253 582 l 253 0 l 113 0 l 113 1014 l 303 1014 l 597 285 q 590 380 594 324 q 584 496 586 436 q 582 606 582 556 l 582 1014 l 721 1014 l 721 25 q 683 -119 721 -57 q 578 -216 646 -182 q 422 -250 511 -250 l 338 -250 z "},"Ñ":{"ha":833,"x_min":113,"x_max":721,"o":"m 113 0 l 113 1014 l 303 1014 l 597 171 q 590 265 594 210 q 584 381 586 321 q 582 490 582 440 l 582 1014 l 721 1014 l 721 0 l 532 0 l 238 843 q 244 752 240 806 q 250 640 247 699 q 253 532 253 582 l 253 0 l 113 0 m 514 1126 q 444 1140 471 1126 q 400 1172 418 1154 q 365 1205 382 1190 q 326 1219 349 1219 q 285 1171 285 1219 l 285 1133 l 186 1133 l 186 1176 q 223 1281 186 1242 q 319 1319 260 1319 q 389 1305 363 1319 q 433 1272 415 1290 q 468 1240 451 1254 q 507 1226 485 1226 q 549 1271 549 1226 l 549 1313 l 647 1313 l 647 1268 q 610 1165 647 1203 q 514 1126 574 1126 z "},"O":{"ha":833,"x_min":111,"x_max":722,"o":"m 417 -14 q 193 66 275 -14 q 111 282 111 146 l 111 732 q 193 948 111 868 q 417 1028 275 1028 q 640 949 558 1028 q 722 733 722 869 l 722 282 q 640 66 722 146 q 417 -14 558 -14 m 417 119 q 532 161 492 119 q 572 282 572 203 l 572 732 q 533 853 572 811 q 417 894 493 894 q 301 853 340 894 q 261 732 261 811 l 261 282 q 301 161 261 203 q 417 119 342 119 z "},"Ó":{"ha":833,"x_min":111,"x_max":722,"o":"m 417 -14 q 193 66 275 -14 q 111 282 111 146 l 111 732 q 193 948 111 868 q 417 1028 275 1028 q 640 949 558 1028 q 722 733 722 869 l 722 282 q 640 66 722 146 q 417 -14 558 -14 m 417 119 q 532 161 492 119 q 572 282 572 203 l 572 732 q 533 853 572 811 q 417 894 493 894 q 301 853 340 894 q 261 732 261 811 l 261 282 q 301 161 261 203 q 417 119 342 119 m 324 1125 l 471 1319 l 632 1319 l 475 1125 l 324 1125 z "},"Ŏ":{"ha":833,"x_min":111,"x_max":722,"o":"m 417 -14 q 193 66 275 -14 q 111 282 111 146 l 111 732 q 193 948 111 868 q 417 1028 275 1028 q 640 949 558 1028 q 722 733 722 869 l 722 282 q 640 66 722 146 q 417 -14 558 -14 m 417 119 q 532 161 492 119 q 572 282 572 203 l 572 732 q 533 853 572 811 q 417 894 493 894 q 301 853 340 894 q 261 732 261 811 l 261 282 q 301 161 261 203 q 417 119 342 119 m 417 1117 q 249 1172 313 1117 q 185 1319 185 1228 l 301 1319 q 333 1239 301 1269 q 415 1208 364 1208 q 500 1239 468 1208 q 532 1319 532 1269 l 650 1319 q 585 1172 650 1228 q 417 1117 521 1117 z "},"Ô":{"ha":833,"x_min":111,"x_max":722,"o":"m 417 -14 q 193 66 275 -14 q 111 282 111 146 l 111 732 q 193 948 111 868 q 417 1028 275 1028 q 640 949 558 1028 q 722 733 722 869 l 722 282 q 640 66 722 146 q 417 -14 558 -14 m 417 119 q 532 161 492 119 q 572 282 572 203 l 572 732 q 533 853 572 811 q 417 894 493 894 q 301 853 340 894 q 261 732 261 811 l 261 282 q 301 161 261 203 q 417 119 342 119 m 156 1125 l 347 1319 l 486 1319 l 678 1125 l 525 1125 l 415 1231 l 310 1125 l 156 1125 z "},"Ố":{"ha":833,"x_min":111,"x_max":878,"o":"m 417 -14 q 193 66 275 -14 q 111 282 111 146 l 111 732 q 193 948 111 868 q 417 1028 275 1028 q 640 949 558 1028 q 722 733 722 869 l 722 282 q 640 66 722 146 q 417 -14 558 -14 m 417 119 q 532 161 492 119 q 572 282 572 203 l 572 732 q 533 853 572 811 q 417 894 493 894 q 301 853 340 894 q 261 732 261 811 l 261 282 q 301 161 261 203 q 417 119 342 119 m 572 1253 l 718 1417 l 878 1417 l 722 1253 l 572 1253 m 157 1083 l 347 1278 l 486 1278 l 678 1083 l 524 1083 l 417 1189 l 310 1083 l 157 1083 z "},"Ộ":{"ha":833,"x_min":111,"x_max":722,"o":"m 417 -14 q 193 66 275 -14 q 111 282 111 146 l 111 732 q 193 948 111 868 q 417 1028 275 1028 q 640 949 558 1028 q 722 733 722 869 l 722 282 q 640 66 722 146 q 417 -14 558 -14 m 417 119 q 532 161 492 119 q 572 282 572 203 l 572 732 q 533 853 572 811 q 417 894 493 894 q 301 853 340 894 q 261 732 261 811 l 261 282 q 301 161 261 203 q 417 119 342 119 m 417 -304 q 339 -279 368 -304 q 310 -210 310 -254 q 339 -141 310 -167 q 417 -115 368 -115 q 494 -141 465 -115 q 524 -210 524 -167 q 494 -279 524 -254 q 417 -304 465 -304 m 156 1125 l 347 1319 l 486 1319 l 678 1125 l 525 1125 l 415 1231 l 310 1125 l 156 1125 z "},"Ồ":{"ha":833,"x_min":111,"x_max":771,"o":"m 417 -14 q 193 66 275 -14 q 111 282 111 146 l 111 732 q 193 948 111 868 q 417 1028 275 1028 q 640 949 558 1028 q 722 733 722 869 l 722 282 q 640 66 722 146 q 417 -14 558 -14 m 417 119 q 532 161 492 119 q 572 282 572 203 l 572 732 q 533 853 572 811 q 417 894 493 894 q 301 853 340 894 q 261 732 261 811 l 261 282 q 301 161 261 203 q 417 119 342 119 m 622 1253 l 458 1417 l 615 1417 l 771 1253 l 622 1253 m 157 1083 l 347 1278 l 486 1278 l 678 1083 l 524 1083 l 417 1189 l 310 1083 l 157 1083 z "},"Ổ":{"ha":833,"x_min":111,"x_max":781,"o":"m 417 -14 q 193 66 275 -14 q 111 282 111 146 l 111 732 q 193 948 111 868 q 417 1028 275 1028 q 640 949 558 1028 q 722 733 722 869 l 722 282 q 640 66 722 146 q 417 -14 558 -14 m 417 119 q 532 161 492 119 q 572 282 572 203 l 572 732 q 533 853 572 811 q 417 894 493 894 q 301 853 340 894 q 261 732 261 811 l 261 282 q 301 161 261 203 q 417 119 342 119 m 590 1218 l 651 1278 q 665 1306 665 1292 q 640 1329 665 1329 l 547 1329 l 547 1417 l 669 1417 q 750 1391 719 1417 q 781 1322 781 1365 q 756 1258 781 1282 l 713 1218 l 590 1218 m 157 1083 l 347 1278 l 486 1278 l 678 1083 l 524 1083 l 417 1189 l 310 1083 l 157 1083 z "},"Ỗ":{"ha":833,"x_min":111,"x_max":722,"o":"m 417 -14 q 193 66 275 -14 q 111 282 111 146 l 111 732 q 193 948 111 868 q 417 1028 275 1028 q 640 949 558 1028 q 722 733 722 869 l 722 282 q 640 66 722 146 q 417 -14 558 -14 m 417 119 q 532 161 492 119 q 572 282 572 203 l 572 732 q 533 853 572 811 q 417 894 493 894 q 301 853 340 894 q 261 732 261 811 l 261 282 q 301 161 261 203 q 417 119 342 119 m 525 1274 q 434 1289 468 1274 q 375 1319 400 1304 q 319 1333 350 1333 q 291 1323 301 1333 q 281 1294 281 1313 l 281 1286 l 182 1286 l 182 1294 q 217 1383 182 1350 q 311 1417 251 1417 q 401 1401 368 1417 q 459 1372 435 1386 q 514 1357 483 1357 q 543 1367 532 1357 q 554 1396 554 1378 l 554 1406 l 653 1406 l 653 1396 q 618 1307 653 1340 q 525 1274 583 1274 m 157 1083 l 308 1233 l 525 1233 l 678 1083 l 522 1083 l 417 1186 l 310 1083 l 157 1083 z "},"Ö":{"ha":833,"x_min":111,"x_max":722,"o":"m 417 -14 q 193 66 275 -14 q 111 282 111 146 l 111 732 q 193 948 111 868 q 417 1028 275 1028 q 640 949 558 1028 q 722 733 722 869 l 722 282 q 640 66 722 146 q 417 -14 558 -14 m 417 119 q 532 161 492 119 q 572 282 572 203 l 572 732 q 533 853 572 811 q 417 894 493 894 q 301 853 340 894 q 261 732 261 811 l 261 282 q 301 161 261 203 q 417 119 342 119 m 575 1129 q 506 1154 532 1129 q 481 1222 481 1179 q 506 1292 481 1267 q 575 1318 532 1318 q 645 1292 619 1318 q 671 1222 671 1267 q 645 1154 671 1179 q 575 1129 619 1129 m 258 1129 q 188 1154 214 1129 q 163 1222 163 1179 q 188 1292 163 1267 q 258 1318 214 1318 q 328 1292 301 1318 q 354 1222 354 1267 q 328 1154 354 1179 q 258 1129 301 1129 z "},"Ọ":{"ha":833,"x_min":111,"x_max":722,"o":"m 417 -14 q 193 66 275 -14 q 111 282 111 146 l 111 732 q 193 948 111 868 q 417 1028 275 1028 q 640 949 558 1028 q 722 733 722 869 l 722 282 q 640 66 722 146 q 417 -14 558 -14 m 417 119 q 532 161 492 119 q 572 282 572 203 l 572 732 q 533 853 572 811 q 417 894 493 894 q 301 853 340 894 q 261 732 261 811 l 261 282 q 301 161 261 203 q 417 119 342 119 m 417 -304 q 339 -279 368 -304 q 310 -210 310 -254 q 339 -141 310 -167 q 417 -115 368 -115 q 494 -141 465 -115 q 524 -210 524 -167 q 494 -279 524 -254 q 417 -304 465 -304 z "},"Ò":{"ha":833,"x_min":111,"x_max":722,"o":"m 417 -14 q 193 66 275 -14 q 111 282 111 146 l 111 732 q 193 948 111 868 q 417 1028 275 1028 q 640 949 558 1028 q 722 733 722 869 l 722 282 q 640 66 722 146 q 417 -14 558 -14 m 417 119 q 532 161 492 119 q 572 282 572 203 l 572 732 q 533 853 572 811 q 417 894 493 894 q 301 853 340 894 q 261 732 261 811 l 261 282 q 301 161 261 203 q 417 119 342 119 m 358 1125 l 197 1319 l 364 1319 l 514 1125 l 358 1125 z "},"Ỏ":{"ha":833,"x_min":111,"x_max":722,"o":"m 417 -14 q 193 66 275 -14 q 111 282 111 146 l 111 732 q 193 948 111 868 q 417 1028 275 1028 q 640 949 558 1028 q 722 733 722 869 l 722 282 q 640 66 722 146 q 417 -14 558 -14 m 417 119 q 532 161 492 119 q 572 282 572 203 l 572 732 q 533 853 572 811 q 417 894 493 894 q 301 853 340 894 q 261 732 261 811 l 261 282 q 301 161 261 203 q 417 119 342 119 m 353 1110 l 417 1194 q 436 1238 436 1221 q 394 1265 436 1265 l 288 1265 l 288 1364 l 410 1364 q 515 1334 475 1364 q 556 1254 556 1304 q 529 1178 556 1213 l 481 1110 l 353 1110 z "},"Ơ":{"ha":833,"x_min":111,"x_max":760,"o":"m 417 -14 q 193 66 275 -14 q 111 282 111 146 l 111 732 q 193 948 111 868 q 417 1028 275 1028 q 607 975 531 1028 q 636 1021 636 986 l 636 1125 l 760 1125 l 760 1015 q 686 888 760 926 q 722 733 722 821 l 722 282 q 640 66 722 146 q 417 -14 558 -14 m 417 119 q 532 161 492 119 q 572 282 572 203 l 572 732 q 533 853 572 811 q 417 894 493 894 q 301 853 340 894 q 261 732 261 811 l 261 282 q 301 161 261 203 q 417 119 342 119 z "},"Ớ":{"ha":833,"x_min":111,"x_max":760,"o":"m 417 -14 q 193 66 275 -14 q 111 282 111 146 l 111 732 q 193 948 111 868 q 417 1028 275 1028 q 607 975 531 1028 q 636 1021 636 986 l 636 1125 l 760 1125 l 760 1015 q 686 888 760 926 q 722 733 722 821 l 722 282 q 640 66 722 146 q 417 -14 558 -14 m 417 119 q 532 161 492 119 q 572 282 572 203 l 572 732 q 533 853 572 811 q 417 894 493 894 q 301 853 340 894 q 261 732 261 811 l 261 282 q 301 161 261 203 q 417 119 342 119 m 310 1125 l 457 1319 l 618 1319 l 461 1125 l 310 1125 z "},"Ợ":{"ha":833,"x_min":111,"x_max":760,"o":"m 417 -14 q 193 66 275 -14 q 111 282 111 146 l 111 732 q 193 948 111 868 q 417 1028 275 1028 q 607 975 531 1028 q 636 1021 636 986 l 636 1125 l 760 1125 l 760 1015 q 686 888 760 926 q 722 733 722 821 l 722 282 q 640 66 722 146 q 417 -14 558 -14 m 417 119 q 532 161 492 119 q 572 282 572 203 l 572 732 q 533 853 572 811 q 417 894 493 894 q 301 853 340 894 q 261 732 261 811 l 261 282 q 301 161 261 203 q 417 119 342 119 m 417 -304 q 339 -279 368 -304 q 310 -210 310 -254 q 339 -141 310 -167 q 417 -115 368 -115 q 494 -141 465 -115 q 524 -210 524 -167 q 494 -279 524 -254 q 417 -304 465 -304 z "},"Ờ":{"ha":833,"x_min":111,"x_max":760,"o":"m 417 -14 q 193 66 275 -14 q 111 282 111 146 l 111 732 q 193 948 111 868 q 417 1028 275 1028 q 607 975 531 1028 q 636 1021 636 986 l 636 1125 l 760 1125 l 760 1015 q 686 888 760 926 q 722 733 722 821 l 722 282 q 640 66 722 146 q 417 -14 558 -14 m 417 119 q 532 161 492 119 q 572 282 572 203 l 572 732 q 533 853 572 811 q 417 894 493 894 q 301 853 340 894 q 261 732 261 811 l 261 282 q 301 161 261 203 q 417 119 342 119 m 344 1125 l 183 1319 l 350 1319 l 500 1125 l 344 1125 z "},"Ở":{"ha":833,"x_min":111,"x_max":760,"o":"m 417 -14 q 193 66 275 -14 q 111 282 111 146 l 111 732 q 193 948 111 868 q 417 1028 275 1028 q 607 975 531 1028 q 636 1021 636 986 l 636 1125 l 760 1125 l 760 1015 q 686 888 760 926 q 722 733 722 821 l 722 282 q 640 66 722 146 q 417 -14 558 -14 m 417 119 q 532 161 492 119 q 572 282 572 203 l 572 732 q 533 853 572 811 q 417 894 493 894 q 301 853 340 894 q 261 732 261 811 l 261 282 q 301 161 261 203 q 417 119 342 119 m 339 1110 l 403 1194 q 422 1238 422 1221 q 381 1265 422 1265 l 274 1265 l 274 1364 l 396 1364 q 501 1334 461 1364 q 542 1254 542 1304 q 515 1178 542 1213 l 467 1110 l 339 1110 z "},"Ỡ":{"ha":833,"x_min":111,"x_max":760,"o":"m 417 -14 q 193 66 275 -14 q 111 282 111 146 l 111 732 q 193 948 111 868 q 417 1028 275 1028 q 607 975 531 1028 q 636 1021 636 986 l 636 1125 l 760 1125 l 760 1015 q 686 888 760 926 q 722 733 722 821 l 722 282 q 640 66 722 146 q 417 -14 558 -14 m 417 119 q 532 161 492 119 q 572 282 572 203 l 572 732 q 533 853 572 811 q 417 894 493 894 q 301 853 340 894 q 261 732 261 811 l 261 282 q 301 161 261 203 q 417 119 342 119 m 500 1126 q 431 1140 457 1126 q 386 1172 404 1154 q 351 1205 368 1190 q 313 1219 335 1219 q 271 1171 271 1219 l 271 1133 l 172 1133 l 172 1176 q 209 1281 172 1242 q 306 1319 246 1319 q 375 1305 349 1319 q 419 1272 401 1290 q 454 1240 438 1254 q 493 1226 471 1226 q 535 1271 535 1226 l 535 1313 l 633 1313 l 633 1268 q 597 1165 633 1203 q 500 1126 560 1126 z "},"Ő":{"ha":833,"x_min":111,"x_max":751,"o":"m 417 -14 q 193 66 275 -14 q 111 282 111 146 l 111 732 q 193 948 111 868 q 417 1028 275 1028 q 640 949 558 1028 q 722 733 722 869 l 722 282 q 640 66 722 146 q 417 -14 558 -14 m 417 119 q 532 161 492 119 q 572 282 572 203 l 572 732 q 533 853 572 811 q 417 894 493 894 q 301 853 340 894 q 261 732 261 811 l 261 282 q 301 161 261 203 q 417 119 342 119 m 451 1125 l 601 1319 l 751 1319 l 592 1125 l 451 1125 m 186 1125 l 338 1319 l 486 1319 l 326 1125 l 186 1125 z "},"Ō":{"ha":833,"x_min":111,"x_max":722,"o":"m 417 -14 q 193 66 275 -14 q 111 282 111 146 l 111 732 q 193 948 111 868 q 417 1028 275 1028 q 640 949 558 1028 q 722 733 722 869 l 722 282 q 640 66 722 146 q 417 -14 558 -14 m 417 119 q 532 161 492 119 q 572 282 572 203 l 572 732 q 533 853 572 811 q 417 894 493 894 q 301 853 340 894 q 261 732 261 811 l 261 282 q 301 161 261 203 q 417 119 342 119 m 186 1158 l 186 1278 l 647 1278 l 647 1158 l 186 1158 z "},"Ǫ":{"ha":833,"x_min":111,"x_max":722,"o":"m 517 -292 q 390 -253 436 -292 q 343 -154 343 -214 q 370 -81 343 -121 q 440 -7 397 -42 q 417 -14 431 -14 q 193 66 275 -14 q 111 282 111 146 l 111 732 q 193 948 111 868 q 417 1028 275 1028 q 640 949 558 1028 q 722 733 722 869 l 722 282 q 690 135 722 199 q 599 33 657 71 l 551 -6 q 494 -69 510 -40 q 478 -125 478 -99 q 497 -171 478 -153 q 550 -189 515 -189 l 638 -189 l 638 -292 l 517 -292 m 417 119 q 532 161 492 119 q 572 282 572 203 l 572 732 q 533 853 572 811 q 417 894 493 894 q 301 853 340 894 q 261 732 261 811 l 261 282 q 301 161 261 203 q 417 119 342 119 z "},"Ø":{"ha":833,"x_min":40,"x_max":793,"o":"m 40 -56 l 146 129 q 111 282 111 194 l 111 732 q 193 948 111 868 q 417 1028 275 1028 q 619 967 540 1028 l 663 1042 l 793 1042 l 696 869 q 722 733 722 810 l 722 282 q 640 66 722 146 q 417 -14 558 -14 q 225 39 303 -14 l 171 -56 l 40 -56 m 258 732 l 258 329 l 546 838 q 417 894 506 894 q 299 853 340 894 q 258 732 258 811 m 417 119 q 534 161 493 119 q 575 282 575 203 l 575 657 l 296 165 q 417 119 338 119 z "},"Ǿ":{"ha":833,"x_min":40,"x_max":793,"o":"m 40 -56 l 146 129 q 111 282 111 194 l 111 732 q 193 948 111 868 q 417 1028 275 1028 q 619 967 540 1028 l 663 1042 l 793 1042 l 696 869 q 722 733 722 810 l 722 282 q 640 66 722 146 q 417 -14 558 -14 q 225 39 303 -14 l 171 -56 l 40 -56 m 258 732 l 258 329 l 546 838 q 417 894 506 894 q 299 853 340 894 q 258 732 258 811 m 417 119 q 534 161 493 119 q 575 282 575 203 l 575 657 l 296 165 q 417 119 338 119 m 324 1125 l 471 1319 l 632 1319 l 475 1125 l 324 1125 z "},"Õ":{"ha":833,"x_min":111,"x_max":722,"o":"m 417 -14 q 193 66 275 -14 q 111 282 111 146 l 111 732 q 193 948 111 868 q 417 1028 275 1028 q 640 949 558 1028 q 722 733 722 869 l 722 282 q 640 66 722 146 q 417 -14 558 -14 m 417 119 q 532 161 492 119 q 572 282 572 203 l 572 732 q 533 853 572 811 q 417 894 493 894 q 301 853 340 894 q 261 732 261 811 l 261 282 q 301 161 261 203 q 417 119 342 119 m 514 1126 q 444 1140 471 1126 q 400 1172 418 1154 q 365 1205 382 1190 q 326 1219 349 1219 q 285 1171 285 1219 l 285 1133 l 186 1133 l 186 1176 q 223 1281 186 1242 q 319 1319 260 1319 q 389 1305 363 1319 q 433 1272 415 1290 q 468 1240 451 1254 q 507 1226 485 1226 q 549 1271 549 1226 l 549 1313 l 647 1313 l 647 1268 q 610 1165 647 1203 q 514 1126 574 1126 z "},"Œ":{"ha":833,"x_min":51,"x_max":801,"o":"m 263 -11 q 108 60 164 -11 q 51 257 51 132 l 51 760 q 108 956 51 885 q 263 1028 164 1028 q 344 1008 311 1028 q 394 959 376 988 q 415 903 411 931 l 422 903 l 422 1014 l 801 1014 l 801 882 l 561 882 l 561 589 l 767 589 l 767 457 l 561 457 l 561 132 l 801 132 l 801 0 l 422 0 l 422 114 l 415 114 q 394 58 411 86 q 344 9 376 29 q 263 -11 311 -11 m 308 118 q 390 155 361 118 q 419 257 419 192 l 419 760 q 390 862 419 825 q 308 899 361 899 q 227 861 257 899 q 197 760 197 824 l 197 257 q 227 155 197 192 q 308 118 257 118 z "},"P":{"ha":833,"x_min":117,"x_max":772,"o":"m 117 0 l 117 1014 l 449 1014 q 620 976 547 1014 q 733 870 693 939 q 772 708 772 801 q 732 547 772 615 q 619 440 692 478 q 449 403 547 403 l 267 403 l 267 0 l 117 0 m 267 538 l 449 538 q 573 584 526 538 q 619 708 619 631 q 573 833 619 786 q 449 879 526 879 l 267 879 l 267 538 z "},"Þ":{"ha":833,"x_min":117,"x_max":772,"o":"m 117 0 l 117 1014 l 267 1014 l 267 813 l 465 813 q 689 735 606 813 q 772 528 772 657 q 690 321 772 397 q 465 244 607 244 l 267 244 l 267 0 l 117 0 m 267 374 l 456 374 q 576 415 532 374 q 619 528 619 456 q 576 641 619 600 q 456 682 532 682 l 267 682 l 267 374 z "},"Q":{"ha":833,"x_min":103,"x_max":743,"o":"m 576 -250 l 433 -14 q 417 -14 424 -14 q 251 24 321 -14 q 142 128 181 61 q 103 288 103 196 l 103 728 q 188 946 103 864 q 417 1028 274 1028 q 583 990 513 1028 q 692 885 653 953 q 731 728 731 818 l 731 288 q 690 125 731 194 q 578 21 650 56 l 743 -250 l 576 -250 m 417 118 q 537 164 493 118 q 581 288 581 210 l 581 728 q 537 851 581 806 q 417 896 493 896 q 297 851 340 896 q 253 728 253 806 l 253 288 q 297 164 253 210 q 417 118 340 118 z "},"R":{"ha":833,"x_min":117,"x_max":765,"o":"m 117 0 l 117 1014 l 435 1014 q 601 977 529 1014 q 712 874 672 940 q 751 717 751 807 q 699 541 751 615 q 560 436 647 467 l 765 0 l 594 0 l 410 417 l 267 417 l 267 0 l 117 0 m 267 550 l 435 550 q 554 594 510 550 q 599 714 599 639 q 553 835 599 790 q 435 881 508 881 l 267 881 l 267 550 z "},"Ŕ":{"ha":833,"x_min":117,"x_max":765,"o":"m 117 0 l 117 1014 l 435 1014 q 601 977 529 1014 q 712 874 672 940 q 751 717 751 807 q 699 541 751 615 q 560 436 647 467 l 765 0 l 594 0 l 410 417 l 267 417 l 267 0 l 117 0 m 267 550 l 435 550 q 554 594 510 550 q 599 714 599 639 q 553 835 599 790 q 435 881 508 881 l 267 881 l 267 550 m 324 1125 l 471 1319 l 632 1319 l 475 1125 l 324 1125 z "},"Ř":{"ha":833,"x_min":117,"x_max":765,"o":"m 117 0 l 117 1014 l 435 1014 q 601 977 529 1014 q 712 874 672 940 q 751 717 751 807 q 699 541 751 615 q 560 436 647 467 l 765 0 l 594 0 l 410 417 l 267 417 l 267 0 l 117 0 m 267 550 l 435 550 q 554 594 510 550 q 599 714 599 639 q 553 835 599 790 q 435 881 508 881 l 267 881 l 267 550 m 347 1125 l 156 1319 l 308 1319 l 418 1214 l 524 1319 l 678 1319 l 486 1125 l 347 1125 z "},"Ŗ":{"ha":833,"x_min":117,"x_max":765,"o":"m 117 0 l 117 1014 l 435 1014 q 601 977 529 1014 q 712 874 672 940 q 751 717 751 807 q 699 541 751 615 q 560 436 647 467 l 765 0 l 594 0 l 410 417 l 267 417 l 267 0 l 117 0 m 267 550 l 435 550 q 554 594 510 550 q 599 714 599 639 q 553 835 599 790 q 435 881 508 881 l 267 881 l 267 550 m 258 -333 l 390 -132 l 554 -132 l 404 -333 l 258 -333 z "},"S":{"ha":833,"x_min":90,"x_max":744,"o":"m 421 -14 q 180 62 268 -14 q 90 268 92 138 l 240 268 q 288 159 240 199 q 422 119 336 119 q 549 158 503 119 q 594 265 594 197 q 563 363 594 321 q 474 421 531 404 l 347 458 q 174 567 235 490 q 114 751 114 644 q 151 897 114 835 q 258 994 189 960 q 422 1029 328 1029 q 645 953 561 1029 q 731 753 729 878 l 581 753 q 539 858 581 819 q 419 896 497 896 q 305 860 346 896 q 264 761 264 825 q 294 663 264 704 q 383 604 325 622 l 513 567 q 684 456 624 533 q 744 271 744 379 q 703 121 744 185 q 590 22 663 57 q 421 -14 518 -14 z "},"Ś":{"ha":833,"x_min":90,"x_max":744,"o":"m 421 -14 q 180 62 268 -14 q 90 268 92 138 l 240 268 q 288 159 240 199 q 422 119 336 119 q 549 158 503 119 q 594 265 594 197 q 563 363 594 321 q 474 421 531 404 l 347 458 q 174 567 235 490 q 114 751 114 644 q 151 897 114 835 q 258 994 189 960 q 422 1029 328 1029 q 645 953 561 1029 q 731 753 729 878 l 581 753 q 539 858 581 819 q 419 896 497 896 q 305 860 346 896 q 264 761 264 825 q 294 663 264 704 q 383 604 325 622 l 513 567 q 684 456 624 533 q 744 271 744 379 q 703 121 744 185 q 590 22 663 57 q 421 -14 518 -14 m 324 1125 l 471 1319 l 632 1319 l 475 1125 l 324 1125 z "},"Š":{"ha":833,"x_min":90,"x_max":744,"o":"m 421 -14 q 180 62 268 -14 q 90 268 92 138 l 240 268 q 288 159 240 199 q 422 119 336 119 q 549 158 503 119 q 594 265 594 197 q 563 363 594 321 q 474 421 531 404 l 347 458 q 174 567 235 490 q 114 751 114 644 q 151 897 114 835 q 258 994 189 960 q 422 1029 328 1029 q 645 953 561 1029 q 731 753 729 878 l 581 753 q 539 858 581 819 q 419 896 497 896 q 305 860 346 896 q 264 761 264 825 q 294 663 264 704 q 383 604 325 622 l 513 567 q 684 456 624 533 q 744 271 744 379 q 703 121 744 185 q 590 22 663 57 q 421 -14 518 -14 m 347 1125 l 156 1319 l 308 1319 l 418 1214 l 524 1319 l 678 1319 l 486 1125 l 347 1125 z "},"Ş":{"ha":833,"x_min":90,"x_max":744,"o":"m 281 -292 l 281 -208 l 382 -208 q 433 -192 414 -208 q 453 -158 453 -176 q 413 -114 453 -132 q 303 -96 374 -96 l 336 -7 q 156 85 221 13 q 90 268 90 157 l 240 268 q 288 159 240 199 q 422 119 336 119 q 549 158 503 119 q 594 265 594 197 q 563 363 594 321 q 474 421 531 404 l 347 458 q 174 567 235 490 q 114 751 114 644 q 151 897 114 835 q 258 994 189 960 q 422 1029 328 1029 q 645 953 561 1029 q 731 753 729 878 l 581 753 q 539 858 581 819 q 419 896 497 896 q 305 860 346 896 q 264 761 264 825 q 294 663 264 704 q 383 604 325 622 l 513 567 q 684 456 624 533 q 744 271 744 379 q 703 121 744 185 q 590 22 663 57 q 421 -14 518 -14 l 408 -50 q 487 -69 446 -54 q 556 -109 528 -83 q 585 -172 585 -135 q 536 -256 585 -221 q 410 -292 488 -292 l 281 -292 z "},"Ŝ":{"ha":833,"x_min":90,"x_max":744,"o":"m 421 -14 q 180 62 268 -14 q 90 268 92 138 l 240 268 q 288 159 240 199 q 422 119 336 119 q 549 158 503 119 q 594 265 594 197 q 563 363 594 321 q 474 421 531 404 l 347 458 q 174 567 235 490 q 114 751 114 644 q 151 897 114 835 q 258 994 189 960 q 422 1029 328 1029 q 645 953 561 1029 q 731 753 729 878 l 581 753 q 539 858 581 819 q 419 896 497 896 q 305 860 346 896 q 264 761 264 825 q 294 663 264 704 q 383 604 325 622 l 513 567 q 684 456 624 533 q 744 271 744 379 q 703 121 744 185 q 590 22 663 57 q 421 -14 518 -14 m 156 1125 l 347 1319 l 486 1319 l 678 1125 l 525 1125 l 415 1231 l 310 1125 l 156 1125 z "},"Ș":{"ha":833,"x_min":90,"x_max":744,"o":"m 421 -14 q 180 62 268 -14 q 90 268 92 138 l 240 268 q 288 159 240 199 q 422 119 336 119 q 549 158 503 119 q 594 265 594 197 q 563 363 594 321 q 474 421 531 404 l 347 458 q 174 567 235 490 q 114 751 114 644 q 151 897 114 835 q 258 994 189 960 q 422 1029 328 1029 q 645 953 561 1029 q 731 753 729 878 l 581 753 q 539 858 581 819 q 419 896 497 896 q 305 860 346 896 q 264 761 264 825 q 294 663 264 704 q 383 604 325 622 l 513 567 q 684 456 624 533 q 744 271 744 379 q 703 121 744 185 q 590 22 663 57 q 421 -14 518 -14 m 258 -333 l 390 -132 l 554 -132 l 404 -333 l 258 -333 z "},"ẞ":{"ha":833,"x_min":114,"x_max":758,"o":"m 114 0 l 114 722 q 152 876 114 810 q 258 978 190 942 q 417 1014 326 1014 l 742 1014 l 742 869 l 518 588 q 693 499 628 576 q 758 299 758 421 q 719 142 758 208 q 610 38 681 75 q 446 0 540 0 l 358 0 l 358 132 l 433 132 q 558 178 513 132 q 603 304 603 225 q 557 426 603 381 q 433 472 511 472 l 371 472 l 371 594 l 593 882 l 417 882 q 301 839 343 882 q 258 722 258 796 l 258 0 l 114 0 z "},"Ə":{"ha":833,"x_min":113,"x_max":721,"o":"m 417 -14 q 194 67 276 -14 q 113 282 113 149 l 113 563 l 571 563 l 571 733 q 532 853 571 811 q 417 896 493 896 q 303 853 342 896 q 264 732 264 811 l 114 732 q 195 948 114 868 q 417 1028 276 1028 q 640 949 560 1028 q 721 732 721 869 l 721 282 q 640 67 721 149 q 417 -14 558 -14 m 417 107 q 534 152 497 107 q 571 282 571 197 l 571 449 l 263 449 l 263 282 q 417 107 263 107 z "},"T":{"ha":833,"x_min":71,"x_max":764,"o":"m 342 0 l 342 876 l 71 876 l 71 1014 l 764 1014 l 764 876 l 492 876 l 492 0 l 342 0 z "},"Ŧ":{"ha":833,"x_min":71,"x_max":764,"o":"m 342 0 l 342 401 l 149 401 l 149 522 l 342 522 l 342 876 l 71 876 l 71 1014 l 764 1014 l 764 876 l 492 876 l 492 522 l 685 522 l 685 401 l 492 401 l 492 0 l 342 0 z "},"Ť":{"ha":833,"x_min":71,"x_max":764,"o":"m 342 0 l 342 876 l 71 876 l 71 1014 l 764 1014 l 764 876 l 492 876 l 492 0 l 342 0 m 347 1125 l 156 1319 l 308 1319 l 418 1214 l 524 1319 l 678 1319 l 486 1125 l 347 1125 z "},"Ţ":{"ha":833,"x_min":71,"x_max":764,"o":"m 342 0 l 342 876 l 71 876 l 71 1014 l 764 1014 l 764 876 l 492 876 l 492 0 l 475 -50 q 553 -69 513 -54 q 622 -109 594 -83 q 650 -172 650 -135 q 602 -256 650 -221 q 475 -292 554 -292 l 347 -292 l 347 -208 l 449 -208 q 499 -192 479 -208 q 519 -158 519 -176 q 480 -114 519 -132 q 368 -96 440 -96 l 406 0 l 342 0 z "},"Ț":{"ha":833,"x_min":71,"x_max":764,"o":"m 342 0 l 342 876 l 71 876 l 71 1014 l 764 1014 l 764 876 l 492 876 l 492 0 l 342 0 m 258 -333 l 390 -132 l 554 -132 l 404 -333 l 258 -333 z "},"U":{"ha":833,"x_min":113,"x_max":721,"o":"m 417 -14 q 192 66 271 -14 q 113 283 113 146 l 113 1014 l 263 1014 l 263 285 q 301 163 263 207 q 417 118 340 118 q 532 163 493 118 q 571 285 571 207 l 571 1014 l 721 1014 l 721 283 q 642 65 721 144 q 417 -14 563 -14 z "},"Ú":{"ha":833,"x_min":113,"x_max":721,"o":"m 417 -14 q 192 66 271 -14 q 113 283 113 146 l 113 1014 l 263 1014 l 263 285 q 301 163 263 207 q 417 118 340 118 q 532 163 493 118 q 571 285 571 207 l 571 1014 l 721 1014 l 721 283 q 642 65 721 144 q 417 -14 563 -14 m 324 1125 l 471 1319 l 632 1319 l 475 1125 l 324 1125 z "},"Ŭ":{"ha":833,"x_min":113,"x_max":721,"o":"m 417 -14 q 192 66 271 -14 q 113 283 113 146 l 113 1014 l 263 1014 l 263 285 q 301 163 263 207 q 417 118 340 118 q 532 163 493 118 q 571 285 571 207 l 571 1014 l 721 1014 l 721 283 q 642 65 721 144 q 417 -14 563 -14 m 417 1117 q 249 1172 313 1117 q 185 1319 185 1228 l 301 1319 q 333 1239 301 1269 q 415 1208 364 1208 q 500 1239 468 1208 q 532 1319 532 1269 l 650 1319 q 585 1172 650 1228 q 417 1117 521 1117 z "},"Û":{"ha":833,"x_min":113,"x_max":721,"o":"m 417 -14 q 192 66 271 -14 q 113 283 113 146 l 113 1014 l 263 1014 l 263 285 q 301 163 263 207 q 417 118 340 118 q 532 163 493 118 q 571 285 571 207 l 571 1014 l 721 1014 l 721 283 q 642 65 721 144 q 417 -14 563 -14 m 156 1125 l 347 1319 l 486 1319 l 678 1125 l 525 1125 l 415 1231 l 310 1125 l 156 1125 z "},"Ü":{"ha":833,"x_min":113,"x_max":721,"o":"m 417 -14 q 192 66 271 -14 q 113 283 113 146 l 113 1014 l 263 1014 l 263 285 q 301 163 263 207 q 417 118 340 118 q 532 163 493 118 q 571 285 571 207 l 571 1014 l 721 1014 l 721 283 q 642 65 721 144 q 417 -14 563 -14 m 575 1129 q 506 1154 532 1129 q 481 1222 481 1179 q 506 1292 481 1267 q 575 1318 532 1318 q 645 1292 619 1318 q 671 1222 671 1267 q 645 1154 671 1179 q 575 1129 619 1129 m 258 1129 q 188 1154 214 1129 q 163 1222 163 1179 q 188 1292 163 1267 q 258 1318 214 1318 q 328 1292 301 1318 q 354 1222 354 1267 q 328 1154 354 1179 q 258 1129 301 1129 z "},"Ụ":{"ha":833,"x_min":113,"x_max":721,"o":"m 417 -14 q 192 66 271 -14 q 113 283 113 146 l 113 1014 l 263 1014 l 263 285 q 301 163 263 207 q 417 118 340 118 q 532 163 493 118 q 571 285 571 207 l 571 1014 l 721 1014 l 721 283 q 642 65 721 144 q 417 -14 563 -14 m 417 -304 q 339 -279 368 -304 q 310 -210 310 -254 q 339 -141 310 -167 q 417 -115 368 -115 q 494 -141 465 -115 q 524 -210 524 -167 q 494 -279 524 -254 q 417 -304 465 -304 z "},"Ù":{"ha":833,"x_min":113,"x_max":721,"o":"m 417 -14 q 192 66 271 -14 q 113 283 113 146 l 113 1014 l 263 1014 l 263 285 q 301 163 263 207 q 417 118 340 118 q 532 163 493 118 q 571 285 571 207 l 571 1014 l 721 1014 l 721 283 q 642 65 721 144 q 417 -14 563 -14 m 358 1125 l 197 1319 l 364 1319 l 514 1125 l 358 1125 z "},"Ủ":{"ha":833,"x_min":113,"x_max":721,"o":"m 417 -14 q 192 66 271 -14 q 113 283 113 146 l 113 1014 l 263 1014 l 263 285 q 301 163 263 207 q 417 118 340 118 q 532 163 493 118 q 571 285 571 207 l 571 1014 l 721 1014 l 721 283 q 642 65 721 144 q 417 -14 563 -14 m 353 1110 l 417 1194 q 436 1238 436 1221 q 394 1265 436 1265 l 288 1265 l 288 1364 l 410 1364 q 515 1334 475 1364 q 556 1254 556 1304 q 529 1178 556 1213 l 481 1110 l 353 1110 z "},"Ư":{"ha":833,"x_min":113,"x_max":850,"o":"m 417 -14 q 192 66 271 -14 q 113 283 113 146 l 113 1014 l 263 1014 l 263 285 q 301 163 263 207 q 417 118 340 118 q 532 163 493 118 q 571 285 571 207 l 571 1014 l 678 1014 q 713 1027 700 1014 q 726 1063 726 1040 l 726 1167 l 850 1167 l 850 1058 q 815 960 850 999 q 721 911 781 921 l 721 283 q 642 65 721 144 q 417 -14 563 -14 z "},"Ứ":{"ha":833,"x_min":113,"x_max":850,"o":"m 417 -14 q 192 66 271 -14 q 113 283 113 146 l 113 1014 l 263 1014 l 263 285 q 301 163 263 207 q 417 118 340 118 q 532 163 493 118 q 571 285 571 207 l 571 1014 l 678 1014 q 713 1027 700 1014 q 726 1063 726 1040 l 726 1167 l 850 1167 l 850 1058 q 815 960 850 999 q 721 911 781 921 l 721 283 q 642 65 721 144 q 417 -14 563 -14 m 324 1125 l 471 1319 l 632 1319 l 475 1125 l 324 1125 z "},"Ự":{"ha":833,"x_min":113,"x_max":850,"o":"m 417 -14 q 192 66 271 -14 q 113 283 113 146 l 113 1014 l 263 1014 l 263 285 q 301 163 263 207 q 417 118 340 118 q 532 163 493 118 q 571 285 571 207 l 571 1014 l 678 1014 q 713 1027 700 1014 q 726 1063 726 1040 l 726 1167 l 850 1167 l 850 1058 q 815 960 850 999 q 721 911 781 921 l 721 283 q 642 65 721 144 q 417 -14 563 -14 m 417 -304 q 339 -279 368 -304 q 310 -210 310 -254 q 339 -141 310 -167 q 417 -115 368 -115 q 494 -141 465 -115 q 524 -210 524 -167 q 494 -279 524 -254 q 417 -304 465 -304 z "},"Ừ":{"ha":833,"x_min":113,"x_max":850,"o":"m 417 -14 q 192 66 271 -14 q 113 283 113 146 l 113 1014 l 263 1014 l 263 285 q 301 163 263 207 q 417 118 340 118 q 532 163 493 118 q 571 285 571 207 l 571 1014 l 678 1014 q 713 1027 700 1014 q 726 1063 726 1040 l 726 1167 l 850 1167 l 850 1058 q 815 960 850 999 q 721 911 781 921 l 721 283 q 642 65 721 144 q 417 -14 563 -14 m 358 1125 l 197 1319 l 364 1319 l 514 1125 l 358 1125 z "},"Ử":{"ha":833,"x_min":113,"x_max":850,"o":"m 417 -14 q 192 66 271 -14 q 113 283 113 146 l 113 1014 l 263 1014 l 263 285 q 301 163 263 207 q 417 118 340 118 q 532 163 493 118 q 571 285 571 207 l 571 1014 l 678 1014 q 713 1027 700 1014 q 726 1063 726 1040 l 726 1167 l 850 1167 l 850 1058 q 815 960 850 999 q 721 911 781 921 l 721 283 q 642 65 721 144 q 417 -14 563 -14 m 353 1110 l 417 1194 q 436 1238 436 1221 q 394 1265 436 1265 l 288 1265 l 288 1364 l 410 1364 q 515 1334 475 1364 q 556 1254 556 1304 q 529 1178 556 1213 l 481 1110 l 353 1110 z "},"Ữ":{"ha":833,"x_min":113,"x_max":850,"o":"m 417 -14 q 192 66 271 -14 q 113 283 113 146 l 113 1014 l 263 1014 l 263 285 q 301 163 263 207 q 417 118 340 118 q 532 163 493 118 q 571 285 571 207 l 571 1014 l 678 1014 q 713 1027 700 1014 q 726 1063 726 1040 l 726 1167 l 850 1167 l 850 1058 q 815 960 850 999 q 721 911 781 921 l 721 283 q 642 65 721 144 q 417 -14 563 -14 m 514 1126 q 444 1140 471 1126 q 400 1172 418 1154 q 365 1205 382 1190 q 326 1219 349 1219 q 285 1171 285 1219 l 285 1133 l 186 1133 l 186 1176 q 223 1281 186 1242 q 319 1319 260 1319 q 389 1305 363 1319 q 433 1272 415 1290 q 468 1240 451 1254 q 507 1226 485 1226 q 549 1271 549 1226 l 549 1313 l 647 1313 l 647 1268 q 610 1165 647 1203 q 514 1126 574 1126 z "},"Ű":{"ha":833,"x_min":113,"x_max":751,"o":"m 417 -14 q 192 66 271 -14 q 113 283 113 146 l 113 1014 l 263 1014 l 263 285 q 301 163 263 207 q 417 118 340 118 q 532 163 493 118 q 571 285 571 207 l 571 1014 l 721 1014 l 721 283 q 642 65 721 144 q 417 -14 563 -14 m 451 1125 l 601 1319 l 751 1319 l 592 1125 l 451 1125 m 186 1125 l 338 1319 l 486 1319 l 326 1125 l 186 1125 z "},"Ū":{"ha":833,"x_min":113,"x_max":721,"o":"m 417 -14 q 192 66 271 -14 q 113 283 113 146 l 113 1014 l 263 1014 l 263 285 q 301 163 263 207 q 417 118 340 118 q 532 163 493 118 q 571 285 571 207 l 571 1014 l 721 1014 l 721 283 q 642 65 721 144 q 417 -14 563 -14 m 186 1158 l 186 1278 l 647 1278 l 647 1158 l 186 1158 z "},"Ų":{"ha":833,"x_min":113,"x_max":721,"o":"m 517 -292 q 390 -253 436 -292 q 343 -154 343 -214 q 370 -81 343 -121 q 440 -7 397 -42 q 417 -14 431 -14 q 194 66 275 -14 q 113 282 113 146 l 113 1014 l 263 1014 l 263 282 q 302 161 263 203 q 417 119 342 119 q 531 161 492 119 q 571 282 571 203 l 571 1014 l 721 1014 l 721 282 q 689 135 721 199 q 599 33 657 71 l 551 -6 q 494 -69 510 -40 q 478 -125 478 -99 q 497 -171 478 -153 q 550 -189 515 -189 l 638 -189 l 638 -292 l 517 -292 z "},"Ů":{"ha":833,"x_min":113,"x_max":721,"o":"m 417 -14 q 192 66 271 -14 q 113 283 113 146 l 113 1014 l 263 1014 l 263 285 q 301 163 263 207 q 417 118 340 118 q 532 163 493 118 q 571 285 571 207 l 571 1014 l 721 1014 l 721 283 q 642 65 721 144 q 417 -14 563 -14 m 417 1058 q 290 1103 338 1058 q 242 1222 242 1149 q 290 1341 242 1296 q 417 1386 338 1386 q 544 1341 496 1386 q 592 1222 592 1296 q 544 1103 592 1149 q 417 1058 496 1058 m 417 1139 q 477 1162 454 1139 q 500 1222 500 1185 q 477 1283 500 1260 q 417 1307 454 1307 q 356 1283 379 1307 q 333 1222 333 1260 q 356 1162 333 1185 q 417 1139 379 1139 z "},"Ũ":{"ha":833,"x_min":113,"x_max":721,"o":"m 417 -14 q 192 66 271 -14 q 113 283 113 146 l 113 1014 l 263 1014 l 263 285 q 301 163 263 207 q 417 118 340 118 q 532 163 493 118 q 571 285 571 207 l 571 1014 l 721 1014 l 721 283 q 642 65 721 144 q 417 -14 563 -14 m 514 1126 q 444 1140 471 1126 q 400 1172 418 1154 q 365 1205 382 1190 q 326 1219 349 1219 q 285 1171 285 1219 l 285 1133 l 186 1133 l 186 1176 q 223 1281 186 1242 q 319 1319 260 1319 q 389 1305 363 1319 q 433 1272 415 1290 q 468 1240 451 1254 q 507 1226 485 1226 q 549 1271 549 1226 l 549 1313 l 647 1313 l 647 1268 q 610 1165 647 1203 q 514 1126 574 1126 z "},"V":{"ha":833,"x_min":60,"x_max":775,"o":"m 317 0 l 60 1014 l 214 1014 l 376 340 q 403 220 392 279 q 421 129 415 161 q 438 220 426 161 q 463 340 449 279 l 624 1014 l 775 1014 l 517 0 l 317 0 z "},"W":{"ha":833,"x_min":29,"x_max":806,"o":"m 139 0 l 29 1014 l 164 1014 l 232 286 q 240 192 236 244 q 243 106 243 139 q 252 192 247 139 q 263 286 257 244 l 350 1014 l 489 1014 l 571 286 q 581 192 575 244 q 590 106 588 139 q 597 192 593 139 q 604 286 600 244 l 674 1014 l 806 1014 l 690 0 l 517 0 l 435 738 q 426 832 431 781 q 418 915 421 883 q 411 832 415 883 q 401 738 407 781 l 314 0 l 139 0 z "},"Ẃ":{"ha":833,"x_min":29,"x_max":806,"o":"m 139 0 l 29 1014 l 164 1014 l 232 286 q 240 192 236 244 q 243 106 243 139 q 252 192 247 139 q 263 286 257 244 l 350 1014 l 489 1014 l 571 286 q 581 192 575 244 q 590 106 588 139 q 597 192 593 139 q 604 286 600 244 l 674 1014 l 806 1014 l 690 0 l 517 0 l 435 738 q 426 832 431 781 q 418 915 421 883 q 411 832 415 883 q 401 738 407 781 l 314 0 l 139 0 m 324 1125 l 471 1319 l 632 1319 l 475 1125 l 324 1125 z "},"Ŵ":{"ha":833,"x_min":29,"x_max":806,"o":"m 139 0 l 29 1014 l 164 1014 l 232 286 q 240 192 236 244 q 243 106 243 139 q 252 192 247 139 q 263 286 257 244 l 350 1014 l 489 1014 l 571 286 q 581 192 575 244 q 590 106 588 139 q 597 192 593 139 q 604 286 600 244 l 674 1014 l 806 1014 l 690 0 l 517 0 l 435 738 q 426 832 431 781 q 418 915 421 883 q 411 832 415 883 q 401 738 407 781 l 314 0 l 139 0 m 156 1125 l 347 1319 l 486 1319 l 678 1125 l 525 1125 l 415 1231 l 310 1125 l 156 1125 z "},"Ẅ":{"ha":833,"x_min":29,"x_max":806,"o":"m 139 0 l 29 1014 l 164 1014 l 232 286 q 240 192 236 244 q 243 106 243 139 q 252 192 247 139 q 263 286 257 244 l 350 1014 l 489 1014 l 571 286 q 581 192 575 244 q 590 106 588 139 q 597 192 593 139 q 604 286 600 244 l 674 1014 l 806 1014 l 690 0 l 517 0 l 435 738 q 426 832 431 781 q 418 915 421 883 q 411 832 415 883 q 401 738 407 781 l 314 0 l 139 0 m 575 1129 q 506 1154 532 1129 q 481 1222 481 1179 q 506 1292 481 1267 q 575 1318 532 1318 q 645 1292 619 1318 q 671 1222 671 1267 q 645 1154 671 1179 q 575 1129 619 1129 m 258 1129 q 188 1154 214 1129 q 163 1222 163 1179 q 188 1292 163 1267 q 258 1318 214 1318 q 328 1292 301 1318 q 354 1222 354 1267 q 328 1154 354 1179 q 258 1129 301 1129 z "},"Ẁ":{"ha":833,"x_min":29,"x_max":806,"o":"m 139 0 l 29 1014 l 164 1014 l 232 286 q 240 192 236 244 q 243 106 243 139 q 252 192 247 139 q 263 286 257 244 l 350 1014 l 489 1014 l 571 286 q 581 192 575 244 q 590 106 588 139 q 597 192 593 139 q 604 286 600 244 l 674 1014 l 806 1014 l 690 0 l 517 0 l 435 738 q 426 832 431 781 q 418 915 421 883 q 411 832 415 883 q 401 738 407 781 l 314 0 l 139 0 m 358 1125 l 197 1319 l 364 1319 l 514 1125 l 358 1125 z "},"X":{"ha":833,"x_min":47,"x_max":786,"o":"m 47 0 l 333 517 l 64 1014 l 233 1014 l 375 738 q 400 685 388 711 q 419 644 413 658 q 437 685 425 658 q 463 738 449 711 l 607 1014 l 769 1014 l 500 522 l 786 0 l 617 0 l 460 300 q 433 353 446 326 q 414 396 421 381 q 396 353 408 381 q 371 301 383 326 l 211 0 l 47 0 z "},"Y":{"ha":833,"x_min":40,"x_max":793,"o":"m 342 0 l 342 374 l 40 1014 l 196 1014 l 375 631 q 404 560 393 593 q 419 510 415 526 q 435 560 424 526 q 463 631 446 593 l 638 1014 l 793 1014 l 492 374 l 492 0 l 342 0 z "},"Ý":{"ha":833,"x_min":40,"x_max":793,"o":"m 342 0 l 342 374 l 40 1014 l 196 1014 l 375 631 q 404 560 393 593 q 419 510 415 526 q 435 560 424 526 q 463 631 446 593 l 638 1014 l 793 1014 l 492 374 l 492 0 l 342 0 m 324 1125 l 471 1319 l 632 1319 l 475 1125 l 324 1125 z "},"Ŷ":{"ha":833,"x_min":40,"x_max":793,"o":"m 342 0 l 342 374 l 40 1014 l 196 1014 l 375 631 q 404 560 393 593 q 419 510 415 526 q 435 560 424 526 q 463 631 446 593 l 638 1014 l 793 1014 l 492 374 l 492 0 l 342 0 m 156 1125 l 347 1319 l 486 1319 l 678 1125 l 525 1125 l 415 1231 l 310 1125 l 156 1125 z "},"Ÿ":{"ha":833,"x_min":40,"x_max":793,"o":"m 342 0 l 342 374 l 40 1014 l 196 1014 l 375 631 q 404 560 393 593 q 419 510 415 526 q 435 560 424 526 q 463 631 446 593 l 638 1014 l 793 1014 l 492 374 l 492 0 l 342 0 m 575 1129 q 506 1154 532 1129 q 481 1222 481 1179 q 506 1292 481 1267 q 575 1318 532 1318 q 645 1292 619 1318 q 671 1222 671 1267 q 645 1154 671 1179 q 575 1129 619 1129 m 258 1129 q 188 1154 214 1129 q 163 1222 163 1179 q 188 1292 163 1267 q 258 1318 214 1318 q 328 1292 301 1318 q 354 1222 354 1267 q 328 1154 354 1179 q 258 1129 301 1129 z "},"Ỵ":{"ha":833,"x_min":40,"x_max":793,"o":"m 342 0 l 342 374 l 40 1014 l 196 1014 l 375 631 q 404 560 393 593 q 419 510 415 526 q 435 560 424 526 q 463 631 446 593 l 638 1014 l 793 1014 l 492 374 l 492 0 l 342 0 m 417 -304 q 339 -279 368 -304 q 310 -210 310 -254 q 339 -141 310 -167 q 417 -115 368 -115 q 494 -141 465 -115 q 524 -210 524 -167 q 494 -279 524 -254 q 417 -304 465 -304 z "},"Ỳ":{"ha":833,"x_min":40,"x_max":793,"o":"m 342 0 l 342 374 l 40 1014 l 196 1014 l 375 631 q 404 560 393 593 q 419 510 415 526 q 435 560 424 526 q 463 631 446 593 l 638 1014 l 793 1014 l 492 374 l 492 0 l 342 0 m 358 1125 l 197 1319 l 364 1319 l 514 1125 l 358 1125 z "},"Ỷ":{"ha":833,"x_min":40,"x_max":793,"o":"m 342 0 l 342 374 l 40 1014 l 196 1014 l 375 631 q 404 560 393 593 q 419 510 415 526 q 435 560 424 526 q 463 631 446 593 l 638 1014 l 793 1014 l 492 374 l 492 0 l 342 0 m 353 1110 l 417 1194 q 436 1238 436 1221 q 394 1265 436 1265 l 288 1265 l 288 1364 l 410 1364 q 515 1334 475 1364 q 556 1254 556 1304 q 529 1178 556 1213 l 481 1110 l 353 1110 z "},"Ȳ":{"ha":833,"x_min":40,"x_max":793,"o":"m 342 0 l 342 374 l 40 1014 l 196 1014 l 375 631 q 404 560 393 593 q 419 510 415 526 q 435 560 424 526 q 463 631 446 593 l 638 1014 l 793 1014 l 492 374 l 492 0 l 342 0 m 186 1158 l 186 1278 l 647 1278 l 647 1158 l 186 1158 z "},"Ỹ":{"ha":833,"x_min":40,"x_max":793,"o":"m 342 0 l 342 374 l 40 1014 l 196 1014 l 375 631 q 404 560 393 593 q 419 510 415 526 q 435 560 424 526 q 463 631 446 593 l 638 1014 l 793 1014 l 492 374 l 492 0 l 342 0 m 514 1126 q 444 1140 471 1126 q 400 1172 418 1154 q 365 1205 382 1190 q 326 1219 349 1219 q 285 1171 285 1219 l 285 1133 l 186 1133 l 186 1176 q 223 1281 186 1242 q 319 1319 260 1319 q 389 1305 363 1319 q 433 1272 415 1290 q 468 1240 451 1254 q 507 1226 485 1226 q 549 1271 549 1226 l 549 1313 l 647 1313 l 647 1268 q 610 1165 647 1203 q 514 1126 574 1126 z "},"Z":{"ha":833,"x_min":114,"x_max":719,"o":"m 114 0 l 114 146 l 546 876 l 122 876 l 122 1014 l 706 1014 l 706 868 l 274 138 l 719 138 l 719 0 l 114 0 z "},"Ź":{"ha":833,"x_min":114,"x_max":719,"o":"m 114 0 l 114 146 l 546 876 l 122 876 l 122 1014 l 706 1014 l 706 868 l 274 138 l 719 138 l 719 0 l 114 0 m 324 1125 l 471 1319 l 632 1319 l 475 1125 l 324 1125 z "},"Ž":{"ha":833,"x_min":114,"x_max":719,"o":"m 114 0 l 114 146 l 546 876 l 122 876 l 122 1014 l 706 1014 l 706 868 l 274 138 l 719 138 l 719 0 l 114 0 m 347 1125 l 156 1319 l 308 1319 l 418 1214 l 524 1319 l 678 1319 l 486 1125 l 347 1125 z "},"Ż":{"ha":833,"x_min":114,"x_max":719,"o":"m 114 0 l 114 146 l 546 876 l 122 876 l 122 1014 l 706 1014 l 706 868 l 274 138 l 719 138 l 719 0 l 114 0 m 417 1128 q 339 1153 368 1128 q 310 1222 310 1179 q 339 1291 310 1265 q 417 1317 368 1317 q 494 1291 465 1317 q 524 1222 524 1265 q 494 1153 524 1179 q 417 1128 465 1128 z "},"a":{"ha":833,"x_min":83,"x_max":719,"o":"m 340 -14 q 152 48 221 -14 q 83 217 83 110 q 156 387 83 325 q 357 449 229 449 l 569 449 l 569 519 q 530 616 569 581 q 421 651 490 651 q 317 625 358 651 q 268 553 276 599 l 121 553 q 216 717 133 656 q 425 778 299 778 q 640 708 561 778 q 719 522 719 639 l 719 0 l 574 0 l 574 140 l 571 140 q 498 27 560 68 q 340 -14 436 -14 m 385 101 q 517 142 465 101 q 569 247 569 182 l 569 347 l 360 347 q 267 315 301 347 q 233 228 233 283 q 274 135 233 168 q 385 101 314 101 z "},"á":{"ha":833,"x_min":83,"x_max":719,"o":"m 340 -14 q 152 48 221 -14 q 83 217 83 110 q 156 387 83 325 q 357 449 229 449 l 569 449 l 569 519 q 530 616 569 581 q 421 651 490 651 q 317 625 358 651 q 268 553 276 599 l 121 553 q 216 717 133 656 q 425 778 299 778 q 640 708 561 778 q 719 522 719 639 l 719 0 l 574 0 l 574 140 l 571 140 q 498 27 560 68 q 340 -14 436 -14 m 385 101 q 517 142 465 101 q 569 247 569 182 l 569 347 l 360 347 q 267 315 301 347 q 233 228 233 283 q 274 135 233 168 q 385 101 314 101 m 331 896 l 478 1090 l 639 1090 l 482 896 l 331 896 z "},"ă":{"ha":833,"x_min":83,"x_max":719,"o":"m 340 -14 q 152 48 221 -14 q 83 217 83 110 q 156 387 83 325 q 357 449 229 449 l 569 449 l 569 519 q 530 616 569 581 q 421 651 490 651 q 317 625 358 651 q 268 553 276 599 l 121 553 q 216 717 133 656 q 425 778 299 778 q 640 708 561 778 q 719 522 719 639 l 719 0 l 574 0 l 574 140 l 571 140 q 498 27 560 68 q 340 -14 436 -14 m 385 101 q 517 142 465 101 q 569 247 569 182 l 569 347 l 360 347 q 267 315 301 347 q 233 228 233 283 q 274 135 233 168 q 385 101 314 101 m 424 888 q 256 943 319 888 q 192 1090 192 999 l 308 1090 q 340 1010 308 1040 q 422 979 371 979 q 507 1010 475 979 q 539 1090 539 1040 l 657 1090 q 592 943 657 999 q 424 888 528 888 z "},"ắ":{"ha":833,"x_min":83,"x_max":719,"o":"m 340 -14 q 152 48 221 -14 q 83 217 83 110 q 156 387 83 325 q 357 449 229 449 l 569 449 l 569 519 q 530 616 569 581 q 421 651 490 651 q 317 625 358 651 q 268 553 276 599 l 121 553 q 216 717 133 656 q 425 778 299 778 q 640 708 561 778 q 719 522 719 639 l 719 0 l 574 0 l 574 140 l 571 140 q 498 27 560 68 q 340 -14 436 -14 m 385 101 q 517 142 465 101 q 569 247 569 182 l 569 347 l 360 347 q 267 315 301 347 q 233 228 233 283 q 274 135 233 168 q 385 101 314 101 m 335 1068 l 494 1253 l 643 1253 l 474 1068 l 335 1068 m 424 889 q 249 940 315 889 q 182 1074 182 990 l 296 1074 q 331 1009 296 1033 q 424 985 365 985 q 517 1009 482 985 q 553 1074 553 1033 l 667 1074 q 599 940 667 990 q 424 889 532 889 z "},"ặ":{"ha":833,"x_min":83,"x_max":719,"o":"m 340 -14 q 152 48 221 -14 q 83 217 83 110 q 156 387 83 325 q 357 449 229 449 l 569 449 l 569 519 q 530 616 569 581 q 421 651 490 651 q 317 625 358 651 q 268 553 276 599 l 121 553 q 216 717 133 656 q 425 778 299 778 q 640 708 561 778 q 719 522 719 639 l 719 0 l 574 0 l 574 140 l 571 140 q 498 27 560 68 q 340 -14 436 -14 m 385 101 q 517 142 465 101 q 569 247 569 182 l 569 347 l 360 347 q 267 315 301 347 q 233 228 233 283 q 274 135 233 168 q 385 101 314 101 m 424 -304 q 346 -279 375 -304 q 317 -210 317 -254 q 346 -141 317 -167 q 424 -115 375 -115 q 501 -141 472 -115 q 531 -210 531 -167 q 501 -279 531 -254 q 424 -304 472 -304 m 424 888 q 256 943 319 888 q 192 1090 192 999 l 308 1090 q 340 1010 308 1040 q 422 979 371 979 q 507 1010 475 979 q 539 1090 539 1040 l 657 1090 q 592 943 657 999 q 424 888 528 888 z "},"ằ":{"ha":833,"x_min":83,"x_max":719,"o":"m 340 -14 q 152 48 221 -14 q 83 217 83 110 q 156 387 83 325 q 357 449 229 449 l 569 449 l 569 519 q 530 616 569 581 q 421 651 490 651 q 317 625 358 651 q 268 553 276 599 l 121 553 q 216 717 133 656 q 425 778 299 778 q 640 708 561 778 q 719 522 719 639 l 719 0 l 574 0 l 574 140 l 571 140 q 498 27 560 68 q 340 -14 436 -14 m 385 101 q 517 142 465 101 q 569 247 569 182 l 569 347 l 360 347 q 267 315 301 347 q 233 228 233 283 q 274 135 233 168 q 385 101 314 101 m 374 1068 l 204 1253 l 353 1253 l 513 1068 l 374 1068 m 424 889 q 249 940 315 889 q 182 1074 182 990 l 296 1074 q 331 1009 296 1033 q 424 985 365 985 q 517 1009 482 985 q 553 1074 553 1033 l 667 1074 q 599 940 667 990 q 424 889 532 889 z "},"ẳ":{"ha":833,"x_min":83,"x_max":719,"o":"m 340 -14 q 152 48 221 -14 q 83 217 83 110 q 156 387 83 325 q 357 449 229 449 l 569 449 l 569 519 q 530 616 569 581 q 421 651 490 651 q 317 625 358 651 q 268 553 276 599 l 121 553 q 216 717 133 656 q 425 778 299 778 q 640 708 561 778 q 719 522 719 639 l 719 0 l 574 0 l 574 140 l 571 140 q 498 27 560 68 q 340 -14 436 -14 m 385 101 q 517 142 465 101 q 569 247 569 182 l 569 347 l 360 347 q 267 315 301 347 q 233 228 233 283 q 274 135 233 168 q 385 101 314 101 m 353 1068 l 415 1150 q 431 1186 431 1168 q 393 1217 431 1217 l 310 1217 l 310 1311 l 413 1311 q 511 1282 474 1311 q 549 1206 549 1253 q 522 1132 549 1168 l 475 1068 l 353 1068 m 424 889 q 249 940 315 889 q 182 1074 182 990 l 296 1074 q 331 1009 296 1033 q 424 985 365 985 q 517 1009 482 985 q 553 1074 553 1033 l 667 1074 q 599 940 667 990 q 424 889 532 889 z "},"ẵ":{"ha":833,"x_min":83,"x_max":719,"o":"m 340 -14 q 152 48 221 -14 q 83 217 83 110 q 156 387 83 325 q 357 449 229 449 l 569 449 l 569 519 q 530 616 569 581 q 421 651 490 651 q 317 625 358 651 q 268 553 276 599 l 121 553 q 216 717 133 656 q 425 778 299 778 q 640 708 561 778 q 719 522 719 639 l 719 0 l 574 0 l 574 140 l 571 140 q 498 27 560 68 q 340 -14 436 -14 m 385 101 q 517 142 465 101 q 569 247 569 182 l 569 347 l 360 347 q 267 315 301 347 q 233 228 233 283 q 274 135 233 168 q 385 101 314 101 m 517 1125 q 447 1139 474 1125 q 404 1170 421 1153 q 372 1201 388 1188 q 333 1215 356 1215 q 292 1172 292 1215 l 292 1135 l 193 1135 l 193 1169 q 231 1266 193 1229 q 331 1303 269 1303 q 401 1289 375 1303 q 444 1257 426 1275 q 476 1226 461 1239 q 514 1213 492 1213 q 556 1253 556 1213 l 556 1293 l 654 1293 l 654 1258 q 616 1162 654 1199 q 517 1125 578 1125 m 424 894 q 256 945 319 894 q 192 1079 192 996 l 300 1079 q 333 1013 300 1038 q 422 989 367 989 q 513 1013 479 989 q 547 1079 547 1038 l 657 1079 q 592 945 657 996 q 424 894 528 894 z "},"ǎ":{"ha":833,"x_min":83,"x_max":719,"o":"m 340 -14 q 152 48 221 -14 q 83 217 83 110 q 156 387 83 325 q 357 449 229 449 l 569 449 l 569 519 q 530 616 569 581 q 421 651 490 651 q 317 625 358 651 q 268 553 276 599 l 121 553 q 216 717 133 656 q 425 778 299 778 q 640 708 561 778 q 719 522 719 639 l 719 0 l 574 0 l 574 140 l 571 140 q 498 27 560 68 q 340 -14 436 -14 m 385 101 q 517 142 465 101 q 569 247 569 182 l 569 347 l 360 347 q 267 315 301 347 q 233 228 233 283 q 274 135 233 168 q 385 101 314 101 m 354 896 l 163 1090 l 315 1090 l 425 985 l 531 1090 l 685 1090 l 493 896 l 354 896 z "},"â":{"ha":833,"x_min":83,"x_max":719,"o":"m 340 -14 q 152 48 221 -14 q 83 217 83 110 q 156 387 83 325 q 357 449 229 449 l 569 449 l 569 519 q 530 616 569 581 q 421 651 490 651 q 317 625 358 651 q 268 553 276 599 l 121 553 q 216 717 133 656 q 425 778 299 778 q 640 708 561 778 q 719 522 719 639 l 719 0 l 574 0 l 574 140 l 571 140 q 498 27 560 68 q 340 -14 436 -14 m 385 101 q 517 142 465 101 q 569 247 569 182 l 569 347 l 360 347 q 267 315 301 347 q 233 228 233 283 q 274 135 233 168 q 385 101 314 101 m 163 896 l 354 1090 l 493 1090 l 685 896 l 532 896 l 422 1001 l 317 896 l 163 896 z "},"ấ":{"ha":833,"x_min":83,"x_max":900,"o":"m 340 -14 q 152 48 221 -14 q 83 217 83 110 q 156 387 83 325 q 357 449 229 449 l 569 449 l 569 519 q 530 616 569 581 q 421 651 490 651 q 317 625 358 651 q 268 553 276 599 l 121 553 q 216 717 133 656 q 425 778 299 778 q 640 708 561 778 q 719 522 719 639 l 719 0 l 574 0 l 574 140 l 571 140 q 498 27 560 68 q 340 -14 436 -14 m 385 101 q 517 142 465 101 q 569 247 569 182 l 569 347 l 360 347 q 267 315 301 347 q 233 228 233 283 q 274 135 233 168 q 385 101 314 101 m 581 1056 l 743 1250 l 900 1250 l 729 1056 l 581 1056 m 164 896 l 354 1090 l 493 1090 l 685 896 l 531 896 l 424 1001 l 317 896 l 164 896 z "},"ậ":{"ha":833,"x_min":83,"x_max":719,"o":"m 340 -14 q 152 48 221 -14 q 83 217 83 110 q 156 387 83 325 q 357 449 229 449 l 569 449 l 569 519 q 530 616 569 581 q 421 651 490 651 q 317 625 358 651 q 268 553 276 599 l 121 553 q 216 717 133 656 q 425 778 299 778 q 640 708 561 778 q 719 522 719 639 l 719 0 l 574 0 l 574 140 l 571 140 q 498 27 560 68 q 340 -14 436 -14 m 385 101 q 517 142 465 101 q 569 247 569 182 l 569 347 l 360 347 q 267 315 301 347 q 233 228 233 283 q 274 135 233 168 q 385 101 314 101 m 424 -304 q 346 -279 375 -304 q 317 -210 317 -254 q 346 -141 317 -167 q 424 -115 375 -115 q 501 -141 472 -115 q 531 -210 531 -167 q 501 -279 531 -254 q 424 -304 472 -304 m 163 896 l 354 1090 l 493 1090 l 685 896 l 532 896 l 422 1001 l 317 896 l 163 896 z "},"ầ":{"ha":833,"x_min":83,"x_max":792,"o":"m 340 -14 q 152 48 221 -14 q 83 217 83 110 q 156 387 83 325 q 357 449 229 449 l 569 449 l 569 519 q 530 616 569 581 q 421 651 490 651 q 317 625 358 651 q 268 553 276 599 l 121 553 q 216 717 133 656 q 425 778 299 778 q 640 708 561 778 q 719 522 719 639 l 719 0 l 574 0 l 574 140 l 571 140 q 498 27 560 68 q 340 -14 436 -14 m 385 101 q 517 142 465 101 q 569 247 569 182 l 569 347 l 360 347 q 267 315 301 347 q 233 228 233 283 q 274 135 233 168 q 385 101 314 101 m 643 1056 l 463 1250 l 619 1250 l 792 1056 l 643 1056 m 164 896 l 354 1090 l 493 1090 l 685 896 l 531 896 l 424 1001 l 317 896 l 164 896 z "},"ẩ":{"ha":833,"x_min":83,"x_max":788,"o":"m 340 -14 q 152 48 221 -14 q 83 217 83 110 q 156 387 83 325 q 357 449 229 449 l 569 449 l 569 519 q 530 616 569 581 q 421 651 490 651 q 317 625 358 651 q 268 553 276 599 l 121 553 q 216 717 133 656 q 425 778 299 778 q 640 708 561 778 q 719 522 719 639 l 719 0 l 574 0 l 574 140 l 571 140 q 498 27 560 68 q 340 -14 436 -14 m 385 101 q 517 142 465 101 q 569 247 569 182 l 569 347 l 360 347 q 267 315 301 347 q 233 228 233 283 q 274 135 233 168 q 385 101 314 101 m 594 1056 l 658 1139 q 674 1175 674 1160 q 632 1206 674 1206 l 550 1206 l 550 1300 l 647 1300 q 749 1270 711 1300 q 788 1190 788 1240 q 763 1122 788 1157 l 714 1056 l 594 1056 m 164 896 l 354 1090 l 493 1090 l 685 896 l 531 896 l 424 1001 l 317 896 l 164 896 z "},"ẫ":{"ha":833,"x_min":83,"x_max":719,"o":"m 340 -14 q 152 48 221 -14 q 83 217 83 110 q 156 387 83 325 q 357 449 229 449 l 569 449 l 569 519 q 530 616 569 581 q 421 651 490 651 q 317 625 358 651 q 268 553 276 599 l 121 553 q 216 717 133 656 q 425 778 299 778 q 640 708 561 778 q 719 522 719 639 l 719 0 l 574 0 l 574 140 l 571 140 q 498 27 560 68 q 340 -14 436 -14 m 385 101 q 517 142 465 101 q 569 247 569 182 l 569 347 l 360 347 q 267 315 301 347 q 233 228 233 283 q 274 135 233 168 q 385 101 314 101 m 517 1133 q 447 1147 474 1133 q 404 1176 421 1160 q 372 1206 388 1193 q 333 1219 356 1219 q 292 1176 292 1219 l 292 1143 l 193 1143 l 193 1174 q 231 1270 193 1233 q 331 1307 269 1307 q 401 1294 375 1307 q 444 1263 426 1281 q 476 1233 461 1246 q 514 1221 492 1221 q 556 1261 556 1221 l 556 1296 l 654 1296 l 654 1267 q 616 1170 654 1207 q 517 1133 578 1133 m 164 896 l 354 1090 l 493 1090 l 685 896 l 531 896 l 424 1001 l 317 896 l 164 896 z "},"ä":{"ha":833,"x_min":83,"x_max":719,"o":"m 340 -14 q 152 48 221 -14 q 83 217 83 110 q 156 387 83 325 q 357 449 229 449 l 569 449 l 569 519 q 530 616 569 581 q 421 651 490 651 q 317 625 358 651 q 268 553 276 599 l 121 553 q 216 717 133 656 q 425 778 299 778 q 640 708 561 778 q 719 522 719 639 l 719 0 l 574 0 l 574 140 l 571 140 q 498 27 560 68 q 340 -14 436 -14 m 385 101 q 517 142 465 101 q 569 247 569 182 l 569 347 l 360 347 q 267 315 301 347 q 233 228 233 283 q 274 135 233 168 q 385 101 314 101 m 582 896 q 513 922 539 896 q 488 990 488 947 q 513 1060 488 1035 q 582 1086 539 1086 q 652 1060 626 1086 q 678 990 678 1035 q 652 922 678 947 q 582 896 626 896 m 265 896 q 195 922 221 896 q 169 990 169 947 q 195 1060 169 1035 q 265 1086 221 1086 q 335 1060 308 1086 q 361 990 361 1035 q 335 922 361 947 q 265 896 308 896 z "},"ạ":{"ha":833,"x_min":83,"x_max":719,"o":"m 340 -14 q 152 48 221 -14 q 83 217 83 110 q 156 387 83 325 q 357 449 229 449 l 569 449 l 569 519 q 530 616 569 581 q 421 651 490 651 q 317 625 358 651 q 268 553 276 599 l 121 553 q 216 717 133 656 q 425 778 299 778 q 640 708 561 778 q 719 522 719 639 l 719 0 l 574 0 l 574 140 l 571 140 q 498 27 560 68 q 340 -14 436 -14 m 385 101 q 517 142 465 101 q 569 247 569 182 l 569 347 l 360 347 q 267 315 301 347 q 233 228 233 283 q 274 135 233 168 q 385 101 314 101 m 424 -304 q 346 -279 375 -304 q 317 -210 317 -254 q 346 -141 317 -167 q 424 -115 375 -115 q 501 -141 472 -115 q 531 -210 531 -167 q 501 -279 531 -254 q 424 -304 472 -304 z "},"à":{"ha":833,"x_min":83,"x_max":719,"o":"m 340 -14 q 152 48 221 -14 q 83 217 83 110 q 156 387 83 325 q 357 449 229 449 l 569 449 l 569 519 q 530 616 569 581 q 421 651 490 651 q 317 625 358 651 q 268 553 276 599 l 121 553 q 216 717 133 656 q 425 778 299 778 q 640 708 561 778 q 719 522 719 639 l 719 0 l 574 0 l 574 140 l 571 140 q 498 27 560 68 q 340 -14 436 -14 m 385 101 q 517 142 465 101 q 569 247 569 182 l 569 347 l 360 347 q 267 315 301 347 q 233 228 233 283 q 274 135 233 168 q 385 101 314 101 m 365 896 l 204 1090 l 371 1090 l 521 896 l 365 896 z "},"ả":{"ha":833,"x_min":83,"x_max":719,"o":"m 340 -14 q 152 48 221 -14 q 83 217 83 110 q 156 387 83 325 q 357 449 229 449 l 569 449 l 569 519 q 530 616 569 581 q 421 651 490 651 q 317 625 358 651 q 268 553 276 599 l 121 553 q 216 717 133 656 q 425 778 299 778 q 640 708 561 778 q 719 522 719 639 l 719 0 l 574 0 l 574 140 l 571 140 q 498 27 560 68 q 340 -14 436 -14 m 385 101 q 517 142 465 101 q 569 247 569 182 l 569 347 l 360 347 q 267 315 301 347 q 233 228 233 283 q 274 135 233 168 q 385 101 314 101 m 360 896 l 428 982 q 449 1025 449 1007 q 406 1051 449 1051 l 294 1051 l 294 1150 l 440 1150 q 532 1121 497 1150 q 567 1042 567 1092 q 542 964 567 996 l 488 896 l 360 896 z "},"ā":{"ha":833,"x_min":83,"x_max":719,"o":"m 340 -14 q 152 48 221 -14 q 83 217 83 110 q 156 387 83 325 q 357 449 229 449 l 569 449 l 569 519 q 530 616 569 581 q 421 651 490 651 q 317 625 358 651 q 268 553 276 599 l 121 553 q 216 717 133 656 q 425 778 299 778 q 640 708 561 778 q 719 522 719 639 l 719 0 l 574 0 l 574 140 l 571 140 q 498 27 560 68 q 340 -14 436 -14 m 385 101 q 517 142 465 101 q 569 247 569 182 l 569 347 l 360 347 q 267 315 301 347 q 233 228 233 283 q 274 135 233 168 q 385 101 314 101 m 193 925 l 193 1043 l 654 1043 l 654 925 l 193 925 z "},"ą":{"ha":833,"x_min":83,"x_max":792,"o":"m 340 -14 q 152 48 221 -14 q 83 217 83 110 q 156 387 83 325 q 357 449 229 449 l 569 449 l 569 519 q 530 616 569 581 q 421 651 490 651 q 317 625 358 651 q 268 553 276 599 l 121 553 q 216 717 133 656 q 425 778 299 778 q 640 708 561 778 q 719 522 719 639 l 719 0 q 652 -69 672 -40 q 632 -125 632 -99 q 651 -171 632 -153 q 704 -189 671 -189 l 792 -189 l 792 -292 l 671 -292 q 544 -253 592 -292 q 497 -154 497 -214 q 523 -77 497 -117 q 604 0 549 -37 l 574 0 l 574 140 l 571 140 q 498 27 560 68 q 340 -14 436 -14 m 385 101 q 517 142 465 101 q 569 247 569 182 l 569 347 l 360 347 q 267 315 301 347 q 233 228 233 283 q 274 135 233 168 q 385 101 314 101 z "},"å":{"ha":833,"x_min":83,"x_max":719,"o":"m 340 -14 q 152 48 221 -14 q 83 217 83 110 q 156 387 83 325 q 357 449 229 449 l 569 449 l 569 519 q 530 616 569 581 q 421 651 490 651 q 317 625 358 651 q 268 553 276 599 l 121 553 q 216 717 133 656 q 425 778 299 778 q 640 708 561 778 q 719 522 719 639 l 719 0 l 574 0 l 574 140 l 571 140 q 498 27 560 68 q 340 -14 436 -14 m 385 101 q 517 142 465 101 q 569 247 569 182 l 569 347 l 360 347 q 267 315 301 347 q 233 228 233 283 q 274 135 233 168 q 385 101 314 101 m 424 840 q 297 885 344 840 q 249 1004 249 931 q 297 1123 249 1078 q 424 1168 344 1168 q 551 1123 503 1168 q 599 1004 599 1078 q 551 885 599 931 q 424 840 503 840 m 424 921 q 484 944 461 921 q 507 1004 507 967 q 484 1065 507 1042 q 424 1089 461 1089 q 363 1065 386 1089 q 340 1004 340 1042 q 363 944 340 967 q 424 921 386 921 z "},"ã":{"ha":833,"x_min":83,"x_max":719,"o":"m 340 -14 q 152 48 221 -14 q 83 217 83 110 q 156 387 83 325 q 357 449 229 449 l 569 449 l 569 519 q 530 616 569 581 q 421 651 490 651 q 317 625 358 651 q 268 553 276 599 l 121 553 q 216 717 133 656 q 425 778 299 778 q 640 708 561 778 q 719 522 719 639 l 719 0 l 574 0 l 574 140 l 571 140 q 498 27 560 68 q 340 -14 436 -14 m 385 101 q 517 142 465 101 q 569 247 569 182 l 569 347 l 360 347 q 267 315 301 347 q 233 228 233 283 q 274 135 233 168 q 385 101 314 101 m 521 897 q 451 911 478 897 q 407 943 425 925 q 372 976 389 961 q 333 990 356 990 q 292 942 292 990 l 292 904 l 193 904 l 193 947 q 230 1051 193 1013 q 326 1090 267 1090 q 396 1076 369 1090 q 440 1043 422 1061 q 475 1011 458 1025 q 514 997 492 997 q 556 1042 556 997 l 556 1083 l 654 1083 l 654 1039 q 617 935 654 974 q 521 897 581 897 z "},"æ":{"ha":833,"x_min":49,"x_max":785,"o":"m 238 -14 q 100 40 151 -14 q 49 185 49 94 l 49 264 q 108 402 49 350 q 267 454 167 454 l 356 454 l 356 558 q 272 663 356 663 q 213 639 235 663 q 190 575 190 615 l 60 575 q 113 722 60 667 q 250 778 165 778 q 340 760 304 778 q 394 717 375 743 q 417 669 413 692 l 424 669 q 446 717 428 692 q 498 760 464 743 q 583 778 532 778 q 731 719 676 778 q 785 560 785 660 l 785 353 l 482 353 l 482 204 q 506 129 482 157 q 567 101 529 101 q 631 124 607 101 q 654 185 654 146 l 785 185 q 729 41 785 96 q 583 -14 674 -14 q 497 3 531 -14 q 444 47 463 21 q 424 96 426 72 l 417 96 q 392 47 413 72 q 333 3 371 21 q 238 -14 296 -14 m 482 454 l 654 454 l 654 560 q 631 635 654 607 q 567 663 608 663 q 504 635 526 663 q 482 560 482 607 l 482 454 m 268 101 q 332 129 308 101 q 356 204 356 157 l 356 353 l 268 353 q 207 329 229 353 q 185 264 185 306 l 185 185 q 207 124 185 146 q 268 101 229 101 z "},"ǽ":{"ha":833,"x_min":49,"x_max":785,"o":"m 238 -14 q 100 40 151 -14 q 49 185 49 94 l 49 264 q 108 402 49 350 q 267 454 167 454 l 356 454 l 356 558 q 272 663 356 663 q 213 639 235 663 q 190 575 190 615 l 60 575 q 113 722 60 667 q 250 778 165 778 q 340 760 304 778 q 394 717 375 743 q 417 669 413 692 l 424 669 q 446 717 428 692 q 498 760 464 743 q 583 778 532 778 q 731 719 676 778 q 785 560 785 660 l 785 353 l 482 353 l 482 204 q 506 129 482 157 q 567 101 529 101 q 631 124 607 101 q 654 185 654 146 l 785 185 q 729 41 785 96 q 583 -14 674 -14 q 497 3 531 -14 q 444 47 463 21 q 424 96 426 72 l 417 96 q 392 47 413 72 q 333 3 371 21 q 238 -14 296 -14 m 482 454 l 654 454 l 654 560 q 631 635 654 607 q 567 663 608 663 q 504 635 526 663 q 482 560 482 607 l 482 454 m 268 101 q 332 129 308 101 q 356 204 356 157 l 356 353 l 268 353 q 207 329 229 353 q 185 264 185 306 l 185 185 q 207 124 185 146 q 268 101 229 101 m 324 896 l 471 1090 l 632 1090 l 475 896 l 324 896 z "},"b":{"ha":833,"x_min":117,"x_max":726,"o":"m 472 -14 q 332 28 386 -14 q 267 146 278 71 l 265 146 l 265 0 l 117 0 l 117 1014 l 267 1014 l 267 796 l 263 618 l 267 618 q 333 735 278 693 q 472 778 388 778 q 657 700 588 778 q 726 489 726 622 l 726 274 q 656 63 726 140 q 472 -14 586 -14 m 419 117 q 535 159 493 117 q 576 282 576 201 l 576 482 q 535 604 576 561 q 419 647 493 647 q 308 603 349 647 q 267 482 267 560 l 267 282 q 308 160 267 203 q 419 117 349 117 z "},"c":{"ha":833,"x_min":108,"x_max":731,"o":"m 422 -14 q 194 65 279 -14 q 108 282 108 144 l 108 482 q 194 699 108 619 q 422 778 279 778 q 643 706 560 778 q 731 508 726 633 l 581 508 q 535 610 576 574 q 422 646 493 646 q 302 603 346 646 q 258 483 258 561 l 258 282 q 302 160 258 203 q 422 118 346 118 q 535 154 493 118 q 581 257 576 190 l 731 257 q 643 59 726 132 q 422 -14 560 -14 z "},"ć":{"ha":833,"x_min":108,"x_max":731,"o":"m 422 -14 q 194 65 279 -14 q 108 282 108 144 l 108 482 q 194 699 108 619 q 422 778 279 778 q 643 706 560 778 q 731 508 726 633 l 581 508 q 535 610 576 574 q 422 646 493 646 q 302 603 346 646 q 258 483 258 561 l 258 282 q 302 160 258 203 q 422 118 346 118 q 535 154 493 118 q 581 257 576 190 l 731 257 q 643 59 726 132 q 422 -14 560 -14 m 329 896 l 476 1090 l 638 1090 l 481 896 l 329 896 z "},"č":{"ha":833,"x_min":108,"x_max":731,"o":"m 422 -14 q 194 65 279 -14 q 108 282 108 144 l 108 482 q 194 699 108 619 q 422 778 279 778 q 643 706 560 778 q 731 508 726 633 l 581 508 q 535 610 576 574 q 422 646 493 646 q 302 603 346 646 q 258 483 258 561 l 258 282 q 302 160 258 203 q 422 118 346 118 q 535 154 493 118 q 581 257 576 190 l 731 257 q 643 59 726 132 q 422 -14 560 -14 m 353 896 l 161 1090 l 314 1090 l 424 985 l 529 1090 l 683 1090 l 492 896 l 353 896 z "},"ç":{"ha":833,"x_min":108,"x_max":731,"o":"m 283 -292 l 283 -208 l 385 -208 q 436 -192 417 -208 q 456 -158 456 -176 q 416 -114 456 -132 q 306 -96 376 -96 l 339 -6 q 170 90 232 15 q 108 282 108 165 l 108 482 q 194 699 108 619 q 422 778 279 778 q 643 706 560 778 q 731 508 726 633 l 581 508 q 535 610 576 574 q 422 646 493 646 q 302 603 346 646 q 258 483 258 561 l 258 282 q 302 160 258 203 q 422 118 346 118 q 535 154 493 118 q 581 257 576 190 l 731 257 q 643 59 726 132 q 424 -14 560 -14 l 411 -50 q 490 -69 449 -54 q 559 -109 531 -83 q 588 -172 588 -135 q 539 -256 588 -221 q 413 -292 490 -292 l 283 -292 z "},"ĉ":{"ha":833,"x_min":108,"x_max":731,"o":"m 422 -14 q 194 65 279 -14 q 108 282 108 144 l 108 482 q 194 699 108 619 q 422 778 279 778 q 643 706 560 778 q 731 508 726 633 l 581 508 q 535 610 576 574 q 422 646 493 646 q 302 603 346 646 q 258 483 258 561 l 258 282 q 302 160 258 203 q 422 118 346 118 q 535 154 493 118 q 581 257 576 190 l 731 257 q 643 59 726 132 q 422 -14 560 -14 m 161 896 l 353 1090 l 492 1090 l 683 896 l 531 896 l 421 1001 l 315 896 l 161 896 z "},"ċ":{"ha":833,"x_min":108,"x_max":731,"o":"m 422 -14 q 194 65 279 -14 q 108 282 108 144 l 108 482 q 194 699 108 619 q 422 778 279 778 q 643 706 560 778 q 731 508 726 633 l 581 508 q 535 610 576 574 q 422 646 493 646 q 302 603 346 646 q 258 483 258 561 l 258 282 q 302 160 258 203 q 422 118 346 118 q 535 154 493 118 q 581 257 576 190 l 731 257 q 643 59 726 132 q 422 -14 560 -14 m 422 896 q 344 922 374 896 q 315 990 315 947 q 344 1060 315 1035 q 422 1086 374 1086 q 500 1060 471 1086 q 529 990 529 1035 q 500 922 529 947 q 422 896 471 896 z "},"d":{"ha":833,"x_min":108,"x_max":717,"o":"m 363 -14 q 178 63 247 -14 q 108 274 108 140 l 108 489 q 177 700 108 622 q 363 778 246 778 q 501 735 446 778 q 567 618 556 693 l 571 618 l 567 796 l 567 1014 l 717 1014 l 717 0 l 568 0 l 568 146 l 567 146 q 501 28 556 71 q 363 -14 447 -14 m 414 117 q 526 160 485 117 q 567 282 567 203 l 567 482 q 526 603 567 560 q 414 647 485 647 q 299 604 340 647 q 258 482 258 561 l 258 282 q 299 159 258 201 q 414 117 340 117 z "},"ð":{"ha":833,"x_min":85,"x_max":749,"o":"m 415 -10 q 242 30 317 -10 q 126 141 168 69 q 85 307 85 213 q 121 469 85 400 q 222 576 157 538 q 375 614 288 614 q 483 584 439 614 q 544 526 528 554 l 561 526 q 534 574 557 536 q 467 671 511 611 l 381 788 l 158 690 l 158 813 l 313 881 l 214 1014 l 385 1014 l 442 935 l 654 1026 l 654 904 l 508 842 l 607 703 q 713 509 676 608 q 749 321 749 410 q 708 147 749 221 q 592 31 667 72 q 415 -10 517 -10 m 415 121 q 549 172 499 121 q 599 307 599 222 q 549 443 599 392 q 415 494 499 494 q 285 443 335 494 q 235 307 235 392 q 285 172 235 222 q 415 121 335 121 z "},"ď":{"ha":833,"x_min":78,"x_max":840,"o":"m 707 764 l 707 1014 l 840 1014 l 826 764 l 707 764 m 307 -14 q 140 62 201 -14 q 78 267 78 138 l 78 496 q 140 702 78 626 q 307 778 201 778 q 430 735 382 778 q 488 618 478 692 l 492 618 l 488 796 l 488 1014 l 633 1014 l 633 0 l 490 0 l 490 146 l 488 146 q 430 29 478 72 q 307 -14 382 -14 m 358 113 q 453 156 419 113 q 488 275 488 199 l 488 489 q 453 609 488 567 q 358 651 419 651 q 259 609 294 651 q 224 489 224 567 l 224 275 q 259 156 224 199 q 358 113 294 113 z "},"đ":{"ha":833,"x_min":113,"x_max":833,"o":"m 363 -14 q 180 63 247 -14 q 113 274 113 140 l 113 406 q 179 617 113 539 q 363 694 246 694 q 500 652 446 694 q 564 535 554 610 l 568 535 l 564 713 l 564 786 l 343 786 l 343 896 l 564 896 l 564 1014 l 714 1014 l 714 896 l 833 896 l 833 786 l 714 786 l 714 0 l 567 0 l 567 146 l 564 146 q 501 28 554 71 q 363 -14 447 -14 m 414 117 q 524 160 485 117 q 564 282 564 203 l 564 399 q 524 520 564 476 q 414 564 485 564 q 301 521 340 564 q 263 399 263 478 l 263 282 q 301 159 263 201 q 414 117 340 117 z "},"e":{"ha":833,"x_min":108,"x_max":726,"o":"m 417 -14 q 254 23 324 -14 q 147 126 185 60 q 108 282 108 193 l 108 482 q 147 638 108 571 q 254 741 185 704 q 417 778 324 778 q 581 741 511 778 q 688 638 650 704 q 726 482 726 571 l 726 346 l 253 346 l 253 282 q 418 108 253 108 q 574 199 553 108 l 722 199 q 622 44 706 101 q 417 -14 539 -14 m 253 482 l 253 447 l 581 449 l 581 483 q 539 613 581 568 q 417 658 497 658 q 294 613 336 658 q 253 482 253 567 z "},"é":{"ha":833,"x_min":108,"x_max":726,"o":"m 417 -14 q 254 23 324 -14 q 147 126 185 60 q 108 282 108 193 l 108 482 q 147 638 108 571 q 254 741 185 704 q 417 778 324 778 q 581 741 511 778 q 688 638 650 704 q 726 482 726 571 l 726 346 l 253 346 l 253 282 q 418 108 253 108 q 574 199 553 108 l 722 199 q 622 44 706 101 q 417 -14 539 -14 m 253 482 l 253 447 l 581 449 l 581 483 q 539 613 581 568 q 417 658 497 658 q 294 613 336 658 q 253 482 253 567 m 324 896 l 471 1090 l 632 1090 l 475 896 l 324 896 z "},"ĕ":{"ha":833,"x_min":108,"x_max":726,"o":"m 417 -14 q 254 23 324 -14 q 147 126 185 60 q 108 282 108 193 l 108 482 q 147 638 108 571 q 254 741 185 704 q 417 778 324 778 q 581 741 511 778 q 688 638 650 704 q 726 482 726 571 l 726 346 l 253 346 l 253 282 q 418 108 253 108 q 574 199 553 108 l 722 199 q 622 44 706 101 q 417 -14 539 -14 m 253 482 l 253 447 l 581 449 l 581 483 q 539 613 581 568 q 417 658 497 658 q 294 613 336 658 q 253 482 253 567 m 417 888 q 249 943 313 888 q 185 1090 185 999 l 301 1090 q 333 1010 301 1040 q 415 979 364 979 q 500 1010 468 979 q 532 1090 532 1040 l 650 1090 q 585 943 650 999 q 417 888 521 888 z "},"ě":{"ha":833,"x_min":108,"x_max":726,"o":"m 417 -14 q 254 23 324 -14 q 147 126 185 60 q 108 282 108 193 l 108 482 q 147 638 108 571 q 254 741 185 704 q 417 778 324 778 q 581 741 511 778 q 688 638 650 704 q 726 482 726 571 l 726 346 l 253 346 l 253 282 q 418 108 253 108 q 574 199 553 108 l 722 199 q 622 44 706 101 q 417 -14 539 -14 m 253 482 l 253 447 l 581 449 l 581 483 q 539 613 581 568 q 417 658 497 658 q 294 613 336 658 q 253 482 253 567 m 347 896 l 156 1090 l 308 1090 l 418 985 l 524 1090 l 678 1090 l 486 896 l 347 896 z "},"ê":{"ha":833,"x_min":108,"x_max":726,"o":"m 417 -14 q 254 23 324 -14 q 147 126 185 60 q 108 282 108 193 l 108 482 q 147 638 108 571 q 254 741 185 704 q 417 778 324 778 q 581 741 511 778 q 688 638 650 704 q 726 482 726 571 l 726 346 l 253 346 l 253 282 q 418 108 253 108 q 574 199 553 108 l 722 199 q 622 44 706 101 q 417 -14 539 -14 m 253 482 l 253 447 l 581 449 l 581 483 q 539 613 581 568 q 417 658 497 658 q 294 613 336 658 q 253 482 253 567 m 156 896 l 347 1090 l 486 1090 l 678 896 l 525 896 l 415 1001 l 310 896 l 156 896 z "},"ế":{"ha":833,"x_min":108,"x_max":893,"o":"m 417 -14 q 254 23 324 -14 q 147 126 185 60 q 108 282 108 193 l 108 482 q 147 638 108 571 q 254 741 185 704 q 417 778 324 778 q 581 741 511 778 q 688 638 650 704 q 726 482 726 571 l 726 346 l 253 346 l 253 282 q 418 108 253 108 q 574 199 553 108 l 722 199 q 622 44 706 101 q 417 -14 539 -14 m 253 482 l 253 447 l 581 449 l 581 483 q 539 613 581 568 q 417 658 497 658 q 294 613 336 658 q 253 482 253 567 m 574 1056 l 736 1250 l 893 1250 l 722 1056 l 574 1056 m 157 896 l 347 1090 l 486 1090 l 678 896 l 524 896 l 417 1001 l 310 896 l 157 896 z "},"ệ":{"ha":833,"x_min":108,"x_max":726,"o":"m 417 -14 q 254 23 324 -14 q 147 126 185 60 q 108 282 108 193 l 108 482 q 147 638 108 571 q 254 741 185 704 q 417 778 324 778 q 581 741 511 778 q 688 638 650 704 q 726 482 726 571 l 726 346 l 253 346 l 253 282 q 418 108 253 108 q 574 199 553 108 l 722 199 q 622 44 706 101 q 417 -14 539 -14 m 253 482 l 253 447 l 581 449 l 581 483 q 539 613 581 568 q 417 658 497 658 q 294 613 336 658 q 253 482 253 567 m 417 -304 q 339 -279 368 -304 q 310 -210 310 -254 q 339 -141 310 -167 q 417 -115 368 -115 q 494 -141 465 -115 q 524 -210 524 -167 q 494 -279 524 -254 q 417 -304 465 -304 m 156 896 l 347 1090 l 486 1090 l 678 896 l 525 896 l 415 1001 l 310 896 l 156 896 z "},"ề":{"ha":833,"x_min":108,"x_max":785,"o":"m 417 -14 q 254 23 324 -14 q 147 126 185 60 q 108 282 108 193 l 108 482 q 147 638 108 571 q 254 741 185 704 q 417 778 324 778 q 581 741 511 778 q 688 638 650 704 q 726 482 726 571 l 726 346 l 253 346 l 253 282 q 418 108 253 108 q 574 199 553 108 l 722 199 q 622 44 706 101 q 417 -14 539 -14 m 253 482 l 253 447 l 581 449 l 581 483 q 539 613 581 568 q 417 658 497 658 q 294 613 336 658 q 253 482 253 567 m 636 1056 l 456 1250 l 613 1250 l 785 1056 l 636 1056 m 157 896 l 347 1090 l 486 1090 l 678 896 l 524 896 l 417 1001 l 310 896 l 157 896 z "},"ể":{"ha":833,"x_min":108,"x_max":781,"o":"m 417 -14 q 254 23 324 -14 q 147 126 185 60 q 108 282 108 193 l 108 482 q 147 638 108 571 q 254 741 185 704 q 417 778 324 778 q 581 741 511 778 q 688 638 650 704 q 726 482 726 571 l 726 346 l 253 346 l 253 282 q 418 108 253 108 q 574 199 553 108 l 722 199 q 622 44 706 101 q 417 -14 539 -14 m 253 482 l 253 447 l 581 449 l 581 483 q 539 613 581 568 q 417 658 497 658 q 294 613 336 658 q 253 482 253 567 m 588 1056 l 651 1139 q 667 1175 667 1160 q 625 1206 667 1206 l 543 1206 l 543 1300 l 640 1300 q 742 1270 704 1300 q 781 1190 781 1240 q 756 1122 781 1157 l 707 1056 l 588 1056 m 157 896 l 347 1090 l 486 1090 l 678 896 l 524 896 l 417 1001 l 310 896 l 157 896 z "},"ễ":{"ha":833,"x_min":108,"x_max":726,"o":"m 417 -14 q 254 23 324 -14 q 147 126 185 60 q 108 282 108 193 l 108 482 q 147 638 108 571 q 254 741 185 704 q 417 778 324 778 q 581 741 511 778 q 688 638 650 704 q 726 482 726 571 l 726 346 l 253 346 l 253 282 q 418 108 253 108 q 574 199 553 108 l 722 199 q 622 44 706 101 q 417 -14 539 -14 m 253 482 l 253 447 l 581 449 l 581 483 q 539 613 581 568 q 417 658 497 658 q 294 613 336 658 q 253 482 253 567 m 510 1133 q 440 1147 467 1133 q 397 1176 414 1160 q 365 1206 381 1193 q 326 1219 349 1219 q 285 1176 285 1219 l 285 1143 l 186 1143 l 186 1174 q 224 1270 186 1233 q 324 1307 263 1307 q 394 1294 368 1307 q 437 1263 419 1281 q 469 1233 454 1246 q 507 1221 485 1221 q 549 1261 549 1221 l 549 1296 l 647 1296 l 647 1267 q 609 1170 647 1207 q 510 1133 571 1133 m 157 896 l 347 1090 l 486 1090 l 678 896 l 524 896 l 417 1001 l 310 896 l 157 896 z "},"ë":{"ha":833,"x_min":108,"x_max":726,"o":"m 417 -14 q 254 23 324 -14 q 147 126 185 60 q 108 282 108 193 l 108 482 q 147 638 108 571 q 254 741 185 704 q 417 778 324 778 q 581 741 511 778 q 688 638 650 704 q 726 482 726 571 l 726 346 l 253 346 l 253 282 q 418 108 253 108 q 574 199 553 108 l 722 199 q 622 44 706 101 q 417 -14 539 -14 m 253 482 l 253 447 l 581 449 l 581 483 q 539 613 581 568 q 417 658 497 658 q 294 613 336 658 q 253 482 253 567 m 575 896 q 506 922 532 896 q 481 990 481 947 q 506 1060 481 1035 q 575 1086 532 1086 q 645 1060 619 1086 q 671 990 671 1035 q 645 922 671 947 q 575 896 619 896 m 258 896 q 188 922 214 896 q 163 990 163 947 q 188 1060 163 1035 q 258 1086 214 1086 q 328 1060 301 1086 q 354 990 354 1035 q 328 922 354 947 q 258 896 301 896 z "},"ė":{"ha":833,"x_min":108,"x_max":726,"o":"m 417 -14 q 254 23 324 -14 q 147 126 185 60 q 108 282 108 193 l 108 482 q 147 638 108 571 q 254 741 185 704 q 417 778 324 778 q 581 741 511 778 q 688 638 650 704 q 726 482 726 571 l 726 346 l 253 346 l 253 282 q 418 108 253 108 q 574 199 553 108 l 722 199 q 622 44 706 101 q 417 -14 539 -14 m 253 482 l 253 447 l 581 449 l 581 483 q 539 613 581 568 q 417 658 497 658 q 294 613 336 658 q 253 482 253 567 m 417 896 q 339 922 368 896 q 310 990 310 947 q 339 1060 310 1035 q 417 1086 368 1086 q 494 1060 465 1086 q 524 990 524 1035 q 494 922 524 947 q 417 896 465 896 z "},"ẹ":{"ha":833,"x_min":108,"x_max":726,"o":"m 417 -14 q 254 23 324 -14 q 147 126 185 60 q 108 282 108 193 l 108 482 q 147 638 108 571 q 254 741 185 704 q 417 778 324 778 q 581 741 511 778 q 688 638 650 704 q 726 482 726 571 l 726 346 l 253 346 l 253 282 q 418 108 253 108 q 574 199 553 108 l 722 199 q 622 44 706 101 q 417 -14 539 -14 m 253 482 l 253 447 l 581 449 l 581 483 q 539 613 581 568 q 417 658 497 658 q 294 613 336 658 q 253 482 253 567 m 417 -304 q 339 -279 368 -304 q 310 -210 310 -254 q 339 -141 310 -167 q 417 -115 368 -115 q 494 -141 465 -115 q 524 -210 524 -167 q 494 -279 524 -254 q 417 -304 465 -304 z "},"è":{"ha":833,"x_min":108,"x_max":726,"o":"m 417 -14 q 254 23 324 -14 q 147 126 185 60 q 108 282 108 193 l 108 482 q 147 638 108 571 q 254 741 185 704 q 417 778 324 778 q 581 741 511 778 q 688 638 650 704 q 726 482 726 571 l 726 346 l 253 346 l 253 282 q 418 108 253 108 q 574 199 553 108 l 722 199 q 622 44 706 101 q 417 -14 539 -14 m 253 482 l 253 447 l 581 449 l 581 483 q 539 613 581 568 q 417 658 497 658 q 294 613 336 658 q 253 482 253 567 m 358 896 l 197 1090 l 364 1090 l 514 896 l 358 896 z "},"ẻ":{"ha":833,"x_min":108,"x_max":726,"o":"m 417 -14 q 254 23 324 -14 q 147 126 185 60 q 108 282 108 193 l 108 482 q 147 638 108 571 q 254 741 185 704 q 417 778 324 778 q 581 741 511 778 q 688 638 650 704 q 726 482 726 571 l 726 346 l 253 346 l 253 282 q 418 108 253 108 q 574 199 553 108 l 722 199 q 622 44 706 101 q 417 -14 539 -14 m 253 482 l 253 447 l 581 449 l 581 483 q 539 613 581 568 q 417 658 497 658 q 294 613 336 658 q 253 482 253 567 m 353 896 l 421 982 q 442 1025 442 1007 q 399 1051 442 1051 l 288 1051 l 288 1150 l 433 1150 q 525 1121 490 1150 q 560 1042 560 1092 q 535 964 560 996 l 481 896 l 353 896 z "},"ē":{"ha":833,"x_min":108,"x_max":726,"o":"m 417 -14 q 254 23 324 -14 q 147 126 185 60 q 108 282 108 193 l 108 482 q 147 638 108 571 q 254 741 185 704 q 417 778 324 778 q 581 741 511 778 q 688 638 650 704 q 726 482 726 571 l 726 346 l 253 346 l 253 282 q 418 108 253 108 q 574 199 553 108 l 722 199 q 622 44 706 101 q 417 -14 539 -14 m 253 482 l 253 447 l 581 449 l 581 483 q 539 613 581 568 q 417 658 497 658 q 294 613 336 658 q 253 482 253 567 m 186 925 l 186 1043 l 647 1043 l 647 925 l 186 925 z "},"ę":{"ha":833,"x_min":111,"x_max":722,"o":"m 513 -292 q 386 -253 433 -292 q 339 -156 339 -214 q 433 -11 339 -86 q 417 -14 425 -14 q 255 23 324 -14 q 149 126 186 60 q 111 282 111 193 l 111 482 q 149 638 111 571 q 255 741 186 704 q 417 778 324 778 q 580 741 511 778 q 685 638 649 704 q 722 482 722 571 l 722 346 l 256 346 l 256 282 q 418 108 256 108 q 569 199 550 108 l 719 199 q 676 97 710 142 q 590 26 642 53 l 553 -7 q 474 -125 474 -74 q 493 -171 474 -153 q 546 -189 513 -189 l 633 -189 l 633 -292 l 513 -292 m 256 482 l 256 447 l 578 449 l 578 483 q 538 613 578 568 q 417 658 497 658 q 296 613 336 658 q 256 482 256 567 z "},"ẽ":{"ha":833,"x_min":108,"x_max":726,"o":"m 417 -14 q 254 23 324 -14 q 147 126 185 60 q 108 282 108 193 l 108 482 q 147 638 108 571 q 254 741 185 704 q 417 778 324 778 q 581 741 511 778 q 688 638 650 704 q 726 482 726 571 l 726 346 l 253 346 l 253 282 q 418 108 253 108 q 574 199 553 108 l 722 199 q 622 44 706 101 q 417 -14 539 -14 m 253 482 l 253 447 l 581 449 l 581 483 q 539 613 581 568 q 417 658 497 658 q 294 613 336 658 q 253 482 253 567 m 514 897 q 444 911 471 897 q 400 943 418 925 q 365 976 382 961 q 326 990 349 990 q 285 942 285 990 l 285 904 l 186 904 l 186 947 q 223 1051 186 1013 q 319 1090 260 1090 q 389 1076 363 1090 q 433 1043 415 1061 q 468 1011 451 1025 q 507 997 485 997 q 549 1042 549 997 l 549 1083 l 647 1083 l 647 1039 q 610 935 647 974 q 514 897 574 897 z "},"ə":{"ha":833,"x_min":113,"x_max":721,"o":"m 417 -14 q 194 67 276 -14 q 113 282 113 149 l 113 418 l 576 418 l 576 482 q 415 656 576 656 q 265 565 286 656 l 117 565 q 214 720 133 663 q 417 778 294 778 q 639 697 557 778 q 721 482 721 615 l 721 282 q 639 67 721 149 q 417 -14 557 -14 m 417 107 q 537 152 497 107 q 576 282 576 197 l 576 317 l 258 317 l 258 282 q 297 152 258 197 q 417 107 336 107 z "},"f":{"ha":833,"x_min":79,"x_max":747,"o":"m 296 0 l 296 547 l 79 547 l 79 683 l 296 683 l 296 807 q 357 958 296 903 q 524 1014 418 1014 l 747 1014 l 747 881 l 526 881 q 446 806 446 881 l 446 683 l 747 683 l 747 547 l 446 547 l 446 0 l 296 0 z "},"g":{"ha":833,"x_min":111,"x_max":715,"o":"m 217 -250 l 217 -121 l 451 -121 q 567 -11 567 -121 l 567 65 l 569 207 l 567 207 q 503 90 557 132 q 365 47 450 47 q 179 125 247 47 q 111 336 111 203 l 111 490 q 179 700 111 622 q 365 778 247 778 q 503 735 450 778 q 567 618 557 693 l 568 618 l 567 764 l 715 764 l 715 -14 q 645 -187 715 -124 q 453 -250 575 -250 l 217 -250 m 414 176 q 526 220 485 176 q 567 343 567 264 l 567 482 q 526 603 567 560 q 414 647 485 647 q 301 604 340 647 q 261 482 261 561 l 261 343 q 301 219 261 263 q 414 176 340 176 z "},"ǵ":{"ha":833,"x_min":111,"x_max":715,"o":"m 217 -250 l 217 -121 l 451 -121 q 567 -11 567 -121 l 567 65 l 569 207 l 567 207 q 503 90 557 132 q 365 47 450 47 q 179 125 247 47 q 111 336 111 203 l 111 490 q 179 700 111 622 q 365 778 247 778 q 503 735 450 778 q 567 618 557 693 l 568 618 l 567 764 l 715 764 l 715 -14 q 645 -187 715 -124 q 453 -250 575 -250 l 217 -250 m 414 176 q 526 220 485 176 q 567 343 567 264 l 567 482 q 526 603 567 560 q 414 647 485 647 q 301 604 340 647 q 261 482 261 561 l 261 343 q 301 219 261 263 q 414 176 340 176 m 319 896 l 467 1090 l 628 1090 l 471 896 l 319 896 z "},"ğ":{"ha":833,"x_min":111,"x_max":715,"o":"m 217 -250 l 217 -121 l 451 -121 q 567 -11 567 -121 l 567 65 l 569 207 l 567 207 q 503 90 557 132 q 365 47 450 47 q 179 125 247 47 q 111 336 111 203 l 111 490 q 179 700 111 622 q 365 778 247 778 q 503 735 450 778 q 567 618 557 693 l 568 618 l 567 764 l 715 764 l 715 -14 q 645 -187 715 -124 q 453 -250 575 -250 l 217 -250 m 414 176 q 526 220 485 176 q 567 343 567 264 l 567 482 q 526 603 567 560 q 414 647 485 647 q 301 604 340 647 q 261 482 261 561 l 261 343 q 301 219 261 263 q 414 176 340 176 m 413 888 q 244 943 308 888 q 181 1090 181 999 l 297 1090 q 328 1010 297 1040 q 411 979 360 979 q 496 1010 464 979 q 528 1090 528 1040 l 646 1090 q 581 943 646 999 q 413 888 517 888 z "},"ǧ":{"ha":833,"x_min":111,"x_max":715,"o":"m 217 -250 l 217 -121 l 451 -121 q 567 -11 567 -121 l 567 65 l 569 207 l 567 207 q 503 90 557 132 q 365 47 450 47 q 179 125 247 47 q 111 336 111 203 l 111 490 q 179 700 111 622 q 365 778 247 778 q 503 735 450 778 q 567 618 557 693 l 568 618 l 567 764 l 715 764 l 715 -14 q 645 -187 715 -124 q 453 -250 575 -250 l 217 -250 m 414 176 q 526 220 485 176 q 567 343 567 264 l 567 482 q 526 603 567 560 q 414 647 485 647 q 301 604 340 647 q 261 482 261 561 l 261 343 q 301 219 261 263 q 414 176 340 176 m 343 896 l 151 1090 l 304 1090 l 414 985 l 519 1090 l 674 1090 l 482 896 l 343 896 z "},"ĝ":{"ha":833,"x_min":111,"x_max":715,"o":"m 217 -250 l 217 -121 l 451 -121 q 567 -11 567 -121 l 567 65 l 569 207 l 567 207 q 503 90 557 132 q 365 47 450 47 q 179 125 247 47 q 111 336 111 203 l 111 490 q 179 700 111 622 q 365 778 247 778 q 503 735 450 778 q 567 618 557 693 l 568 618 l 567 764 l 715 764 l 715 -14 q 645 -187 715 -124 q 453 -250 575 -250 l 217 -250 m 414 176 q 526 220 485 176 q 567 343 567 264 l 567 482 q 526 603 567 560 q 414 647 485 647 q 301 604 340 647 q 261 482 261 561 l 261 343 q 301 219 261 263 q 414 176 340 176 m 151 896 l 343 1090 l 482 1090 l 674 896 l 521 896 l 411 1001 l 306 896 l 151 896 z "},"ģ":{"ha":833,"x_min":111,"x_max":715,"o":"m 217 -250 l 217 -121 l 451 -121 q 567 -11 567 -121 l 567 65 l 569 207 l 567 207 q 503 90 557 132 q 365 47 450 47 q 179 125 247 47 q 111 336 111 203 l 111 490 q 179 700 111 622 q 365 778 247 778 q 503 735 450 778 q 567 618 557 693 l 568 618 l 567 764 l 715 764 l 715 -14 q 645 -187 715 -124 q 453 -250 575 -250 l 217 -250 m 414 176 q 526 220 485 176 q 567 343 567 264 l 567 482 q 526 603 567 560 q 414 647 485 647 q 301 604 340 647 q 261 482 261 561 l 261 343 q 301 219 261 263 q 414 176 340 176 m 583 1222 l 472 896 l 279 896 l 460 1222 l 583 1222 z "},"ġ":{"ha":833,"x_min":111,"x_max":715,"o":"m 217 -250 l 217 -121 l 451 -121 q 567 -11 567 -121 l 567 65 l 569 207 l 567 207 q 503 90 557 132 q 365 47 450 47 q 179 125 247 47 q 111 336 111 203 l 111 490 q 179 700 111 622 q 365 778 247 778 q 503 735 450 778 q 567 618 557 693 l 568 618 l 567 764 l 715 764 l 715 -14 q 645 -187 715 -124 q 453 -250 575 -250 l 217 -250 m 414 176 q 526 220 485 176 q 567 343 567 264 l 567 482 q 526 603 567 560 q 414 647 485 647 q 301 604 340 647 q 261 482 261 561 l 261 343 q 301 219 261 263 q 414 176 340 176 m 413 896 q 335 922 364 896 q 306 990 306 947 q 335 1060 306 1035 q 413 1086 364 1086 q 490 1060 461 1086 q 519 990 519 1035 q 490 922 519 947 q 413 896 461 896 z "},"h":{"ha":833,"x_min":117,"x_max":719,"o":"m 117 0 l 117 1014 l 267 1014 l 267 764 l 265 618 l 267 618 q 331 736 278 694 q 469 778 383 778 q 651 705 583 778 q 719 508 719 632 l 719 0 l 569 0 l 569 492 q 529 608 569 567 q 419 650 489 650 q 308 606 349 650 q 267 482 267 561 l 267 0 l 117 0 z "},"ħ":{"ha":833,"x_min":0,"x_max":719,"o":"m 0 786 l 0 896 l 117 896 l 117 1014 l 267 1014 l 267 896 l 490 896 l 490 786 l 267 786 l 267 681 l 265 535 l 267 535 q 331 653 278 611 q 469 694 383 694 q 651 622 583 694 q 719 425 719 549 l 719 0 l 569 0 l 569 408 q 529 525 569 483 q 419 567 489 567 q 308 522 349 567 q 267 399 267 478 l 267 0 l 117 0 l 117 786 l 0 786 z "},"ĥ":{"ha":833,"x_min":-53,"x_max":719,"o":"m 117 0 l 117 1014 l 267 1014 l 267 764 l 265 618 l 267 618 q 331 736 278 694 q 469 778 383 778 q 651 705 583 778 q 719 508 719 632 l 719 0 l 569 0 l 569 492 q 529 608 569 567 q 419 650 489 650 q 308 606 349 650 q 267 482 267 561 l 267 0 l 117 0 m -53 1118 l 139 1313 l 278 1313 l 469 1118 l 317 1118 l 207 1224 l 101 1118 l -53 1118 z "},"i":{"ha":833,"x_min":113,"x_max":774,"o":"m 113 0 l 113 136 l 381 136 l 381 628 l 147 628 l 147 764 l 526 764 l 526 136 l 774 136 l 774 0 l 113 0 m 440 896 q 363 922 392 896 q 333 990 333 947 q 363 1060 333 1035 q 440 1086 392 1086 q 518 1060 489 1086 q 547 990 547 1035 q 518 922 547 947 q 440 896 489 896 z "},"ı":{"ha":833,"x_min":113,"x_max":774,"o":"m 113 0 l 113 136 l 381 136 l 381 628 l 147 628 l 147 764 l 526 764 l 526 136 l 774 136 l 774 0 l 113 0 z "},"í":{"ha":833,"x_min":113,"x_max":774,"o":"m 113 0 l 113 136 l 381 136 l 381 628 l 147 628 l 147 764 l 526 764 l 526 136 l 774 136 l 774 0 l 113 0 m 347 896 l 494 1090 l 656 1090 l 499 896 l 347 896 z "},"ĭ":{"ha":833,"x_min":113,"x_max":774,"o":"m 113 0 l 113 136 l 381 136 l 381 628 l 147 628 l 147 764 l 526 764 l 526 136 l 774 136 l 774 0 l 113 0 m 440 888 q 272 943 336 888 q 208 1090 208 999 l 325 1090 q 356 1010 325 1040 q 439 979 388 979 q 524 1010 492 979 q 556 1090 556 1040 l 674 1090 q 609 943 674 999 q 440 888 544 888 z "},"î":{"ha":833,"x_min":113,"x_max":774,"o":"m 113 0 l 113 136 l 381 136 l 381 628 l 147 628 l 147 764 l 526 764 l 526 136 l 774 136 l 774 0 l 113 0 m 179 896 l 371 1090 l 510 1090 l 701 896 l 549 896 l 439 1001 l 333 896 l 179 896 z "},"ï":{"ha":833,"x_min":113,"x_max":774,"o":"m 113 0 l 113 136 l 381 136 l 381 628 l 147 628 l 147 764 l 526 764 l 526 136 l 774 136 l 774 0 l 113 0 m 599 896 q 530 922 556 896 q 504 990 504 947 q 530 1060 504 1035 q 599 1086 556 1086 q 669 1060 643 1086 q 694 990 694 1035 q 669 922 694 947 q 599 896 643 896 m 282 896 q 212 922 238 896 q 186 990 186 947 q 212 1060 186 1035 q 282 1086 238 1086 q 351 1060 325 1086 q 378 990 378 1035 q 351 922 378 947 q 282 896 325 896 z "},"ị":{"ha":833,"x_min":113,"x_max":774,"o":"m 113 0 l 113 136 l 381 136 l 381 628 l 147 628 l 147 764 l 526 764 l 526 136 l 774 136 l 774 0 l 113 0 m 440 896 q 363 922 392 896 q 333 990 333 947 q 363 1060 333 1035 q 440 1086 392 1086 q 518 1060 489 1086 q 547 990 547 1035 q 518 922 547 947 q 440 896 489 896 m 440 -304 q 363 -279 392 -304 q 333 -210 333 -254 q 363 -141 333 -167 q 440 -115 392 -115 q 518 -141 489 -115 q 547 -210 547 -167 q 518 -279 547 -254 q 440 -304 489 -304 z "},"ì":{"ha":833,"x_min":113,"x_max":774,"o":"m 113 0 l 113 136 l 381 136 l 381 628 l 147 628 l 147 764 l 526 764 l 526 136 l 774 136 l 774 0 l 113 0 m 382 896 l 221 1090 l 388 1090 l 538 896 l 382 896 z "},"ỉ":{"ha":833,"x_min":113,"x_max":774,"o":"m 113 0 l 113 136 l 381 136 l 381 628 l 147 628 l 147 764 l 526 764 l 526 136 l 774 136 l 774 0 l 113 0 m 376 896 l 444 982 q 465 1025 465 1007 q 422 1051 465 1051 l 311 1051 l 311 1150 l 457 1150 q 549 1121 514 1150 q 583 1042 583 1092 q 558 964 583 996 l 504 896 l 376 896 z "},"ī":{"ha":833,"x_min":113,"x_max":774,"o":"m 113 0 l 113 136 l 381 136 l 381 628 l 147 628 l 147 764 l 526 764 l 526 136 l 774 136 l 774 0 l 113 0 m 210 925 l 210 1043 l 671 1043 l 671 925 l 210 925 z "},"į":{"ha":833,"x_min":113,"x_max":774,"o":"m 440 896 q 362 922 390 896 q 333 990 333 947 q 362 1060 333 1035 q 440 1086 390 1086 q 517 1060 489 1086 q 546 990 546 1035 q 517 922 546 947 q 440 896 489 896 m 113 0 l 113 136 l 381 136 l 381 628 l 147 628 l 147 764 l 526 764 l 526 136 l 774 136 l 774 0 l 493 0 l 485 -7 q 406 -125 406 -74 q 425 -171 406 -153 q 479 -189 444 -189 l 565 -189 l 565 -292 l 444 -292 q 319 -253 365 -292 q 272 -154 272 -214 q 297 -77 272 -117 q 378 0 322 -37 l 113 0 z "},"ĩ":{"ha":833,"x_min":113,"x_max":774,"o":"m 113 0 l 113 136 l 381 136 l 381 628 l 147 628 l 147 764 l 526 764 l 526 136 l 774 136 l 774 0 l 113 0 m 538 897 q 468 911 494 897 q 424 943 442 925 q 389 976 406 961 q 350 990 372 990 q 308 942 308 990 l 308 904 l 210 904 l 210 947 q 247 1051 210 1013 q 343 1090 283 1090 q 413 1076 386 1090 q 457 1043 439 1061 q 492 1011 475 1025 q 531 997 508 997 q 572 1042 572 997 l 572 1083 l 671 1083 l 671 1039 q 634 935 671 974 q 538 897 597 897 z "},"j":{"ha":833,"x_min":93,"x_max":646,"o":"m 93 -250 l 93 -111 l 306 -111 q 426 -69 383 -111 q 469 49 469 -28 l 469 626 l 121 626 l 121 764 l 619 764 l 619 47 q 536 -170 619 -90 q 311 -250 453 -250 l 93 -250 m 539 896 q 461 922 490 896 q 432 990 432 947 q 461 1060 432 1035 q 539 1086 490 1086 q 617 1060 588 1086 q 646 990 646 1035 q 617 922 646 947 q 539 896 588 896 z "},"ȷ":{"ha":833,"x_min":93,"x_max":619,"o":"m 93 -250 l 93 -111 l 306 -111 q 426 -69 383 -111 q 469 49 469 -28 l 469 626 l 121 626 l 121 764 l 619 764 l 619 47 q 536 -170 619 -90 q 311 -250 453 -250 l 93 -250 z "},"ĵ":{"ha":833,"x_min":93,"x_max":800,"o":"m 93 -250 l 93 -111 l 306 -111 q 426 -69 383 -111 q 469 49 469 -28 l 469 626 l 121 626 l 121 764 l 619 764 l 619 47 q 536 -170 619 -90 q 311 -250 453 -250 l 93 -250 m 278 896 l 469 1090 l 608 1090 l 800 896 l 647 896 l 538 1001 l 432 896 l 278 896 z "},"k":{"ha":833,"x_min":121,"x_max":782,"o":"m 121 0 l 121 1014 l 271 1014 l 271 457 l 406 457 l 608 764 l 778 764 l 535 397 l 782 0 l 610 0 l 406 328 l 271 328 l 271 0 l 121 0 z "},"ķ":{"ha":833,"x_min":121,"x_max":782,"o":"m 121 0 l 121 1014 l 271 1014 l 271 457 l 406 457 l 608 764 l 778 764 l 535 397 l 782 0 l 610 0 l 406 328 l 271 328 l 271 0 l 121 0 m 258 -333 l 390 -132 l 554 -132 l 404 -333 l 258 -333 z "},"ĸ":{"ha":833,"x_min":124,"x_max":772,"o":"m 124 0 l 124 764 l 274 764 l 274 457 l 396 457 l 599 764 l 768 764 l 525 397 l 772 0 l 600 0 l 396 328 l 274 328 l 274 0 l 124 0 z "},"l":{"ha":833,"x_min":40,"x_max":771,"o":"m 535 0 q 362 63 426 0 q 297 232 297 126 l 297 878 l 40 878 l 40 1014 l 447 1014 l 447 232 q 472 162 447 188 q 540 136 497 136 l 771 136 l 771 0 l 535 0 z "},"ĺ":{"ha":833,"x_min":40,"x_max":771,"o":"m 535 0 q 362 63 426 0 q 297 232 297 126 l 297 878 l 40 878 l 40 1014 l 447 1014 l 447 232 q 472 162 447 188 q 540 136 497 136 l 771 136 l 771 0 l 535 0 m 263 1125 l 410 1319 l 571 1319 l 414 1125 l 263 1125 z "},"ľ":{"ha":833,"x_min":40,"x_max":774,"o":"m 535 0 q 362 63 426 0 q 297 232 297 126 l 297 878 l 40 878 l 40 1014 l 447 1014 l 447 232 q 472 162 447 188 q 540 136 497 136 l 771 136 l 771 0 l 535 0 m 618 764 l 632 1014 l 774 1014 l 746 764 l 618 764 z "},"ļ":{"ha":833,"x_min":40,"x_max":771,"o":"m 535 0 q 362 63 426 0 q 297 232 297 126 l 297 878 l 40 878 l 40 1014 l 447 1014 l 447 232 q 472 162 447 188 q 540 136 497 136 l 771 136 l 771 0 l 535 0 m 286 -333 l 418 -132 l 582 -132 l 432 -333 l 286 -333 z "},"ŀ":{"ha":833,"x_min":13,"x_max":892,"o":"m 507 0 q 334 63 399 0 q 269 232 269 126 l 269 878 l 13 878 l 13 1014 l 419 1014 l 419 232 q 444 162 419 188 q 513 136 469 136 l 743 136 l 743 0 l 507 0 m 769 368 q 680 401 713 368 q 647 489 647 433 q 680 580 647 546 q 769 614 713 614 q 859 580 826 614 q 892 489 892 546 q 859 401 892 433 q 769 368 826 368 z "},"ł":{"ha":833,"x_min":40,"x_max":771,"o":"m 139 319 l 139 456 l 297 554 l 297 878 l 40 878 l 40 1014 l 447 1014 l 447 647 l 657 778 l 657 642 l 447 511 l 447 232 q 472 162 447 188 q 540 136 497 136 l 771 136 l 771 0 l 535 0 q 362 63 426 0 q 297 232 297 126 l 297 418 l 139 319 z "},"m":{"ha":833,"x_min":82,"x_max":753,"o":"m 82 0 l 82 764 l 208 764 l 208 667 l 215 667 q 256 748 224 718 q 340 778 289 778 q 420 749 388 778 q 465 667 453 719 l 471 667 q 514 748 479 718 q 600 778 549 778 q 711 724 669 778 q 753 582 753 669 l 753 0 l 618 0 l 618 575 q 599 642 618 618 q 546 665 581 665 q 493 642 513 665 q 474 576 474 619 l 474 0 l 361 0 l 361 575 q 288 665 361 665 q 217 576 217 665 l 217 0 l 82 0 z "},"n":{"ha":833,"x_min":117,"x_max":719,"o":"m 117 0 l 117 764 l 265 764 l 265 618 l 267 618 q 331 735 278 693 q 469 778 383 778 q 651 705 583 778 q 719 508 719 632 l 719 0 l 569 0 l 569 492 q 529 607 569 567 q 419 647 489 647 q 308 604 349 647 q 267 482 267 561 l 267 0 l 117 0 z "},"ń":{"ha":833,"x_min":117,"x_max":719,"o":"m 117 0 l 117 764 l 265 764 l 265 618 l 267 618 q 331 735 278 693 q 469 778 383 778 q 651 705 583 778 q 719 508 719 632 l 719 0 l 569 0 l 569 492 q 529 607 569 567 q 419 647 489 647 q 308 604 349 647 q 267 482 267 561 l 267 0 l 117 0 m 331 896 l 478 1090 l 639 1090 l 482 896 l 331 896 z "},"ŉ":{"ha":833,"x_min":-19,"x_max":719,"o":"m 117 0 l 117 764 l 265 764 l 265 618 l 267 618 q 331 735 278 693 q 469 778 383 778 q 651 705 583 778 q 719 508 719 632 l 719 0 l 569 0 l 569 492 q 529 607 569 567 q 419 647 489 647 q 308 604 349 647 q 267 482 267 561 l 267 0 l 117 0 m -19 896 l 113 1097 l 276 1097 l 126 896 l -19 896 z "},"ň":{"ha":833,"x_min":117,"x_max":719,"o":"m 117 0 l 117 764 l 265 764 l 265 618 l 267 618 q 331 735 278 693 q 469 778 383 778 q 651 705 583 778 q 719 508 719 632 l 719 0 l 569 0 l 569 492 q 529 607 569 567 q 419 647 489 647 q 308 604 349 647 q 267 482 267 561 l 267 0 l 117 0 m 354 896 l 163 1090 l 315 1090 l 425 985 l 531 1090 l 685 1090 l 493 896 l 354 896 z "},"ņ":{"ha":833,"x_min":117,"x_max":719,"o":"m 117 0 l 117 764 l 265 764 l 265 618 l 267 618 q 331 735 278 693 q 469 778 383 778 q 651 705 583 778 q 719 508 719 632 l 719 0 l 569 0 l 569 492 q 529 607 569 567 q 419 647 489 647 q 308 604 349 647 q 267 482 267 561 l 267 0 l 117 0 m 258 -333 l 390 -132 l 554 -132 l 404 -333 l 258 -333 z "},"ŋ":{"ha":833,"x_min":119,"x_max":717,"o":"m 336 -250 l 336 -110 l 422 -110 q 528 -72 490 -110 q 567 32 567 -35 l 567 492 q 528 608 567 567 q 419 650 489 650 q 309 606 349 650 q 269 482 269 561 l 269 0 l 119 0 l 119 764 l 267 764 l 267 618 l 269 618 q 331 736 279 694 q 469 778 383 778 q 650 705 583 778 q 717 508 717 632 l 717 25 q 679 -119 717 -57 q 574 -216 642 -182 q 418 -250 507 -250 l 336 -250 z "},"ñ":{"ha":833,"x_min":117,"x_max":719,"o":"m 117 0 l 117 764 l 265 764 l 265 618 l 267 618 q 331 735 278 693 q 469 778 383 778 q 651 705 583 778 q 719 508 719 632 l 719 0 l 569 0 l 569 492 q 529 607 569 567 q 419 647 489 647 q 308 604 349 647 q 267 482 267 561 l 267 0 l 117 0 m 521 897 q 451 911 478 897 q 407 943 425 925 q 372 976 389 961 q 333 990 356 990 q 292 942 292 990 l 292 904 l 193 904 l 193 947 q 230 1051 193 1013 q 326 1090 267 1090 q 396 1076 369 1090 q 440 1043 422 1061 q 475 1011 458 1025 q 514 997 492 997 q 556 1042 556 997 l 556 1083 l 654 1083 l 654 1039 q 617 935 654 974 q 521 897 581 897 z "},"o":{"ha":833,"x_min":108,"x_max":726,"o":"m 417 -12 q 191 67 274 -12 q 108 283 108 147 l 108 481 q 191 697 108 617 q 417 776 274 776 q 643 697 560 776 q 726 481 726 617 l 726 283 q 643 67 726 147 q 417 -12 560 -12 m 417 119 q 534 162 492 119 q 576 283 576 204 l 576 481 q 534 602 576 560 q 417 644 492 644 q 300 602 342 644 q 258 481 258 560 l 258 283 q 300 162 258 204 q 417 119 342 119 z "},"ó":{"ha":833,"x_min":108,"x_max":726,"o":"m 417 -12 q 191 67 274 -12 q 108 283 108 147 l 108 481 q 191 697 108 617 q 417 776 274 776 q 643 697 560 776 q 726 481 726 617 l 726 283 q 643 67 726 147 q 417 -12 560 -12 m 417 119 q 534 162 492 119 q 576 283 576 204 l 576 481 q 534 602 576 560 q 417 644 492 644 q 300 602 342 644 q 258 481 258 560 l 258 283 q 300 162 258 204 q 417 119 342 119 m 324 896 l 471 1090 l 632 1090 l 475 896 l 324 896 z "},"ŏ":{"ha":833,"x_min":108,"x_max":726,"o":"m 417 -12 q 191 67 274 -12 q 108 283 108 147 l 108 481 q 191 697 108 617 q 417 776 274 776 q 643 697 560 776 q 726 481 726 617 l 726 283 q 643 67 726 147 q 417 -12 560 -12 m 417 119 q 534 162 492 119 q 576 283 576 204 l 576 481 q 534 602 576 560 q 417 644 492 644 q 300 602 342 644 q 258 481 258 560 l 258 283 q 300 162 258 204 q 417 119 342 119 m 417 888 q 249 943 313 888 q 185 1090 185 999 l 301 1090 q 333 1010 301 1040 q 415 979 364 979 q 500 1010 468 979 q 532 1090 532 1040 l 650 1090 q 585 943 650 999 q 417 888 521 888 z "},"ô":{"ha":833,"x_min":108,"x_max":726,"o":"m 417 -12 q 191 67 274 -12 q 108 283 108 147 l 108 481 q 191 697 108 617 q 417 776 274 776 q 643 697 560 776 q 726 481 726 617 l 726 283 q 643 67 726 147 q 417 -12 560 -12 m 417 119 q 534 162 492 119 q 576 283 576 204 l 576 481 q 534 602 576 560 q 417 644 492 644 q 300 602 342 644 q 258 481 258 560 l 258 283 q 300 162 258 204 q 417 119 342 119 m 156 896 l 347 1090 l 486 1090 l 678 896 l 525 896 l 415 1001 l 310 896 l 156 896 z "},"ố":{"ha":833,"x_min":108,"x_max":893,"o":"m 417 -12 q 191 67 274 -12 q 108 283 108 147 l 108 481 q 191 697 108 617 q 417 776 274 776 q 643 697 560 776 q 726 481 726 617 l 726 283 q 643 67 726 147 q 417 -12 560 -12 m 417 119 q 534 162 492 119 q 576 283 576 204 l 576 481 q 534 602 576 560 q 417 644 492 644 q 300 602 342 644 q 258 481 258 560 l 258 283 q 300 162 258 204 q 417 119 342 119 m 574 1056 l 736 1250 l 893 1250 l 722 1056 l 574 1056 m 157 896 l 347 1090 l 486 1090 l 678 896 l 524 896 l 417 1001 l 310 896 l 157 896 z "},"ộ":{"ha":833,"x_min":108,"x_max":726,"o":"m 417 -12 q 191 67 274 -12 q 108 283 108 147 l 108 481 q 191 697 108 617 q 417 776 274 776 q 643 697 560 776 q 726 481 726 617 l 726 283 q 643 67 726 147 q 417 -12 560 -12 m 417 119 q 534 162 492 119 q 576 283 576 204 l 576 481 q 534 602 576 560 q 417 644 492 644 q 300 602 342 644 q 258 481 258 560 l 258 283 q 300 162 258 204 q 417 119 342 119 m 417 -304 q 339 -279 368 -304 q 310 -210 310 -254 q 339 -141 310 -167 q 417 -115 368 -115 q 494 -141 465 -115 q 524 -210 524 -167 q 494 -279 524 -254 q 417 -304 465 -304 m 156 896 l 347 1090 l 486 1090 l 678 896 l 525 896 l 415 1001 l 310 896 l 156 896 z "},"ồ":{"ha":833,"x_min":108,"x_max":785,"o":"m 417 -12 q 191 67 274 -12 q 108 283 108 147 l 108 481 q 191 697 108 617 q 417 776 274 776 q 643 697 560 776 q 726 481 726 617 l 726 283 q 643 67 726 147 q 417 -12 560 -12 m 417 119 q 534 162 492 119 q 576 283 576 204 l 576 481 q 534 602 576 560 q 417 644 492 644 q 300 602 342 644 q 258 481 258 560 l 258 283 q 300 162 258 204 q 417 119 342 119 m 636 1056 l 456 1250 l 613 1250 l 785 1056 l 636 1056 m 157 896 l 347 1090 l 486 1090 l 678 896 l 524 896 l 417 1001 l 310 896 l 157 896 z "},"ổ":{"ha":833,"x_min":108,"x_max":781,"o":"m 417 -12 q 191 67 274 -12 q 108 283 108 147 l 108 481 q 191 697 108 617 q 417 776 274 776 q 643 697 560 776 q 726 481 726 617 l 726 283 q 643 67 726 147 q 417 -12 560 -12 m 417 119 q 534 162 492 119 q 576 283 576 204 l 576 481 q 534 602 576 560 q 417 644 492 644 q 300 602 342 644 q 258 481 258 560 l 258 283 q 300 162 258 204 q 417 119 342 119 m 588 1056 l 651 1139 q 667 1175 667 1160 q 625 1206 667 1206 l 543 1206 l 543 1300 l 640 1300 q 742 1270 704 1300 q 781 1190 781 1240 q 756 1122 781 1157 l 707 1056 l 588 1056 m 157 896 l 347 1090 l 486 1090 l 678 896 l 524 896 l 417 1001 l 310 896 l 157 896 z "},"ỗ":{"ha":833,"x_min":108,"x_max":726,"o":"m 417 -12 q 191 67 274 -12 q 108 283 108 147 l 108 481 q 191 697 108 617 q 417 776 274 776 q 643 697 560 776 q 726 481 726 617 l 726 283 q 643 67 726 147 q 417 -12 560 -12 m 417 119 q 534 162 492 119 q 576 283 576 204 l 576 481 q 534 602 576 560 q 417 644 492 644 q 300 602 342 644 q 258 481 258 560 l 258 283 q 300 162 258 204 q 417 119 342 119 m 510 1133 q 440 1147 467 1133 q 397 1176 414 1160 q 365 1206 381 1193 q 326 1219 349 1219 q 285 1176 285 1219 l 285 1143 l 186 1143 l 186 1174 q 224 1270 186 1233 q 324 1307 263 1307 q 394 1294 368 1307 q 437 1263 419 1281 q 469 1233 454 1246 q 507 1221 485 1221 q 549 1261 549 1221 l 549 1296 l 647 1296 l 647 1267 q 609 1170 647 1207 q 510 1133 571 1133 m 157 896 l 347 1090 l 486 1090 l 678 896 l 524 896 l 417 1001 l 310 896 l 157 896 z "},"ö":{"ha":833,"x_min":108,"x_max":726,"o":"m 417 -12 q 191 67 274 -12 q 108 283 108 147 l 108 481 q 191 697 108 617 q 417 776 274 776 q 643 697 560 776 q 726 481 726 617 l 726 283 q 643 67 726 147 q 417 -12 560 -12 m 417 119 q 534 162 492 119 q 576 283 576 204 l 576 481 q 534 602 576 560 q 417 644 492 644 q 300 602 342 644 q 258 481 258 560 l 258 283 q 300 162 258 204 q 417 119 342 119 m 575 896 q 506 922 532 896 q 481 990 481 947 q 506 1060 481 1035 q 575 1086 532 1086 q 645 1060 619 1086 q 671 990 671 1035 q 645 922 671 947 q 575 896 619 896 m 258 896 q 188 922 214 896 q 163 990 163 947 q 188 1060 163 1035 q 258 1086 214 1086 q 328 1060 301 1086 q 354 990 354 1035 q 328 922 354 947 q 258 896 301 896 z "},"ọ":{"ha":833,"x_min":108,"x_max":726,"o":"m 417 -12 q 191 67 274 -12 q 108 283 108 147 l 108 481 q 191 697 108 617 q 417 776 274 776 q 643 697 560 776 q 726 481 726 617 l 726 283 q 643 67 726 147 q 417 -12 560 -12 m 417 119 q 534 162 492 119 q 576 283 576 204 l 576 481 q 534 602 576 560 q 417 644 492 644 q 300 602 342 644 q 258 481 258 560 l 258 283 q 300 162 258 204 q 417 119 342 119 m 417 -304 q 339 -279 368 -304 q 310 -210 310 -254 q 339 -141 310 -167 q 417 -115 368 -115 q 494 -141 465 -115 q 524 -210 524 -167 q 494 -279 524 -254 q 417 -304 465 -304 z "},"ò":{"ha":833,"x_min":108,"x_max":726,"o":"m 417 -12 q 191 67 274 -12 q 108 283 108 147 l 108 481 q 191 697 108 617 q 417 776 274 776 q 643 697 560 776 q 726 481 726 617 l 726 283 q 643 67 726 147 q 417 -12 560 -12 m 417 119 q 534 162 492 119 q 576 283 576 204 l 576 481 q 534 602 576 560 q 417 644 492 644 q 300 602 342 644 q 258 481 258 560 l 258 283 q 300 162 258 204 q 417 119 342 119 m 358 896 l 197 1090 l 364 1090 l 514 896 l 358 896 z "},"ỏ":{"ha":833,"x_min":108,"x_max":726,"o":"m 417 -12 q 191 67 274 -12 q 108 283 108 147 l 108 481 q 191 697 108 617 q 417 776 274 776 q 643 697 560 776 q 726 481 726 617 l 726 283 q 643 67 726 147 q 417 -12 560 -12 m 417 119 q 534 162 492 119 q 576 283 576 204 l 576 481 q 534 602 576 560 q 417 644 492 644 q 300 602 342 644 q 258 481 258 560 l 258 283 q 300 162 258 204 q 417 119 342 119 m 353 896 l 421 982 q 442 1025 442 1007 q 399 1051 442 1051 l 288 1051 l 288 1150 l 433 1150 q 525 1121 490 1150 q 560 1042 560 1092 q 535 964 560 996 l 481 896 l 353 896 z "},"ơ":{"ha":833,"x_min":108,"x_max":767,"o":"m 417 -12 q 191 67 274 -12 q 108 283 108 147 l 108 481 q 191 697 108 617 q 417 776 274 776 q 588 736 515 776 l 596 736 q 644 785 644 736 l 644 889 l 767 889 l 767 781 q 744 699 767 733 q 682 647 722 664 q 726 481 726 576 l 726 283 q 643 67 726 147 q 417 -12 560 -12 m 417 119 q 534 162 492 119 q 576 283 576 204 l 576 481 q 534 602 576 560 q 417 644 492 644 q 300 602 342 644 q 258 481 258 560 l 258 283 q 300 162 258 204 q 417 119 342 119 z "},"ớ":{"ha":833,"x_min":108,"x_max":767,"o":"m 417 -12 q 191 67 274 -12 q 108 283 108 147 l 108 481 q 191 697 108 617 q 417 776 274 776 q 588 736 515 776 l 596 736 q 644 785 644 736 l 644 889 l 767 889 l 767 781 q 744 699 767 733 q 682 647 722 664 q 726 481 726 576 l 726 283 q 643 67 726 147 q 417 -12 560 -12 m 417 119 q 534 162 492 119 q 576 283 576 204 l 576 481 q 534 602 576 560 q 417 644 492 644 q 300 602 342 644 q 258 481 258 560 l 258 283 q 300 162 258 204 q 417 119 342 119 m 310 896 l 457 1090 l 618 1090 l 461 896 l 310 896 z "},"ợ":{"ha":833,"x_min":108,"x_max":767,"o":"m 417 -12 q 191 67 274 -12 q 108 283 108 147 l 108 481 q 191 697 108 617 q 417 776 274 776 q 588 736 515 776 l 596 736 q 644 785 644 736 l 644 889 l 767 889 l 767 781 q 744 699 767 733 q 682 647 722 664 q 726 481 726 576 l 726 283 q 643 67 726 147 q 417 -12 560 -12 m 417 119 q 534 162 492 119 q 576 283 576 204 l 576 481 q 534 602 576 560 q 417 644 492 644 q 300 602 342 644 q 258 481 258 560 l 258 283 q 300 162 258 204 q 417 119 342 119 m 417 -304 q 339 -279 368 -304 q 310 -210 310 -254 q 339 -141 310 -167 q 417 -115 368 -115 q 494 -141 465 -115 q 524 -210 524 -167 q 494 -279 524 -254 q 417 -304 465 -304 z "},"ờ":{"ha":833,"x_min":108,"x_max":767,"o":"m 417 -12 q 191 67 274 -12 q 108 283 108 147 l 108 481 q 191 697 108 617 q 417 776 274 776 q 588 736 515 776 l 596 736 q 644 785 644 736 l 644 889 l 767 889 l 767 781 q 744 699 767 733 q 682 647 722 664 q 726 481 726 576 l 726 283 q 643 67 726 147 q 417 -12 560 -12 m 417 119 q 534 162 492 119 q 576 283 576 204 l 576 481 q 534 602 576 560 q 417 644 492 644 q 300 602 342 644 q 258 481 258 560 l 258 283 q 300 162 258 204 q 417 119 342 119 m 344 896 l 183 1090 l 350 1090 l 500 896 l 344 896 z "},"ở":{"ha":833,"x_min":108,"x_max":767,"o":"m 417 -12 q 191 67 274 -12 q 108 283 108 147 l 108 481 q 191 697 108 617 q 417 776 274 776 q 588 736 515 776 l 596 736 q 644 785 644 736 l 644 889 l 767 889 l 767 781 q 744 699 767 733 q 682 647 722 664 q 726 481 726 576 l 726 283 q 643 67 726 147 q 417 -12 560 -12 m 417 119 q 534 162 492 119 q 576 283 576 204 l 576 481 q 534 602 576 560 q 417 644 492 644 q 300 602 342 644 q 258 481 258 560 l 258 283 q 300 162 258 204 q 417 119 342 119 m 339 896 l 407 982 q 428 1025 428 1007 q 385 1051 428 1051 l 274 1051 l 274 1150 l 419 1150 q 511 1121 476 1150 q 546 1042 546 1092 q 521 964 546 996 l 467 896 l 339 896 z "},"ỡ":{"ha":833,"x_min":108,"x_max":767,"o":"m 417 -12 q 191 67 274 -12 q 108 283 108 147 l 108 481 q 191 697 108 617 q 417 776 274 776 q 588 736 515 776 l 596 736 q 644 785 644 736 l 644 889 l 767 889 l 767 781 q 744 699 767 733 q 682 647 722 664 q 726 481 726 576 l 726 283 q 643 67 726 147 q 417 -12 560 -12 m 417 119 q 534 162 492 119 q 576 283 576 204 l 576 481 q 534 602 576 560 q 417 644 492 644 q 300 602 342 644 q 258 481 258 560 l 258 283 q 300 162 258 204 q 417 119 342 119 m 500 897 q 431 911 457 897 q 386 943 404 925 q 351 976 368 961 q 313 990 335 990 q 271 942 271 990 l 271 904 l 172 904 l 172 947 q 209 1051 172 1013 q 306 1090 246 1090 q 375 1076 349 1090 q 419 1043 401 1061 q 454 1011 438 1025 q 493 997 471 997 q 535 1042 535 997 l 535 1083 l 633 1083 l 633 1039 q 597 935 633 974 q 500 897 560 897 z "},"ő":{"ha":833,"x_min":108,"x_max":751,"o":"m 417 -12 q 191 67 274 -12 q 108 283 108 147 l 108 481 q 191 697 108 617 q 417 776 274 776 q 643 697 560 776 q 726 481 726 617 l 726 283 q 643 67 726 147 q 417 -12 560 -12 m 417 119 q 534 162 492 119 q 576 283 576 204 l 576 481 q 534 602 576 560 q 417 644 492 644 q 300 602 342 644 q 258 481 258 560 l 258 283 q 300 162 258 204 q 417 119 342 119 m 451 896 l 601 1090 l 751 1090 l 592 896 l 451 896 m 186 896 l 338 1090 l 486 1090 l 326 896 l 186 896 z "},"ō":{"ha":833,"x_min":108,"x_max":726,"o":"m 417 -12 q 191 67 274 -12 q 108 283 108 147 l 108 481 q 191 697 108 617 q 417 776 274 776 q 643 697 560 776 q 726 481 726 617 l 726 283 q 643 67 726 147 q 417 -12 560 -12 m 417 119 q 534 162 492 119 q 576 283 576 204 l 576 481 q 534 602 576 560 q 417 644 492 644 q 300 602 342 644 q 258 481 258 560 l 258 283 q 300 162 258 204 q 417 119 342 119 m 186 925 l 186 1043 l 647 1043 l 647 925 l 186 925 z "},"ǫ":{"ha":833,"x_min":111,"x_max":722,"o":"m 511 -292 q 385 -253 432 -292 q 338 -154 338 -214 q 360 -85 338 -121 q 435 -10 382 -50 q 417 -14 425 -14 q 193 66 275 -14 q 111 282 111 146 l 111 482 q 193 698 111 618 q 417 778 275 778 q 640 699 558 778 q 722 483 722 619 l 722 282 q 690 135 722 199 q 599 33 657 71 l 551 -7 q 472 -125 472 -72 q 492 -171 472 -153 q 544 -189 511 -189 l 632 -189 l 632 -292 l 511 -292 m 417 118 q 532 160 492 118 q 572 282 572 201 l 572 482 q 532 604 572 563 q 417 646 492 646 q 301 604 342 646 q 261 482 261 563 l 261 282 q 301 160 261 201 q 417 118 342 118 z "},"ø":{"ha":833,"x_min":44,"x_max":789,"o":"m 44 -42 l 154 114 q 111 282 111 185 l 111 482 q 193 698 111 618 q 417 778 275 778 q 593 735 519 778 l 653 819 l 789 819 l 675 658 q 722 483 722 586 l 722 282 q 640 66 722 146 q 417 -14 558 -14 q 233 33 308 -14 l 181 -42 l 44 -42 m 251 282 q 253 254 251 267 l 513 622 q 417 646 474 646 q 295 603 339 646 q 251 482 251 560 l 251 282 m 417 118 q 538 161 494 118 q 582 282 582 204 l 582 482 q 578 522 582 503 l 313 147 q 417 118 354 118 z "},"ǿ":{"ha":833,"x_min":44,"x_max":789,"o":"m 44 -42 l 154 114 q 111 282 111 185 l 111 482 q 193 698 111 618 q 417 778 275 778 q 593 735 519 778 l 653 819 l 789 819 l 675 658 q 722 483 722 586 l 722 282 q 640 66 722 146 q 417 -14 558 -14 q 233 33 308 -14 l 181 -42 l 44 -42 m 251 282 q 253 254 251 267 l 513 622 q 417 646 474 646 q 295 603 339 646 q 251 482 251 560 l 251 282 m 417 118 q 538 161 494 118 q 582 282 582 204 l 582 482 q 578 522 582 503 l 313 147 q 417 118 354 118 m 324 896 l 471 1090 l 632 1090 l 475 896 l 324 896 z "},"õ":{"ha":833,"x_min":108,"x_max":726,"o":"m 417 -12 q 191 67 274 -12 q 108 283 108 147 l 108 481 q 191 697 108 617 q 417 776 274 776 q 643 697 560 776 q 726 481 726 617 l 726 283 q 643 67 726 147 q 417 -12 560 -12 m 417 119 q 534 162 492 119 q 576 283 576 204 l 576 481 q 534 602 576 560 q 417 644 492 644 q 300 602 342 644 q 258 481 258 560 l 258 283 q 300 162 258 204 q 417 119 342 119 m 514 897 q 444 911 471 897 q 400 943 418 925 q 365 976 382 961 q 326 990 349 990 q 285 942 285 990 l 285 904 l 186 904 l 186 947 q 223 1051 186 1013 q 319 1090 260 1090 q 389 1076 363 1090 q 433 1043 415 1061 q 468 1011 451 1025 q 507 997 485 997 q 549 1042 549 997 l 549 1083 l 647 1083 l 647 1039 q 610 935 647 974 q 514 897 574 897 z "},"œ":{"ha":833,"x_min":49,"x_max":785,"o":"m 250 -14 q 103 45 158 -14 q 49 204 49 104 l 49 560 q 103 719 49 660 q 250 778 158 778 q 340 760 304 778 q 392 717 375 743 q 413 669 410 692 l 421 669 q 440 717 422 692 q 493 760 458 743 q 583 778 528 778 q 730 719 675 778 q 785 560 785 660 l 785 347 l 482 347 l 482 204 q 505 129 482 157 q 567 101 528 101 q 624 122 601 101 q 651 181 647 143 l 782 181 q 718 39 772 92 q 583 -14 664 -14 q 493 3 528 -14 q 440 47 458 21 q 421 96 422 72 l 413 96 q 392 47 410 72 q 340 3 375 21 q 250 -14 304 -14 m 267 101 q 328 129 306 101 q 351 204 351 157 l 351 560 q 328 635 351 607 q 267 663 306 663 q 203 635 226 663 q 179 560 179 607 l 179 204 q 203 129 179 157 q 267 101 226 101 m 482 451 l 654 451 l 654 560 q 631 635 654 607 q 567 663 607 663 q 505 635 528 663 q 482 560 482 607 l 482 451 z "},"p":{"ha":833,"x_min":117,"x_max":726,"o":"m 117 -250 l 117 764 l 265 764 l 265 618 l 267 618 q 333 735 278 693 q 472 778 388 778 q 657 700 588 778 q 726 490 726 622 l 726 275 q 657 64 726 142 q 472 -14 588 -14 q 333 28 388 -14 q 268 146 278 71 l 263 146 l 267 -32 l 267 -250 l 117 -250 m 421 117 q 535 159 494 117 q 576 282 576 201 l 576 482 q 535 605 576 563 q 421 647 494 647 q 308 603 350 647 q 267 482 267 560 l 267 282 q 308 160 267 204 q 421 117 350 117 z "},"þ":{"ha":833,"x_min":113,"x_max":721,"o":"m 113 -236 l 113 1014 l 263 1014 l 263 796 l 258 618 l 263 618 q 328 735 274 693 q 467 778 382 778 q 651 700 582 778 q 721 489 721 622 l 721 274 q 651 63 721 140 q 467 -14 582 -14 q 328 28 382 -14 q 263 146 274 71 l 260 146 l 260 -236 l 113 -236 m 415 117 q 529 159 488 117 q 571 282 571 201 l 571 482 q 529 604 571 561 q 415 647 488 647 q 303 603 344 647 q 263 482 263 560 l 263 282 q 303 160 263 203 q 415 117 344 117 z "},"q":{"ha":833,"x_min":111,"x_max":717,"o":"m 567 -250 l 567 -32 l 571 146 l 565 146 q 500 28 554 71 q 363 -14 446 -14 q 178 64 246 -14 q 111 275 111 142 l 111 490 q 179 700 111 622 q 363 778 247 778 q 501 735 447 778 q 565 618 554 693 l 568 618 l 568 764 l 717 764 l 717 -250 l 567 -250 m 414 117 q 526 160 485 117 q 567 282 567 204 l 567 482 q 526 603 567 560 q 414 647 485 647 q 301 605 340 647 q 261 482 261 563 l 261 282 q 301 159 261 201 q 414 117 340 117 z "},"r":{"ha":833,"x_min":142,"x_max":757,"o":"m 142 0 l 142 764 l 286 764 l 286 622 q 492 778 322 778 q 685 702 614 778 q 757 494 757 626 l 757 443 l 603 443 l 603 482 q 562 608 603 564 q 447 651 521 651 q 333 607 374 651 q 292 482 292 563 l 292 0 l 142 0 z "},"ŕ":{"ha":833,"x_min":142,"x_max":757,"o":"m 142 0 l 142 764 l 286 764 l 286 622 q 492 778 322 778 q 685 702 614 778 q 757 494 757 626 l 757 443 l 603 443 l 603 482 q 562 608 603 564 q 447 651 521 651 q 333 607 374 651 q 292 482 292 563 l 292 0 l 142 0 m 351 896 l 499 1090 l 660 1090 l 503 896 l 351 896 z "},"ř":{"ha":833,"x_min":142,"x_max":757,"o":"m 142 0 l 142 764 l 286 764 l 286 622 q 492 778 322 778 q 685 702 614 778 q 757 494 757 626 l 757 443 l 603 443 l 603 482 q 562 608 603 564 q 447 651 521 651 q 333 607 374 651 q 292 482 292 563 l 292 0 l 142 0 m 375 896 l 183 1090 l 336 1090 l 446 985 l 551 1090 l 706 1090 l 514 896 l 375 896 z "},"ŗ":{"ha":833,"x_min":29,"x_max":757,"o":"m 142 0 l 142 764 l 286 764 l 286 622 q 492 778 322 778 q 685 702 614 778 q 757 494 757 626 l 757 443 l 603 443 l 603 482 q 562 608 603 564 q 447 651 521 651 q 333 607 374 651 q 292 482 292 563 l 292 0 l 142 0 m 29 -333 l 161 -132 l 325 -132 l 175 -333 l 29 -333 z "},"s":{"ha":833,"x_min":108,"x_max":735,"o":"m 390 -12 q 190 44 265 -12 q 108 199 115 101 l 258 199 q 299 138 264 160 q 390 115 333 115 l 450 115 q 553 142 518 115 q 588 215 588 169 q 464 319 588 300 l 365 335 q 185 404 243 353 q 128 556 128 456 q 197 718 128 660 q 400 776 265 776 l 453 776 q 644 722 572 776 q 725 575 715 667 l 575 575 q 538 630 569 610 q 453 650 506 650 l 400 650 q 305 626 335 650 q 275 554 275 601 q 301 492 275 513 q 383 463 326 471 l 485 447 q 674 374 614 426 q 735 219 735 321 q 663 49 735 110 q 450 -12 592 -12 l 390 -12 z "},"ś":{"ha":833,"x_min":108,"x_max":735,"o":"m 390 -12 q 190 44 265 -12 q 108 199 115 101 l 258 199 q 299 138 264 160 q 390 115 333 115 l 450 115 q 553 142 518 115 q 588 215 588 169 q 464 319 588 300 l 365 335 q 185 404 243 353 q 128 556 128 456 q 197 718 128 660 q 400 776 265 776 l 453 776 q 644 722 572 776 q 725 575 715 667 l 575 575 q 538 630 569 610 q 453 650 506 650 l 400 650 q 305 626 335 650 q 275 554 275 601 q 301 492 275 513 q 383 463 326 471 l 485 447 q 674 374 614 426 q 735 219 735 321 q 663 49 735 110 q 450 -12 592 -12 l 390 -12 m 324 896 l 471 1090 l 632 1090 l 475 896 l 324 896 z "},"š":{"ha":833,"x_min":108,"x_max":735,"o":"m 390 -12 q 190 44 265 -12 q 108 199 115 101 l 258 199 q 299 138 264 160 q 390 115 333 115 l 450 115 q 553 142 518 115 q 588 215 588 169 q 464 319 588 300 l 365 335 q 185 404 243 353 q 128 556 128 456 q 197 718 128 660 q 400 776 265 776 l 453 776 q 644 722 572 776 q 725 575 715 667 l 575 575 q 538 630 569 610 q 453 650 506 650 l 400 650 q 305 626 335 650 q 275 554 275 601 q 301 492 275 513 q 383 463 326 471 l 485 447 q 674 374 614 426 q 735 219 735 321 q 663 49 735 110 q 450 -12 592 -12 l 390 -12 m 347 896 l 156 1090 l 308 1090 l 418 985 l 524 1090 l 678 1090 l 486 896 l 347 896 z "},"ş":{"ha":833,"x_min":108,"x_max":735,"o":"m 293 -292 l 293 -208 l 394 -208 q 444 -192 425 -208 q 464 -158 464 -176 q 425 -114 464 -132 q 314 -96 386 -96 l 347 -10 q 178 56 240 0 q 108 199 115 111 l 258 199 q 299 138 264 160 q 390 115 333 115 l 450 115 q 553 142 518 115 q 588 215 588 169 q 464 319 588 300 l 365 335 q 185 404 243 353 q 128 556 128 456 q 197 718 128 660 q 400 776 265 776 l 453 776 q 644 722 572 776 q 725 575 715 667 l 575 575 q 538 630 569 610 q 453 650 506 650 l 400 650 q 305 626 335 650 q 275 554 275 601 q 301 492 275 513 q 383 463 326 471 l 485 447 q 674 374 614 426 q 735 219 735 321 q 663 49 735 110 q 450 -12 592 -12 l 433 -12 l 419 -50 q 499 -69 458 -54 q 567 -109 539 -83 q 596 -172 596 -135 q 548 -256 596 -221 q 421 -292 500 -292 l 293 -292 z "},"ŝ":{"ha":833,"x_min":108,"x_max":735,"o":"m 390 -12 q 190 44 265 -12 q 108 199 115 101 l 258 199 q 299 138 264 160 q 390 115 333 115 l 450 115 q 553 142 518 115 q 588 215 588 169 q 464 319 588 300 l 365 335 q 185 404 243 353 q 128 556 128 456 q 197 718 128 660 q 400 776 265 776 l 453 776 q 644 722 572 776 q 725 575 715 667 l 575 575 q 538 630 569 610 q 453 650 506 650 l 400 650 q 305 626 335 650 q 275 554 275 601 q 301 492 275 513 q 383 463 326 471 l 485 447 q 674 374 614 426 q 735 219 735 321 q 663 49 735 110 q 450 -12 592 -12 l 390 -12 m 156 896 l 347 1090 l 486 1090 l 678 896 l 525 896 l 415 1001 l 310 896 l 156 896 z "},"ș":{"ha":833,"x_min":108,"x_max":735,"o":"m 390 -12 q 190 44 265 -12 q 108 199 115 101 l 258 199 q 299 138 264 160 q 390 115 333 115 l 450 115 q 553 142 518 115 q 588 215 588 169 q 464 319 588 300 l 365 335 q 185 404 243 353 q 128 556 128 456 q 197 718 128 660 q 400 776 265 776 l 453 776 q 644 722 572 776 q 725 575 715 667 l 575 575 q 538 630 569 610 q 453 650 506 650 l 400 650 q 305 626 335 650 q 275 554 275 601 q 301 492 275 513 q 383 463 326 471 l 485 447 q 674 374 614 426 q 735 219 735 321 q 663 49 735 110 q 450 -12 592 -12 l 390 -12 m 258 -333 l 390 -132 l 554 -132 l 404 -333 l 258 -333 z "},"ß":{"ha":833,"x_min":114,"x_max":749,"o":"m 114 0 l 114 735 q 152 888 114 822 q 258 991 190 954 q 418 1028 326 1028 q 644 959 558 1028 q 729 765 729 890 q 686 622 729 681 q 565 542 643 563 q 699 453 650 519 q 749 289 749 386 q 710 139 749 204 q 601 37 671 74 q 436 0 531 0 l 350 0 l 350 132 l 425 132 q 548 177 503 132 q 593 297 593 222 q 548 415 593 372 q 425 458 503 458 l 363 458 l 363 581 l 422 581 q 534 624 493 581 q 575 736 575 668 q 533 853 575 811 q 418 896 490 896 q 301 853 344 896 q 258 735 258 810 l 258 0 l 114 0 z "},"ſ":{"ha":833,"x_min":217,"x_max":719,"o":"m 217 0 l 217 774 q 286 948 217 882 q 471 1014 356 1014 l 719 1014 l 719 882 l 475 882 q 397 852 426 882 q 367 774 367 822 l 367 0 l 217 0 z "},"t":{"ha":833,"x_min":68,"x_max":729,"o":"m 500 0 q 338 57 396 0 q 279 217 279 114 l 279 628 l 68 628 l 68 764 l 279 764 l 279 979 l 429 979 l 429 764 l 729 764 l 729 628 l 429 628 l 429 217 q 507 136 429 136 l 715 136 l 715 0 l 500 0 z "},"ŧ":{"ha":833,"x_min":68,"x_max":729,"o":"m 113 324 l 113 444 l 279 444 l 279 628 l 68 628 l 68 764 l 279 764 l 279 979 l 429 979 l 429 764 l 729 764 l 729 628 l 429 628 l 429 444 l 667 444 l 667 324 l 429 324 l 429 217 q 507 136 429 136 l 715 136 l 715 0 l 500 0 q 338 57 396 0 q 279 217 279 114 l 279 324 l 113 324 z "},"ť":{"ha":833,"x_min":68,"x_max":778,"o":"m 519 861 l 640 1078 l 778 1078 l 643 861 l 519 861 m 500 0 q 338 57 396 0 q 279 217 279 114 l 279 628 l 68 628 l 68 764 l 279 764 l 279 979 l 429 979 l 429 764 l 729 764 l 729 628 l 429 628 l 429 217 q 507 136 429 136 l 715 136 l 715 0 l 500 0 z "},"ţ":{"ha":833,"x_min":68,"x_max":729,"o":"m 363 -292 l 363 -208 l 464 -208 q 514 -192 494 -208 q 533 -158 533 -176 q 494 -114 533 -132 q 383 -96 456 -96 l 424 10 q 317 81 354 28 q 279 217 279 135 l 279 628 l 68 628 l 68 764 l 279 764 l 279 979 l 429 979 l 429 764 l 729 764 l 729 628 l 429 628 l 429 217 q 507 136 429 136 l 715 136 l 715 0 l 507 0 l 489 -50 q 568 -69 528 -54 q 637 -109 608 -83 q 665 -172 665 -135 q 617 -256 665 -221 q 490 -292 569 -292 l 363 -292 z "},"ț":{"ha":833,"x_min":68,"x_max":729,"o":"m 500 0 q 338 57 396 0 q 279 217 279 114 l 279 628 l 68 628 l 68 764 l 279 764 l 279 979 l 429 979 l 429 764 l 729 764 l 729 628 l 429 628 l 429 217 q 507 136 429 136 l 715 136 l 715 0 l 500 0 m 342 -333 l 474 -132 l 638 -132 l 488 -333 l 342 -333 z "},"u":{"ha":833,"x_min":114,"x_max":719,"o":"m 415 -14 q 195 66 276 -14 q 114 283 114 146 l 114 764 l 264 764 l 264 285 q 304 160 264 204 q 415 117 344 117 q 528 160 488 117 q 569 285 569 204 l 569 764 l 719 764 l 719 283 q 637 66 719 146 q 415 -14 554 -14 z "},"ú":{"ha":833,"x_min":114,"x_max":719,"o":"m 415 -14 q 195 66 276 -14 q 114 283 114 146 l 114 764 l 264 764 l 264 285 q 304 160 264 204 q 415 117 344 117 q 528 160 488 117 q 569 285 569 204 l 569 764 l 719 764 l 719 283 q 637 66 719 146 q 415 -14 554 -14 m 324 896 l 471 1090 l 632 1090 l 475 896 l 324 896 z "},"ŭ":{"ha":833,"x_min":114,"x_max":719,"o":"m 415 -14 q 195 66 276 -14 q 114 283 114 146 l 114 764 l 264 764 l 264 285 q 304 160 264 204 q 415 117 344 117 q 528 160 488 117 q 569 285 569 204 l 569 764 l 719 764 l 719 283 q 637 66 719 146 q 415 -14 554 -14 m 417 888 q 249 943 313 888 q 185 1090 185 999 l 301 1090 q 333 1010 301 1040 q 415 979 364 979 q 500 1010 468 979 q 532 1090 532 1040 l 650 1090 q 585 943 650 999 q 417 888 521 888 z "},"û":{"ha":833,"x_min":114,"x_max":719,"o":"m 415 -14 q 195 66 276 -14 q 114 283 114 146 l 114 764 l 264 764 l 264 285 q 304 160 264 204 q 415 117 344 117 q 528 160 488 117 q 569 285 569 204 l 569 764 l 719 764 l 719 283 q 637 66 719 146 q 415 -14 554 -14 m 156 896 l 347 1090 l 486 1090 l 678 896 l 525 896 l 415 1001 l 310 896 l 156 896 z "},"ü":{"ha":833,"x_min":114,"x_max":719,"o":"m 415 -14 q 195 66 276 -14 q 114 283 114 146 l 114 764 l 264 764 l 264 285 q 304 160 264 204 q 415 117 344 117 q 528 160 488 117 q 569 285 569 204 l 569 764 l 719 764 l 719 283 q 637 66 719 146 q 415 -14 554 -14 m 575 896 q 506 922 532 896 q 481 990 481 947 q 506 1060 481 1035 q 575 1086 532 1086 q 645 1060 619 1086 q 671 990 671 1035 q 645 922 671 947 q 575 896 619 896 m 258 896 q 188 922 214 896 q 163 990 163 947 q 188 1060 163 1035 q 258 1086 214 1086 q 328 1060 301 1086 q 354 990 354 1035 q 328 922 354 947 q 258 896 301 896 z "},"ụ":{"ha":833,"x_min":114,"x_max":719,"o":"m 415 -14 q 195 66 276 -14 q 114 283 114 146 l 114 764 l 264 764 l 264 285 q 304 160 264 204 q 415 117 344 117 q 528 160 488 117 q 569 285 569 204 l 569 764 l 719 764 l 719 283 q 637 66 719 146 q 415 -14 554 -14 m 417 -304 q 339 -279 368 -304 q 310 -210 310 -254 q 339 -141 310 -167 q 417 -115 368 -115 q 494 -141 465 -115 q 524 -210 524 -167 q 494 -279 524 -254 q 417 -304 465 -304 z "},"ù":{"ha":833,"x_min":114,"x_max":719,"o":"m 415 -14 q 195 66 276 -14 q 114 283 114 146 l 114 764 l 264 764 l 264 285 q 304 160 264 204 q 415 117 344 117 q 528 160 488 117 q 569 285 569 204 l 569 764 l 719 764 l 719 283 q 637 66 719 146 q 415 -14 554 -14 m 358 896 l 197 1090 l 364 1090 l 514 896 l 358 896 z "},"ủ":{"ha":833,"x_min":114,"x_max":719,"o":"m 415 -14 q 195 66 276 -14 q 114 283 114 146 l 114 764 l 264 764 l 264 285 q 304 160 264 204 q 415 117 344 117 q 528 160 488 117 q 569 285 569 204 l 569 764 l 719 764 l 719 283 q 637 66 719 146 q 415 -14 554 -14 m 353 896 l 421 982 q 442 1025 442 1007 q 399 1051 442 1051 l 288 1051 l 288 1150 l 433 1150 q 525 1121 490 1150 q 560 1042 560 1092 q 535 964 560 996 l 481 896 l 353 896 z "},"ư":{"ha":833,"x_min":114,"x_max":849,"o":"m 114 282 l 114 764 l 264 764 l 264 281 q 302 160 264 203 q 407 117 340 117 q 514 160 475 117 q 553 281 553 203 l 553 764 l 676 764 q 725 813 725 764 l 725 917 l 849 917 l 849 808 q 812 700 849 740 q 703 660 775 660 l 703 282 q 622 65 703 144 q 407 -14 542 -14 q 193 65 272 -14 q 114 282 114 144 z "},"ứ":{"ha":833,"x_min":114,"x_max":849,"o":"m 114 282 l 114 764 l 264 764 l 264 281 q 302 160 264 203 q 407 117 340 117 q 514 160 475 117 q 553 281 553 203 l 553 764 l 676 764 q 725 813 725 764 l 725 917 l 849 917 l 849 808 q 812 700 849 740 q 703 660 775 660 l 703 282 q 622 65 703 144 q 407 -14 542 -14 q 193 65 272 -14 q 114 282 114 144 m 315 896 l 463 1090 l 624 1090 l 467 896 l 315 896 z "},"ự":{"ha":833,"x_min":114,"x_max":849,"o":"m 114 282 l 114 764 l 264 764 l 264 281 q 302 160 264 203 q 407 117 340 117 q 514 160 475 117 q 553 281 553 203 l 553 764 l 676 764 q 725 813 725 764 l 725 917 l 849 917 l 849 808 q 812 700 849 740 q 703 660 775 660 l 703 282 q 622 65 703 144 q 407 -14 542 -14 q 193 65 272 -14 q 114 282 114 144 m 407 -304 q 329 -279 358 -304 q 300 -210 300 -254 q 329 -141 300 -167 q 407 -115 358 -115 q 485 -141 456 -115 q 514 -210 514 -167 q 485 -279 514 -254 q 407 -304 456 -304 z "},"ừ":{"ha":833,"x_min":114,"x_max":849,"o":"m 114 282 l 114 764 l 264 764 l 264 281 q 302 160 264 203 q 407 117 340 117 q 514 160 475 117 q 553 281 553 203 l 553 764 l 676 764 q 725 813 725 764 l 725 917 l 849 917 l 849 808 q 812 700 849 740 q 703 660 775 660 l 703 282 q 622 65 703 144 q 407 -14 542 -14 q 193 65 272 -14 q 114 282 114 144 m 350 896 l 189 1090 l 356 1090 l 506 896 l 350 896 z "},"ử":{"ha":833,"x_min":114,"x_max":849,"o":"m 114 282 l 114 764 l 264 764 l 264 281 q 302 160 264 203 q 407 117 340 117 q 514 160 475 117 q 553 281 553 203 l 553 764 l 676 764 q 725 813 725 764 l 725 917 l 849 917 l 849 808 q 812 700 849 740 q 703 660 775 660 l 703 282 q 622 65 703 144 q 407 -14 542 -14 q 193 65 272 -14 q 114 282 114 144 m 344 896 l 413 982 q 433 1025 433 1007 q 390 1051 433 1051 l 279 1051 l 279 1150 l 425 1150 q 517 1121 482 1150 q 551 1042 551 1092 q 526 964 551 996 l 472 896 l 344 896 z "},"ữ":{"ha":833,"x_min":114,"x_max":849,"o":"m 114 282 l 114 764 l 264 764 l 264 281 q 302 160 264 203 q 407 117 340 117 q 514 160 475 117 q 553 281 553 203 l 553 764 l 676 764 q 725 813 725 764 l 725 917 l 849 917 l 849 808 q 812 700 849 740 q 703 660 775 660 l 703 282 q 622 65 703 144 q 407 -14 542 -14 q 193 65 272 -14 q 114 282 114 144 m 506 897 q 436 911 463 897 q 392 943 410 925 q 357 976 374 961 q 318 990 340 990 q 276 942 276 990 l 276 904 l 178 904 l 178 947 q 215 1051 178 1013 q 311 1090 251 1090 q 381 1076 354 1090 q 425 1043 407 1061 q 460 1011 443 1025 q 499 997 476 997 q 540 1042 540 997 l 540 1083 l 639 1083 l 639 1039 q 602 935 639 974 q 506 897 565 897 z "},"ű":{"ha":833,"x_min":114,"x_max":751,"o":"m 415 -14 q 195 66 276 -14 q 114 283 114 146 l 114 764 l 264 764 l 264 285 q 304 160 264 204 q 415 117 344 117 q 528 160 488 117 q 569 285 569 204 l 569 764 l 719 764 l 719 283 q 637 66 719 146 q 415 -14 554 -14 m 451 896 l 601 1090 l 751 1090 l 592 896 l 451 896 m 186 896 l 338 1090 l 486 1090 l 326 896 l 186 896 z "},"ū":{"ha":833,"x_min":114,"x_max":719,"o":"m 415 -14 q 195 66 276 -14 q 114 283 114 146 l 114 764 l 264 764 l 264 285 q 304 160 264 204 q 415 117 344 117 q 528 160 488 117 q 569 285 569 204 l 569 764 l 719 764 l 719 283 q 637 66 719 146 q 415 -14 554 -14 m 186 925 l 186 1043 l 647 1043 l 647 925 l 186 925 z "},"ų":{"ha":833,"x_min":114,"x_max":719,"o":"m 511 -292 q 385 -253 432 -292 q 338 -154 338 -214 q 360 -85 338 -121 q 435 -10 382 -50 q 417 -14 425 -14 q 194 66 275 -14 q 114 282 114 146 l 114 764 l 264 764 l 264 282 q 417 118 264 118 q 569 282 569 118 l 569 764 l 719 764 l 719 282 q 599 33 719 110 l 551 -7 q 472 -125 472 -72 q 492 -171 472 -153 q 544 -189 511 -189 l 632 -189 l 632 -292 l 511 -292 z "},"ů":{"ha":833,"x_min":114,"x_max":719,"o":"m 415 -14 q 195 66 276 -14 q 114 283 114 146 l 114 764 l 264 764 l 264 285 q 304 160 264 204 q 415 117 344 117 q 528 160 488 117 q 569 285 569 204 l 569 764 l 719 764 l 719 283 q 637 66 719 146 q 415 -14 554 -14 m 417 840 q 290 885 338 840 q 242 1004 242 931 q 290 1123 242 1078 q 417 1168 338 1168 q 544 1123 496 1168 q 592 1004 592 1078 q 544 885 592 931 q 417 840 496 840 m 417 921 q 477 944 454 921 q 500 1004 500 967 q 477 1065 500 1042 q 417 1089 454 1089 q 356 1065 379 1089 q 333 1004 333 1042 q 356 944 333 967 q 417 921 379 921 z "},"ũ":{"ha":833,"x_min":114,"x_max":719,"o":"m 415 -14 q 195 66 276 -14 q 114 283 114 146 l 114 764 l 264 764 l 264 285 q 304 160 264 204 q 415 117 344 117 q 528 160 488 117 q 569 285 569 204 l 569 764 l 719 764 l 719 283 q 637 66 719 146 q 415 -14 554 -14 m 514 897 q 444 911 471 897 q 400 943 418 925 q 365 976 382 961 q 326 990 349 990 q 285 942 285 990 l 285 904 l 186 904 l 186 947 q 223 1051 186 1013 q 319 1090 260 1090 q 389 1076 363 1090 q 433 1043 415 1061 q 468 1011 451 1025 q 507 997 485 997 q 549 1042 549 997 l 549 1083 l 647 1083 l 647 1039 q 610 935 647 974 q 514 897 574 897 z "},"v":{"ha":833,"x_min":65,"x_max":768,"o":"m 318 0 l 65 764 l 222 764 l 379 275 q 403 188 393 232 q 419 119 414 144 q 438 188 426 144 q 463 275 449 232 l 615 764 l 768 764 l 515 0 l 318 0 z "},"w":{"ha":833,"x_min":39,"x_max":796,"o":"m 157 0 l 39 764 l 167 764 l 236 260 q 245 182 240 225 q 254 113 250 139 q 263 182 257 139 q 275 260 269 225 l 354 764 l 481 764 l 558 260 q 570 182 564 225 q 579 113 576 139 q 589 182 583 139 q 600 260 594 225 l 672 764 l 796 764 l 672 0 l 514 0 l 439 499 q 426 581 433 538 q 417 651 419 625 q 406 581 413 625 q 394 499 400 538 l 317 0 l 157 0 z "},"ẃ":{"ha":833,"x_min":39,"x_max":796,"o":"m 157 0 l 39 764 l 167 764 l 236 260 q 245 182 240 225 q 254 113 250 139 q 263 182 257 139 q 275 260 269 225 l 354 764 l 481 764 l 558 260 q 570 182 564 225 q 579 113 576 139 q 589 182 583 139 q 600 260 594 225 l 672 764 l 796 764 l 672 0 l 514 0 l 439 499 q 426 581 433 538 q 417 651 419 625 q 406 581 413 625 q 394 499 400 538 l 317 0 l 157 0 m 324 896 l 471 1090 l 632 1090 l 475 896 l 324 896 z "},"ŵ":{"ha":833,"x_min":39,"x_max":796,"o":"m 157 0 l 39 764 l 167 764 l 236 260 q 245 182 240 225 q 254 113 250 139 q 263 182 257 139 q 275 260 269 225 l 354 764 l 481 764 l 558 260 q 570 182 564 225 q 579 113 576 139 q 589 182 583 139 q 600 260 594 225 l 672 764 l 796 764 l 672 0 l 514 0 l 439 499 q 426 581 433 538 q 417 651 419 625 q 406 581 413 625 q 394 499 400 538 l 317 0 l 157 0 m 156 896 l 347 1090 l 486 1090 l 678 896 l 525 896 l 415 1001 l 310 896 l 156 896 z "},"ẅ":{"ha":833,"x_min":39,"x_max":796,"o":"m 157 0 l 39 764 l 167 764 l 236 260 q 245 182 240 225 q 254 113 250 139 q 263 182 257 139 q 275 260 269 225 l 354 764 l 481 764 l 558 260 q 570 182 564 225 q 579 113 576 139 q 589 182 583 139 q 600 260 594 225 l 672 764 l 796 764 l 672 0 l 514 0 l 439 499 q 426 581 433 538 q 417 651 419 625 q 406 581 413 625 q 394 499 400 538 l 317 0 l 157 0 m 575 896 q 506 922 532 896 q 481 990 481 947 q 506 1060 481 1035 q 575 1086 532 1086 q 645 1060 619 1086 q 671 990 671 1035 q 645 922 671 947 q 575 896 619 896 m 258 896 q 188 922 214 896 q 163 990 163 947 q 188 1060 163 1035 q 258 1086 214 1086 q 328 1060 301 1086 q 354 990 354 1035 q 328 922 354 947 q 258 896 301 896 z "},"ẁ":{"ha":833,"x_min":39,"x_max":796,"o":"m 157 0 l 39 764 l 167 764 l 236 260 q 245 182 240 225 q 254 113 250 139 q 263 182 257 139 q 275 260 269 225 l 354 764 l 481 764 l 558 260 q 570 182 564 225 q 579 113 576 139 q 589 182 583 139 q 600 260 594 225 l 672 764 l 796 764 l 672 0 l 514 0 l 439 499 q 426 581 433 538 q 417 651 419 625 q 406 581 413 625 q 394 499 400 538 l 317 0 l 157 0 m 358 896 l 197 1090 l 364 1090 l 514 896 l 358 896 z "},"x":{"ha":833,"x_min":60,"x_max":774,"o":"m 60 0 l 328 394 l 76 764 l 249 764 l 383 553 q 403 517 393 536 q 418 486 413 499 q 431 517 422 499 q 451 553 440 536 l 586 764 l 758 764 l 507 393 l 774 0 l 601 0 l 453 229 q 433 267 443 246 q 418 300 424 288 q 401 267 411 288 q 381 229 392 246 l 231 0 l 60 0 z "},"y":{"ha":833,"x_min":64,"x_max":769,"o":"m 239 -250 l 349 44 l 64 764 l 229 764 l 389 333 q 409 267 399 306 q 425 203 419 228 q 440 267 431 228 q 460 333 450 306 l 610 764 l 769 764 l 397 -250 l 239 -250 z "},"ý":{"ha":833,"x_min":64,"x_max":769,"o":"m 239 -250 l 349 44 l 64 764 l 229 764 l 389 333 q 409 267 399 306 q 425 203 419 228 q 440 267 431 228 q 460 333 450 306 l 610 764 l 769 764 l 397 -250 l 239 -250 m 324 896 l 471 1090 l 632 1090 l 475 896 l 324 896 z "},"ŷ":{"ha":833,"x_min":64,"x_max":769,"o":"m 239 -250 l 349 44 l 64 764 l 229 764 l 389 333 q 409 267 399 306 q 425 203 419 228 q 440 267 431 228 q 460 333 450 306 l 610 764 l 769 764 l 397 -250 l 239 -250 m 156 896 l 347 1090 l 486 1090 l 678 896 l 525 896 l 415 1001 l 310 896 l 156 896 z "},"ÿ":{"ha":833,"x_min":64,"x_max":769,"o":"m 239 -250 l 349 44 l 64 764 l 229 764 l 389 333 q 409 267 399 306 q 425 203 419 228 q 440 267 431 228 q 460 333 450 306 l 610 764 l 769 764 l 397 -250 l 239 -250 m 575 896 q 506 922 532 896 q 481 990 481 947 q 506 1060 481 1035 q 575 1086 532 1086 q 645 1060 619 1086 q 671 990 671 1035 q 645 922 671 947 q 575 896 619 896 m 258 896 q 188 922 214 896 q 163 990 163 947 q 188 1060 163 1035 q 258 1086 214 1086 q 328 1060 301 1086 q 354 990 354 1035 q 328 922 354 947 q 258 896 301 896 z "},"ỵ":{"ha":833,"x_min":64,"x_max":769,"o":"m 239 -250 l 349 44 l 64 764 l 229 764 l 389 333 q 409 267 399 306 q 425 203 419 228 q 440 267 431 228 q 460 333 450 306 l 610 764 l 769 764 l 397 -250 l 239 -250 m 656 -304 q 578 -279 607 -304 q 549 -210 549 -254 q 578 -141 549 -167 q 656 -115 607 -115 q 733 -141 704 -115 q 763 -210 763 -167 q 733 -279 763 -254 q 656 -304 704 -304 z "},"ỳ":{"ha":833,"x_min":64,"x_max":769,"o":"m 239 -250 l 349 44 l 64 764 l 229 764 l 389 333 q 409 267 399 306 q 425 203 419 228 q 440 267 431 228 q 460 333 450 306 l 610 764 l 769 764 l 397 -250 l 239 -250 m 358 896 l 197 1090 l 364 1090 l 514 896 l 358 896 z "},"ỷ":{"ha":833,"x_min":64,"x_max":769,"o":"m 239 -250 l 349 44 l 64 764 l 229 764 l 389 333 q 409 267 399 306 q 425 203 419 228 q 440 267 431 228 q 460 333 450 306 l 610 764 l 769 764 l 397 -250 l 239 -250 m 353 896 l 421 982 q 442 1025 442 1007 q 399 1051 442 1051 l 288 1051 l 288 1150 l 433 1150 q 525 1121 490 1150 q 560 1042 560 1092 q 535 964 560 996 l 481 896 l 353 896 z "},"ȳ":{"ha":833,"x_min":64,"x_max":769,"o":"m 239 -250 l 349 44 l 64 764 l 229 764 l 389 333 q 409 267 399 306 q 425 203 419 228 q 440 267 431 228 q 460 333 450 306 l 610 764 l 769 764 l 397 -250 l 239 -250 m 186 925 l 186 1043 l 647 1043 l 647 925 l 186 925 z "},"ỹ":{"ha":833,"x_min":64,"x_max":769,"o":"m 239 -250 l 349 44 l 64 764 l 229 764 l 389 333 q 409 267 399 306 q 425 203 419 228 q 440 267 431 228 q 460 333 450 306 l 610 764 l 769 764 l 397 -250 l 239 -250 m 514 897 q 444 911 471 897 q 400 943 418 925 q 365 976 382 961 q 326 990 349 990 q 285 942 285 990 l 285 904 l 186 904 l 186 947 q 223 1051 186 1013 q 319 1090 260 1090 q 389 1076 363 1090 q 433 1043 415 1061 q 468 1011 451 1025 q 507 997 485 997 q 549 1042 549 997 l 549 1083 l 647 1083 l 647 1039 q 610 935 647 974 q 514 897 574 897 z "},"z":{"ha":833,"x_min":117,"x_max":717,"o":"m 117 0 l 117 142 l 529 631 l 129 631 l 129 764 l 701 764 l 701 622 l 283 133 l 717 133 l 717 0 l 117 0 z "},"ź":{"ha":833,"x_min":117,"x_max":717,"o":"m 117 0 l 117 142 l 529 631 l 129 631 l 129 764 l 701 764 l 701 622 l 283 133 l 717 133 l 717 0 l 117 0 m 324 896 l 471 1090 l 632 1090 l 475 896 l 324 896 z "},"ž":{"ha":833,"x_min":117,"x_max":717,"o":"m 117 0 l 117 142 l 529 631 l 129 631 l 129 764 l 701 764 l 701 622 l 283 133 l 717 133 l 717 0 l 117 0 m 347 896 l 156 1090 l 308 1090 l 418 985 l 524 1090 l 678 1090 l 486 896 l 347 896 z "},"ż":{"ha":833,"x_min":117,"x_max":717,"o":"m 117 0 l 117 142 l 529 631 l 129 631 l 129 764 l 701 764 l 701 622 l 283 133 l 717 133 l 717 0 l 117 0 m 417 896 q 339 922 368 896 q 310 990 310 947 q 339 1060 310 1035 q 417 1086 368 1086 q 494 1060 465 1086 q 524 990 524 1035 q 494 922 524 947 q 417 896 465 896 z "},"ª":{"ha":833,"x_min":239,"x_max":588,"o":"m 376 625 q 276 658 314 625 q 239 746 239 690 q 279 832 239 800 q 389 864 319 864 l 506 864 l 506 903 q 483 947 506 931 q 424 964 461 964 q 368 950 390 964 q 342 915 346 936 l 260 915 q 312 998 268 968 q 424 1028 356 1028 q 543 994 499 1028 q 588 903 588 961 l 588 632 l 510 632 l 510 708 l 506 708 q 456 647 490 669 q 376 625 422 625 m 399 685 q 477 708 449 685 q 506 771 506 731 l 506 804 l 389 804 q 321 746 321 804 q 342 701 321 718 q 399 685 364 685 z "},"º":{"ha":833,"x_min":249,"x_max":585,"o":"m 417 621 q 295 663 342 621 q 249 772 249 706 l 249 871 q 295 981 249 939 q 417 1024 342 1024 q 538 981 492 1024 q 585 871 585 939 l 585 772 q 538 663 585 706 q 417 621 492 621 m 417 689 q 479 712 456 689 q 503 772 503 735 l 503 871 q 479 932 503 908 q 417 956 456 956 q 354 932 378 956 q 331 871 331 908 l 331 772 q 354 712 331 735 q 417 689 378 689 z "},"А":{"ha":833,"x_min":60,"x_max":775,"o":"m 60 0 l 318 1014 l 515 1014 l 775 0 l 622 0 l 561 257 l 274 257 l 213 0 l 60 0 m 301 382 l 532 382 l 463 674 q 433 808 444 751 q 417 888 421 865 q 401 808 413 865 q 371 675 390 751 l 301 382 z "},"Б":{"ha":833,"x_min":119,"x_max":749,"o":"m 119 0 l 119 1014 l 706 1014 l 706 876 l 267 876 l 267 601 l 425 601 q 597 564 525 601 q 709 459 669 526 q 749 301 749 392 q 709 142 749 210 q 597 38 669 75 q 426 0 525 0 l 119 0 m 267 132 l 426 132 q 550 177 504 132 q 596 300 596 222 q 550 424 596 379 q 426 469 504 469 l 267 469 l 267 132 z "},"В":{"ha":833,"x_min":118,"x_max":749,"o":"m 118 0 l 118 1014 l 417 1014 q 642 944 560 1014 q 725 753 725 874 q 680 609 725 667 q 558 535 635 551 q 697 451 644 517 q 749 285 749 386 q 665 77 749 154 q 436 0 581 0 l 118 0 m 264 589 l 415 589 q 533 628 489 589 q 576 738 576 668 q 533 845 576 806 q 417 885 490 885 l 264 885 l 264 589 m 264 129 l 424 129 q 551 173 504 129 q 599 292 599 217 q 551 417 599 369 q 424 464 504 464 l 264 464 l 264 129 z "},"Г":{"ha":833,"x_min":147,"x_max":746,"o":"m 147 0 l 147 1014 l 746 1014 l 746 876 l 297 876 l 297 0 l 147 0 z "},"Ѓ":{"ha":833,"x_min":147,"x_max":746,"o":"m 147 0 l 147 1014 l 746 1014 l 746 876 l 297 876 l 297 0 l 147 0 m 324 1125 l 471 1319 l 632 1319 l 475 1125 l 324 1125 z "},"Ґ":{"ha":833,"x_min":147,"x_max":746,"o":"m 147 0 l 147 1014 l 603 1014 l 603 1146 l 746 1146 l 746 876 l 297 876 l 297 0 l 147 0 z "},"Д":{"ha":833,"x_min":33,"x_max":800,"o":"m 33 -194 l 33 128 l 90 128 q 138 251 113 168 q 165 432 164 333 l 175 1014 l 707 1014 l 707 128 l 800 128 l 800 -194 l 664 -194 l 664 0 l 169 0 l 169 -194 l 33 -194 m 243 128 l 561 128 l 561 883 l 315 883 l 310 432 q 286 246 308 328 q 243 128 264 164 z "},"Е":{"ha":833,"x_min":131,"x_max":726,"o":"m 131 0 l 131 1014 l 726 1014 l 726 881 l 278 881 l 278 593 l 678 593 l 678 461 l 278 461 l 278 133 l 726 133 l 726 0 l 131 0 z "},"Ё":{"ha":833,"x_min":131,"x_max":726,"o":"m 131 0 l 131 1014 l 726 1014 l 726 881 l 278 881 l 278 593 l 678 593 l 678 461 l 278 461 l 278 133 l 726 133 l 726 0 l 131 0 m 603 1129 q 534 1154 560 1129 q 508 1222 508 1179 q 534 1292 508 1267 q 603 1318 560 1318 q 673 1292 647 1318 q 699 1222 699 1267 q 673 1154 699 1179 q 603 1129 647 1129 m 286 1129 q 216 1154 242 1129 q 190 1222 190 1179 q 216 1292 190 1267 q 286 1318 242 1318 q 356 1292 329 1318 q 382 1222 382 1267 q 356 1154 382 1179 q 286 1129 329 1129 z "},"Ж":{"ha":833,"x_min":15,"x_max":818,"o":"m 15 0 l 183 519 l 28 1014 l 169 1014 l 304 560 l 358 560 l 358 1014 l 474 1014 l 474 560 l 529 560 l 663 1014 l 804 1014 l 650 519 l 818 0 l 678 0 l 532 475 l 474 475 l 476 0 l 360 0 l 358 475 l 300 475 l 156 0 l 15 0 z "},"З":{"ha":833,"x_min":65,"x_max":749,"o":"m 404 -14 q 228 21 304 -14 q 110 119 153 56 q 65 268 67 183 l 215 268 q 270 158 219 199 q 404 118 321 118 q 543 163 492 118 q 594 285 594 208 q 544 408 594 363 q 404 454 493 454 l 274 454 l 274 590 l 406 590 q 529 633 485 590 q 574 744 574 675 q 528 856 574 815 q 406 896 483 896 q 284 855 331 896 q 232 743 238 814 l 82 743 q 128 893 86 829 q 244 992 171 957 q 411 1028 317 1028 q 638 956 553 1028 q 724 765 724 885 q 677 618 724 678 q 549 539 631 558 q 694 453 640 519 q 749 289 749 388 q 706 131 749 199 q 585 24 663 63 q 404 -14 508 -14 z "},"И":{"ha":833,"x_min":113,"x_max":721,"o":"m 113 0 l 113 1014 l 253 1014 l 253 482 q 250 374 253 432 q 244 263 247 317 q 238 171 240 208 l 532 1014 l 721 1014 l 721 0 l 582 0 l 582 524 q 584 633 582 574 q 590 749 586 693 q 597 843 594 804 l 303 0 l 113 0 z "},"Й":{"ha":833,"x_min":113,"x_max":721,"o":"m 113 0 l 113 1014 l 253 1014 l 253 482 q 250 374 253 432 q 244 263 247 317 q 238 171 240 208 l 532 1014 l 721 1014 l 721 0 l 582 0 l 582 524 q 584 633 582 574 q 590 749 586 693 q 597 843 594 804 l 303 0 l 113 0 m 417 1117 q 249 1172 313 1117 q 185 1319 185 1228 l 301 1319 q 333 1239 301 1269 q 415 1208 364 1208 q 500 1239 468 1208 q 532 1319 532 1269 l 650 1319 q 585 1172 650 1228 q 417 1117 521 1117 z "},"К":{"ha":833,"x_min":117,"x_max":785,"o":"m 117 0 l 117 1014 l 267 1014 l 267 592 l 401 592 l 608 1014 l 772 1014 l 533 528 l 785 0 l 615 0 l 399 457 l 267 457 l 267 0 l 117 0 z "},"Ќ":{"ha":833,"x_min":117,"x_max":785,"o":"m 117 0 l 117 1014 l 267 1014 l 267 592 l 401 592 l 608 1014 l 772 1014 l 533 528 l 785 0 l 615 0 l 399 457 l 267 457 l 267 0 l 117 0 m 324 1125 l 471 1319 l 632 1319 l 475 1125 l 324 1125 z "},"Л":{"ha":833,"x_min":26,"x_max":714,"o":"m 26 -7 l 26 131 l 56 131 q 135 181 110 131 q 163 343 161 231 l 174 1014 l 714 1014 l 714 0 l 564 0 l 564 876 l 322 876 l 313 343 q 65 -7 307 -7 l 26 -7 z "},"М":{"ha":833,"x_min":92,"x_max":742,"o":"m 92 0 l 92 1014 l 276 1014 l 381 689 q 405 601 394 642 q 419 538 415 560 q 433 601 424 560 q 457 690 443 643 l 557 1014 l 742 1014 l 742 0 l 600 0 l 600 342 q 603 486 600 407 q 611 647 606 565 q 623 803 617 729 q 636 933 629 878 l 485 440 l 349 440 l 196 933 q 208 808 201 879 q 221 656 215 736 q 231 494 226 575 q 235 342 235 413 l 235 0 l 92 0 z "},"Н":{"ha":833,"x_min":118,"x_max":715,"o":"m 118 0 l 118 1014 l 268 1014 l 268 594 l 565 594 l 565 1014 l 715 1014 l 715 0 l 565 0 l 565 456 l 268 456 l 268 0 l 118 0 z "},"О":{"ha":833,"x_min":111,"x_max":722,"o":"m 417 -14 q 193 66 275 -14 q 111 282 111 146 l 111 732 q 193 948 111 868 q 417 1028 275 1028 q 640 949 558 1028 q 722 733 722 869 l 722 282 q 640 66 722 146 q 417 -14 558 -14 m 417 119 q 532 161 492 119 q 572 282 572 203 l 572 732 q 533 853 572 811 q 417 894 493 894 q 301 853 340 894 q 261 732 261 811 l 261 282 q 301 161 261 203 q 417 119 342 119 z "},"П":{"ha":833,"x_min":119,"x_max":714,"o":"m 119 0 l 119 1014 l 714 1014 l 714 0 l 564 0 l 564 876 l 269 876 l 269 0 l 119 0 z "},"Р":{"ha":833,"x_min":117,"x_max":772,"o":"m 117 0 l 117 1014 l 449 1014 q 620 976 547 1014 q 733 870 693 939 q 772 708 772 801 q 732 547 772 615 q 619 440 692 478 q 449 403 547 403 l 267 403 l 267 0 l 117 0 m 267 538 l 449 538 q 573 584 526 538 q 619 708 619 631 q 573 833 619 786 q 449 879 526 879 l 267 879 l 267 538 z "},"С":{"ha":833,"x_min":111,"x_max":732,"o":"m 422 -14 q 195 66 279 -14 q 111 282 111 146 l 111 732 q 195 949 111 869 q 422 1028 279 1028 q 648 948 564 1028 q 732 732 732 868 l 582 732 q 540 853 582 811 q 422 894 497 894 q 303 853 346 894 q 261 733 261 811 l 261 282 q 303 161 261 203 q 422 119 346 119 q 540 161 497 119 q 582 282 582 203 l 732 282 q 648 66 732 146 q 422 -14 564 -14 z "},"Т":{"ha":833,"x_min":71,"x_max":764,"o":"m 342 0 l 342 876 l 71 876 l 71 1014 l 764 1014 l 764 876 l 492 876 l 492 0 l 342 0 z "},"У":{"ha":833,"x_min":60,"x_max":775,"o":"m 253 0 l 356 261 l 60 1014 l 222 1014 l 389 543 q 415 458 404 500 q 429 392 426 415 q 441 458 432 415 q 464 543 450 500 l 614 1014 l 775 1014 l 411 0 l 253 0 z "},"Ў":{"ha":833,"x_min":60,"x_max":775,"o":"m 253 0 l 356 261 l 60 1014 l 222 1014 l 389 543 q 415 458 404 500 q 429 392 426 415 q 441 458 432 415 q 464 543 450 500 l 614 1014 l 775 1014 l 411 0 l 253 0 m 417 1117 q 249 1172 313 1117 q 185 1319 185 1228 l 301 1319 q 333 1239 301 1269 q 415 1208 364 1208 q 500 1239 468 1208 q 532 1319 532 1269 l 650 1319 q 585 1172 650 1228 q 417 1117 521 1117 z "},"Ф":{"ha":833,"x_min":65,"x_max":768,"o":"m 351 -35 l 351 63 q 201 99 265 63 q 101 202 136 136 q 65 356 65 268 l 65 674 q 101 831 65 764 q 200 935 136 899 q 351 972 264 972 l 351 1069 l 482 1069 l 482 972 q 633 935 569 972 q 733 831 697 899 q 768 674 768 764 l 768 356 q 733 202 768 268 q 633 99 697 136 q 482 63 568 63 l 482 -35 l 351 -35 m 353 185 l 353 850 q 241 803 282 850 q 200 674 200 756 l 200 356 q 241 231 200 276 q 353 185 282 185 m 481 185 q 592 231 551 185 q 633 356 633 276 l 633 674 q 592 803 633 756 q 481 850 551 850 l 481 185 z "},"Х":{"ha":833,"x_min":47,"x_max":786,"o":"m 47 0 l 333 517 l 64 1014 l 233 1014 l 375 738 q 400 685 388 711 q 419 644 413 658 q 437 685 425 658 q 463 738 449 711 l 607 1014 l 769 1014 l 500 522 l 786 0 l 617 0 l 460 300 q 433 353 446 326 q 414 396 421 381 q 396 353 408 381 q 371 301 383 326 l 211 0 l 47 0 z "},"Ч":{"ha":833,"x_min":94,"x_max":713,"o":"m 563 0 l 563 388 q 497 378 543 383 q 385 374 451 374 q 173 453 251 374 q 94 668 94 533 l 94 1014 l 244 1014 l 244 672 q 290 553 244 597 q 414 508 336 508 q 510 513 472 508 q 563 522 549 518 l 563 1014 l 713 1014 l 713 0 l 563 0 z "},"Ц":{"ha":833,"x_min":119,"x_max":790,"o":"m 654 -194 l 654 0 l 119 0 l 119 1014 l 269 1014 l 269 136 l 536 136 l 536 1014 l 686 1014 l 686 136 l 790 136 l 790 -194 l 654 -194 z "},"Ш":{"ha":833,"x_min":79,"x_max":754,"o":"m 81 0 l 79 1014 l 213 1014 l 213 108 l 361 108 l 361 1014 l 475 1014 l 475 108 l 622 108 l 622 1014 l 754 1014 l 754 0 l 81 0 z "},"Щ":{"ha":833,"x_min":79,"x_max":804,"o":"m 672 -194 l 672 0 l 79 0 l 79 1014 l 204 1014 l 204 115 l 350 115 l 350 1014 l 460 1014 l 460 115 l 606 115 l 606 1014 l 731 1014 l 731 115 l 804 115 l 804 -194 l 672 -194 z "},"Џ":{"ha":833,"x_min":119,"x_max":714,"o":"m 342 -174 l 342 0 l 119 0 l 119 1014 l 269 1014 l 269 138 l 564 138 l 564 1014 l 714 1014 l 714 0 l 492 0 l 492 -174 l 342 -174 z "},"Ь":{"ha":833,"x_min":119,"x_max":772,"o":"m 119 0 l 119 1014 l 269 1014 l 269 604 l 450 604 q 619 566 547 604 q 732 460 692 528 q 772 301 772 393 q 732 143 772 211 q 619 38 692 75 q 450 0 547 0 l 119 0 m 269 133 l 446 133 q 572 180 524 133 q 619 301 619 226 q 572 424 619 378 q 446 469 524 469 l 269 469 l 269 133 z "},"Ъ":{"ha":833,"x_min":-7,"x_max":772,"o":"m 178 0 l 178 885 l -7 885 l -7 1014 l 328 1014 l 328 604 l 450 604 q 619 566 547 604 q 732 460 692 528 q 772 301 772 393 q 732 143 772 211 q 619 38 692 75 q 450 0 547 0 l 178 0 m 328 133 l 446 133 q 572 180 524 133 q 619 301 619 226 q 572 424 619 378 q 446 469 524 469 l 328 469 l 328 133 z "},"Ы":{"ha":833,"x_min":81,"x_max":754,"o":"m 81 0 l 81 1014 l 214 1014 l 214 604 l 264 604 q 461 533 389 604 q 533 339 533 461 l 533 263 q 462 70 533 140 q 264 0 390 0 l 81 0 m 619 0 l 619 1014 l 754 1014 l 754 0 l 619 0 m 214 125 l 264 125 q 365 162 329 125 q 400 264 400 199 l 400 339 q 365 442 400 406 q 264 479 329 479 l 214 479 l 214 125 z "},"Љ":{"ha":833,"x_min":-8,"x_max":810,"o":"m -8 -7 l -8 119 l 17 119 q 74 160 53 119 q 96 274 96 201 l 104 1014 l 515 1014 l 515 604 l 575 604 q 746 542 682 604 q 810 375 810 479 l 810 228 q 746 62 810 124 q 575 0 682 0 l 388 0 l 388 896 l 231 896 l 224 274 q 167 69 222 144 q 18 -7 111 -7 l -8 -7 m 515 119 l 575 119 q 653 149 624 119 q 682 228 682 178 l 682 375 q 653 455 682 425 q 575 485 624 485 l 515 485 l 515 119 z "},"Њ":{"ha":833,"x_min":68,"x_max":810,"o":"m 68 0 l 68 1014 l 196 1014 l 196 608 l 388 608 l 388 1014 l 515 1014 l 515 608 l 575 608 q 747 547 683 608 q 810 379 810 485 l 810 228 q 747 61 810 122 q 575 0 683 0 l 388 0 l 388 489 l 196 489 l 196 0 l 68 0 m 515 119 l 575 119 q 653 148 625 119 q 682 228 682 176 l 682 379 q 653 460 682 431 q 575 489 625 489 l 515 489 l 515 119 z "},"Ѕ":{"ha":833,"x_min":90,"x_max":744,"o":"m 421 -14 q 180 62 268 -14 q 90 268 92 138 l 240 268 q 288 159 240 199 q 422 119 336 119 q 549 158 503 119 q 594 265 594 197 q 563 363 594 321 q 474 421 531 404 l 347 458 q 174 567 235 490 q 114 751 114 644 q 151 897 114 835 q 258 994 189 960 q 422 1029 328 1029 q 645 953 561 1029 q 731 753 729 878 l 581 753 q 539 858 581 819 q 419 896 497 896 q 305 860 346 896 q 264 761 264 825 q 294 663 264 704 q 383 604 325 622 l 513 567 q 684 456 624 533 q 744 271 744 379 q 703 121 744 185 q 590 22 663 57 q 421 -14 518 -14 z "},"Є":{"ha":833,"x_min":113,"x_max":731,"o":"m 422 -14 q 196 66 279 -14 q 113 282 113 146 l 113 732 q 196 949 113 869 q 422 1028 279 1028 q 647 948 564 1028 q 731 732 731 868 l 581 732 q 539 853 581 811 q 422 896 497 896 q 304 853 346 896 q 263 733 263 811 l 263 579 l 567 579 l 567 443 l 263 443 l 263 282 q 304 160 263 203 q 422 118 346 118 q 539 160 497 118 q 581 282 581 203 l 731 282 q 647 66 731 146 q 422 -14 564 -14 z "},"Э":{"ha":833,"x_min":103,"x_max":721,"o":"m 411 -14 q 186 66 269 -14 q 103 282 103 146 l 253 282 q 294 160 253 203 q 411 118 336 118 q 529 160 488 118 q 571 282 571 203 l 571 443 l 267 443 l 267 579 l 571 579 l 571 733 q 529 853 571 811 q 411 896 488 896 q 294 853 336 896 q 253 732 253 811 l 103 732 q 186 948 103 868 q 411 1028 269 1028 q 638 949 554 1028 q 721 732 721 869 l 721 282 q 638 66 721 146 q 411 -14 554 -14 z "},"І":{"ha":833,"x_min":136,"x_max":699,"o":"m 136 0 l 136 133 l 340 133 l 340 881 l 136 881 l 136 1014 l 699 1014 l 699 881 l 493 881 l 493 133 l 699 133 l 699 0 l 136 0 z "},"Ї":{"ha":833,"x_min":136,"x_max":699,"o":"m 136 0 l 136 133 l 340 133 l 340 881 l 136 881 l 136 1014 l 699 1014 l 699 881 l 493 881 l 493 133 l 699 133 l 699 0 l 136 0 m 575 1129 q 506 1154 532 1129 q 481 1222 481 1179 q 506 1292 481 1267 q 575 1318 532 1318 q 645 1292 619 1318 q 671 1222 671 1267 q 645 1154 671 1179 q 575 1129 619 1129 m 258 1129 q 188 1154 214 1129 q 163 1222 163 1179 q 188 1292 163 1267 q 258 1318 214 1318 q 328 1292 301 1318 q 354 1222 354 1267 q 328 1154 354 1179 q 258 1129 301 1129 z "},"Ј":{"ha":833,"x_min":53,"x_max":699,"o":"m 375 -14 q 139 69 225 -14 q 53 296 53 153 l 203 296 q 248 165 203 211 q 375 118 293 118 q 502 165 456 118 q 549 294 549 211 l 549 876 l 264 876 l 264 1014 l 699 1014 l 699 294 q 612 69 699 151 q 375 -14 525 -14 z "},"Ћ":{"ha":833,"x_min":0,"x_max":760,"o":"m 149 0 l 149 879 l 0 879 l 0 1014 l 461 1014 l 461 879 l 299 879 l 299 560 l 319 582 q 536 688 419 688 q 699 617 638 688 q 760 428 760 546 l 760 0 l 610 0 l 610 407 q 500 560 610 560 q 356 482 429 560 l 299 422 l 299 0 l 149 0 z "},"Ю":{"ha":833,"x_min":75,"x_max":782,"o":"m 542 -14 q 375 56 436 -14 q 314 246 314 126 l 314 460 l 207 460 l 207 0 l 75 0 l 75 1014 l 207 1014 l 207 582 l 314 582 l 314 768 q 375 958 314 889 q 542 1028 436 1028 q 717 958 653 1028 q 782 768 782 888 l 782 246 q 717 56 782 126 q 542 -14 653 -14 m 542 108 q 622 143 593 108 q 650 242 650 178 l 650 772 q 622 871 650 836 q 542 906 593 906 q 462 871 490 906 q 433 772 433 836 l 433 242 q 462 143 433 178 q 542 108 490 108 z "},"Я":{"ha":833,"x_min":69,"x_max":714,"o":"m 69 0 l 272 436 q 132 540 183 465 q 81 717 81 615 q 120 874 81 807 q 231 977 160 940 q 399 1014 303 1014 l 714 1014 l 714 0 l 564 0 l 564 417 l 422 417 l 238 0 l 69 0 m 399 549 l 564 549 l 564 882 l 399 882 q 278 836 324 882 q 233 714 233 790 q 278 594 233 639 q 399 549 322 549 z "},"Ђ":{"ha":833,"x_min":0,"x_max":760,"o":"m 372 -250 l 372 -110 l 465 -110 q 571 -72 532 -110 q 610 32 610 -35 l 610 407 q 500 560 610 560 q 356 482 429 560 l 299 422 l 299 0 l 149 0 l 149 879 l 0 879 l 0 1014 l 461 1014 l 461 879 l 299 879 l 299 560 l 319 582 q 536 688 419 688 q 699 617 638 688 q 760 428 760 546 l 760 25 q 722 -119 760 -57 q 617 -216 685 -182 q 461 -250 550 -250 l 372 -250 z "},"Ү":{"ha":833,"x_min":40,"x_max":793,"o":"m 342 0 l 342 374 l 40 1014 l 196 1014 l 375 631 q 404 560 393 593 q 419 510 415 526 q 435 560 424 526 q 463 631 446 593 l 638 1014 l 793 1014 l 492 374 l 492 0 l 342 0 z "},"Ө":{"ha":833,"x_min":113,"x_max":721,"o":"m 417 -14 q 193 67 274 -14 q 113 285 113 147 l 113 731 q 193 948 113 868 q 417 1028 274 1028 q 640 948 560 1028 q 721 731 721 868 l 721 285 q 640 67 721 149 q 417 -14 558 -14 m 257 583 l 576 583 l 576 728 q 536 853 576 808 q 417 897 496 897 q 297 853 338 897 q 257 728 257 808 l 257 583 m 417 117 q 535 162 494 117 q 576 288 576 207 l 576 454 l 257 454 l 257 288 q 298 162 257 207 q 417 117 339 117 z "},"а":{"ha":833,"x_min":83,"x_max":719,"o":"m 340 -14 q 152 48 221 -14 q 83 217 83 110 q 156 387 83 325 q 357 449 229 449 l 569 449 l 569 519 q 530 616 569 581 q 421 651 490 651 q 317 625 358 651 q 268 553 276 599 l 121 553 q 216 717 133 656 q 425 778 299 778 q 640 708 561 778 q 719 522 719 639 l 719 0 l 574 0 l 574 140 l 571 140 q 498 27 560 68 q 340 -14 436 -14 m 385 101 q 517 142 465 101 q 569 247 569 182 l 569 347 l 360 347 q 267 315 301 347 q 233 228 233 283 q 274 135 233 168 q 385 101 314 101 z "},"б":{"ha":833,"x_min":113,"x_max":721,"o":"m 417 -14 q 194 67 276 -12 q 113 288 113 147 l 113 632 q 208 915 113 815 q 479 1014 303 1014 l 685 1014 l 685 867 l 479 867 q 318 806 374 867 q 263 632 263 746 l 263 540 l 265 540 q 326 649 274 610 q 465 688 378 688 q 653 609 586 688 q 721 393 721 531 l 721 288 q 640 66 721 147 q 417 -14 558 -15 m 417 118 q 531 162 490 118 q 571 288 571 206 l 571 393 q 531 519 571 475 q 417 563 490 563 q 302 519 342 563 q 263 393 263 475 l 263 288 q 303 162 263 206 q 417 118 343 118 z "},"в":{"ha":833,"x_min":117,"x_max":739,"o":"m 117 0 l 117 764 l 453 764 q 643 711 572 764 q 714 569 714 658 q 669 456 714 499 q 547 411 624 414 l 547 404 q 687 351 635 401 q 739 217 739 300 q 666 58 739 117 q 468 0 593 0 l 117 0 m 264 447 l 450 447 q 535 473 504 447 q 567 546 567 499 q 535 617 567 592 q 450 643 504 643 l 264 643 l 264 447 m 264 121 l 463 121 q 558 149 524 121 q 592 231 592 178 q 558 310 592 281 q 463 339 524 339 l 264 339 l 264 121 z "},"г":{"ha":833,"x_min":175,"x_max":733,"o":"m 175 0 l 175 764 l 733 764 l 733 626 l 325 626 l 325 0 l 175 0 z "},"ѓ":{"ha":833,"x_min":175,"x_max":733,"o":"m 175 0 l 175 764 l 733 764 l 733 626 l 325 626 l 325 0 l 175 0 m 365 896 l 513 1090 l 674 1090 l 517 896 l 365 896 z "},"ґ":{"ha":833,"x_min":175,"x_max":733,"o":"m 175 0 l 175 764 l 590 764 l 590 910 l 733 910 l 733 626 l 325 626 l 325 0 l 175 0 z "},"д":{"ha":833,"x_min":39,"x_max":790,"o":"m 39 -194 l 39 128 l 94 128 q 144 217 118 151 q 171 385 169 283 l 179 764 l 697 764 l 697 128 l 790 128 l 790 -194 l 654 -194 l 654 0 l 175 0 l 175 -194 l 39 -194 m 250 128 l 551 128 l 551 632 l 319 632 l 314 383 q 291 215 313 281 q 250 128 269 150 z "},"е":{"ha":833,"x_min":108,"x_max":726,"o":"m 417 -14 q 254 23 324 -14 q 147 126 185 60 q 108 282 108 193 l 108 482 q 147 638 108 571 q 254 741 185 704 q 417 778 324 778 q 581 741 511 778 q 688 638 650 704 q 726 482 726 571 l 726 346 l 253 346 l 253 282 q 418 108 253 108 q 574 199 553 108 l 722 199 q 622 44 706 101 q 417 -14 539 -14 m 253 482 l 253 447 l 581 449 l 581 483 q 539 613 581 568 q 417 658 497 658 q 294 613 336 658 q 253 482 253 567 z "},"ё":{"ha":833,"x_min":108,"x_max":726,"o":"m 417 -14 q 254 23 324 -14 q 147 126 185 60 q 108 282 108 193 l 108 482 q 147 638 108 571 q 254 741 185 704 q 417 778 324 778 q 581 741 511 778 q 688 638 650 704 q 726 482 726 571 l 726 346 l 253 346 l 253 282 q 418 108 253 108 q 574 199 553 108 l 722 199 q 622 44 706 101 q 417 -14 539 -14 m 253 482 l 253 447 l 581 449 l 581 483 q 539 613 581 568 q 417 658 497 658 q 294 613 336 658 q 253 482 253 567 m 575 896 q 506 922 532 896 q 481 990 481 947 q 506 1060 481 1035 q 575 1086 532 1086 q 645 1060 619 1086 q 671 990 671 1035 q 645 922 671 947 q 575 896 619 896 m 258 896 q 188 922 214 896 q 163 990 163 947 q 188 1060 163 1035 q 258 1086 214 1086 q 328 1060 301 1086 q 354 990 354 1035 q 328 922 354 947 q 258 896 301 896 z "},"ж":{"ha":833,"x_min":19,"x_max":815,"o":"m 19 0 l 179 392 l 31 764 l 168 764 l 296 429 l 358 429 l 358 764 l 475 764 l 475 429 l 536 429 l 669 764 l 804 764 l 654 396 l 815 0 l 675 0 l 539 350 l 475 350 l 475 0 l 358 0 l 358 350 l 294 350 l 161 0 l 19 0 z "},"з":{"ha":833,"x_min":82,"x_max":735,"o":"m 375 -10 q 176 44 254 -10 q 82 193 97 99 l 235 193 q 280 138 242 158 q 375 117 318 117 l 449 117 q 545 147 510 117 q 581 224 581 176 q 547 303 581 274 q 449 332 513 332 l 288 332 l 288 456 l 439 456 q 526 482 496 456 q 557 553 557 508 q 440 647 557 647 l 376 647 q 286 625 322 647 q 242 567 250 603 l 89 567 q 180 718 103 663 q 376 774 257 774 l 440 774 q 640 718 567 774 q 713 565 713 663 q 667 451 713 494 q 538 403 621 407 q 685 349 636 397 q 735 215 735 300 q 657 51 735 113 q 449 -10 579 -10 l 375 -10 z "},"и":{"ha":833,"x_min":119,"x_max":714,"o":"m 119 0 l 119 764 l 257 764 l 257 368 q 254 283 257 329 q 247 192 251 236 q 239 118 243 149 l 526 764 l 714 764 l 714 0 l 576 0 l 576 396 q 579 480 576 435 q 586 567 582 525 q 594 639 590 610 l 307 0 l 119 0 z "},"й":{"ha":833,"x_min":119,"x_max":714,"o":"m 119 0 l 119 764 l 257 764 l 257 368 q 254 283 257 329 q 247 192 251 236 q 239 118 243 149 l 526 764 l 714 764 l 714 0 l 576 0 l 576 396 q 579 480 576 435 q 586 567 582 525 q 594 639 590 610 l 307 0 l 119 0 m 417 888 q 249 943 313 888 q 185 1090 185 999 l 301 1090 q 333 1010 301 1040 q 415 979 364 979 q 500 1010 468 979 q 532 1090 532 1040 l 650 1090 q 585 943 650 999 q 417 888 521 888 z "},"к":{"ha":833,"x_min":124,"x_max":772,"o":"m 124 0 l 124 764 l 274 764 l 274 457 l 396 457 l 599 764 l 768 764 l 525 397 l 772 0 l 600 0 l 396 328 l 274 328 l 274 0 l 124 0 z "},"ќ":{"ha":833,"x_min":124,"x_max":772,"o":"m 124 0 l 124 764 l 274 764 l 274 457 l 396 457 l 599 764 l 768 764 l 525 397 l 772 0 l 600 0 l 396 328 l 274 328 l 274 0 l 124 0 m 324 896 l 471 1090 l 632 1090 l 475 896 l 324 896 z "},"л":{"ha":833,"x_min":33,"x_max":714,"o":"m 33 -10 l 33 128 l 63 128 q 143 172 118 128 q 171 322 168 217 l 179 764 l 714 764 l 714 0 l 564 0 l 564 626 l 326 626 l 319 314 q 256 69 317 147 q 72 -10 194 -10 l 33 -10 z "},"м":{"ha":833,"x_min":92,"x_max":742,"o":"m 92 0 l 92 764 l 281 764 l 378 474 q 404 385 393 428 q 419 321 415 343 q 435 385 424 343 q 460 475 446 428 l 553 764 l 742 764 l 742 0 l 600 0 l 600 125 q 601 251 600 182 q 606 390 603 319 q 611 526 608 461 q 617 640 614 590 l 492 225 l 346 225 l 218 638 q 224 488 221 576 q 231 304 228 400 q 233 125 233 208 l 233 0 l 92 0 z "},"н":{"ha":833,"x_min":119,"x_max":714,"o":"m 119 0 l 119 764 l 269 764 l 269 457 l 564 457 l 564 764 l 714 764 l 714 0 l 564 0 l 564 319 l 269 319 l 269 0 l 119 0 z "},"о":{"ha":833,"x_min":108,"x_max":726,"o":"m 417 -12 q 191 67 274 -12 q 108 283 108 147 l 108 481 q 191 697 108 617 q 417 776 274 776 q 643 697 560 776 q 726 481 726 617 l 726 283 q 643 67 726 147 q 417 -12 560 -12 m 417 119 q 534 162 492 119 q 576 283 576 204 l 576 481 q 534 602 576 560 q 417 644 492 644 q 300 602 342 644 q 258 481 258 560 l 258 283 q 300 162 258 204 q 417 119 342 119 z "},"п":{"ha":833,"x_min":119,"x_max":714,"o":"m 119 0 l 119 764 l 714 764 l 714 0 l 564 0 l 564 626 l 269 626 l 269 0 l 119 0 z "},"р":{"ha":833,"x_min":117,"x_max":726,"o":"m 117 -250 l 117 764 l 265 764 l 265 618 l 267 618 q 333 735 278 693 q 472 778 388 778 q 657 700 588 778 q 726 490 726 622 l 726 275 q 657 64 726 142 q 472 -14 588 -14 q 333 28 388 -14 q 268 146 278 71 l 263 146 l 267 -32 l 267 -250 l 117 -250 m 421 117 q 535 159 494 117 q 576 282 576 201 l 576 482 q 535 605 576 563 q 421 647 494 647 q 308 603 350 647 q 267 482 267 560 l 267 282 q 308 160 267 204 q 421 117 350 117 z "},"с":{"ha":833,"x_min":107,"x_max":729,"o":"m 421 -14 q 192 65 278 -14 q 107 282 107 144 l 107 482 q 192 699 107 619 q 421 778 278 778 q 642 706 558 778 q 729 508 725 633 l 579 508 q 533 610 575 574 q 421 646 492 646 q 301 603 344 646 q 257 483 257 561 l 257 282 q 301 160 257 203 q 421 118 344 118 q 533 154 492 118 q 579 257 575 190 l 729 257 q 642 59 725 132 q 421 -14 558 -14 z "},"т":{"ha":833,"x_min":72,"x_max":761,"o":"m 342 0 l 342 629 l 72 629 l 72 764 l 761 764 l 761 629 l 492 629 l 492 0 l 342 0 z "},"у":{"ha":833,"x_min":64,"x_max":769,"o":"m 239 -250 l 349 44 l 64 764 l 229 764 l 389 333 q 409 267 399 306 q 425 203 419 228 q 440 267 431 228 q 460 333 450 306 l 610 764 l 769 764 l 397 -250 l 239 -250 z "},"ў":{"ha":833,"x_min":64,"x_max":769,"o":"m 239 -250 l 349 44 l 64 764 l 229 764 l 389 333 q 409 267 399 306 q 425 203 419 228 q 440 267 431 228 q 460 333 450 306 l 610 764 l 769 764 l 397 -250 l 239 -250 m 417 888 q 249 943 313 888 q 185 1090 185 999 l 301 1090 q 333 1010 301 1040 q 415 979 364 979 q 500 1010 468 979 q 532 1090 532 1040 l 650 1090 q 585 943 650 999 q 417 888 521 888 z "},"ф":{"ha":833,"x_min":67,"x_max":767,"o":"m 353 -250 l 353 0 q 143 76 219 0 q 67 283 67 151 l 67 483 q 144 689 67 614 q 353 764 221 764 l 353 1014 l 481 1014 l 481 764 q 690 689 614 764 q 767 483 767 614 l 767 283 q 690 76 767 151 q 481 0 614 0 l 481 -250 l 353 -250 m 357 118 l 357 646 q 243 603 285 646 q 201 483 201 560 l 201 283 q 243 162 201 206 q 357 118 285 118 m 476 118 q 590 162 549 118 q 632 283 632 206 l 632 483 q 590 603 632 560 q 476 646 549 646 l 476 118 z "},"х":{"ha":833,"x_min":60,"x_max":774,"o":"m 60 0 l 328 394 l 76 764 l 249 764 l 383 553 q 403 517 393 536 q 418 486 413 499 q 431 517 422 499 q 451 553 440 536 l 586 764 l 758 764 l 507 393 l 774 0 l 601 0 l 453 229 q 433 267 443 246 q 418 300 424 288 q 401 267 411 288 q 381 229 392 246 l 231 0 l 60 0 z "},"ч":{"ha":833,"x_min":97,"x_max":707,"o":"m 557 0 l 557 268 q 494 258 536 263 q 404 253 451 253 q 178 323 258 251 q 97 524 97 394 l 97 764 l 247 764 l 247 528 q 292 425 247 463 q 415 388 336 388 q 504 392 467 388 q 557 401 542 397 l 557 764 l 707 764 l 707 0 l 557 0 z "},"ц":{"ha":833,"x_min":119,"x_max":790,"o":"m 654 -194 l 654 0 l 119 0 l 119 764 l 269 764 l 269 136 l 536 136 l 536 764 l 686 764 l 686 136 l 790 136 l 790 -194 l 654 -194 z "},"ш":{"ha":833,"x_min":79,"x_max":754,"o":"m 81 0 l 79 764 l 213 764 l 213 108 l 361 108 l 361 764 l 475 764 l 475 108 l 622 108 l 622 764 l 754 764 l 754 0 l 81 0 z "},"щ":{"ha":833,"x_min":79,"x_max":804,"o":"m 672 -194 l 672 0 l 79 0 l 79 764 l 204 764 l 204 115 l 350 115 l 350 764 l 460 764 l 460 115 l 606 115 l 606 764 l 731 764 l 731 115 l 804 115 l 804 -194 l 672 -194 z "},"џ":{"ha":833,"x_min":119,"x_max":714,"o":"m 342 -174 l 342 0 l 119 0 l 119 764 l 269 764 l 269 138 l 564 138 l 564 764 l 714 764 l 714 0 l 492 0 l 492 -174 l 342 -174 z "},"ь":{"ha":833,"x_min":125,"x_max":772,"o":"m 125 0 l 125 764 l 275 764 l 275 499 l 486 499 q 696 432 619 499 q 772 249 772 365 q 695 67 772 133 q 486 0 618 0 l 125 0 m 275 133 l 482 133 q 583 163 547 133 q 619 250 619 193 q 583 335 619 306 q 482 365 547 365 l 275 365 l 275 133 z "},"ъ":{"ha":833,"x_min":0,"x_max":772,"o":"m 186 0 l 186 628 l 0 628 l 0 764 l 336 764 l 336 499 l 486 499 q 696 432 619 499 q 772 249 772 365 q 695 67 772 133 q 486 0 618 0 l 186 0 m 336 133 l 482 133 q 583 163 547 133 q 619 250 619 193 q 583 335 619 306 q 482 365 547 365 l 336 365 l 336 133 z "},"ы":{"ha":833,"x_min":81,"x_max":754,"o":"m 81 0 l 81 764 l 214 764 l 214 494 l 269 494 q 465 428 393 494 q 538 246 538 361 q 465 66 538 132 q 269 0 393 0 l 81 0 m 619 0 l 619 764 l 754 764 l 754 0 l 619 0 m 214 118 l 269 118 q 373 152 336 118 q 410 246 410 186 q 373 342 410 308 q 269 376 336 376 l 214 376 l 214 118 z "},"љ":{"ha":833,"x_min":3,"x_max":817,"o":"m 3 -7 l 3 124 l 28 124 q 85 165 64 124 q 108 274 107 206 l 114 764 l 518 764 l 518 497 l 592 497 q 755 438 693 497 q 817 281 817 378 l 817 213 q 755 58 817 117 q 592 0 693 0 l 393 0 l 393 643 l 240 643 l 236 272 q 180 69 235 144 q 29 -7 125 -7 l 3 -7 m 518 118 l 592 118 q 661 144 635 118 q 688 213 688 169 l 688 281 q 661 351 688 325 q 592 378 635 378 l 518 378 l 518 118 z "},"њ":{"ha":833,"x_min":79,"x_max":810,"o":"m 79 0 l 79 764 l 211 764 l 211 494 l 392 494 l 392 764 l 511 764 l 511 494 l 585 494 q 748 435 686 494 q 810 278 810 375 l 810 214 q 747 58 810 117 q 585 0 685 0 l 392 0 l 392 376 l 211 376 l 211 0 l 79 0 m 511 119 l 585 119 q 653 145 628 119 q 678 214 678 171 l 678 278 q 653 349 678 322 q 585 376 628 376 l 511 376 l 511 119 z "},"ѕ":{"ha":833,"x_min":108,"x_max":735,"o":"m 390 -12 q 190 44 265 -12 q 108 199 115 101 l 258 199 q 299 138 264 160 q 390 115 333 115 l 450 115 q 553 142 518 115 q 588 215 588 169 q 464 319 588 300 l 365 335 q 185 404 243 353 q 128 556 128 456 q 197 718 128 660 q 400 776 265 776 l 453 776 q 644 722 572 776 q 725 575 715 667 l 575 575 q 538 630 569 610 q 453 650 506 650 l 400 650 q 305 626 335 650 q 275 554 275 601 q 301 492 275 513 q 383 463 326 471 l 485 447 q 674 374 614 426 q 735 219 735 321 q 663 49 735 110 q 450 -12 592 -12 l 390 -12 z "},"є":{"ha":833,"x_min":115,"x_max":732,"o":"m 425 -14 q 199 65 282 -14 q 115 282 115 144 l 115 482 q 199 699 115 619 q 425 778 282 778 q 645 706 563 778 q 732 508 728 633 l 582 508 q 537 610 578 574 q 425 646 496 646 q 307 603 349 646 q 265 483 265 561 l 265 450 l 521 450 l 521 325 l 265 325 l 265 282 q 307 160 265 203 q 425 118 349 118 q 537 154 496 118 q 582 257 578 190 l 732 257 q 645 59 728 132 q 425 -14 563 -14 z "},"э":{"ha":833,"x_min":104,"x_max":721,"o":"m 411 -14 q 191 59 274 -14 q 104 257 108 132 l 254 257 q 299 154 258 190 q 411 118 340 118 q 529 160 488 118 q 571 282 571 203 l 571 325 l 315 325 l 315 450 l 571 450 l 571 483 q 529 603 571 561 q 411 646 488 646 q 299 610 340 646 q 254 508 258 574 l 104 508 q 191 706 108 633 q 411 778 274 778 q 638 699 554 778 q 721 482 721 619 l 721 282 q 638 65 721 144 q 411 -14 554 -14 z "},"і":{"ha":833,"x_min":113,"x_max":774,"o":"m 113 0 l 113 136 l 381 136 l 381 628 l 147 628 l 147 764 l 526 764 l 526 136 l 774 136 l 774 0 l 113 0 m 440 896 q 363 922 392 896 q 333 990 333 947 q 363 1060 333 1035 q 440 1086 392 1086 q 518 1060 489 1086 q 547 990 547 1035 q 518 922 547 947 q 440 896 489 896 z "},"ї":{"ha":833,"x_min":113,"x_max":774,"o":"m 113 0 l 113 136 l 381 136 l 381 628 l 147 628 l 147 764 l 526 764 l 526 136 l 774 136 l 774 0 l 113 0 m 599 896 q 530 922 556 896 q 504 990 504 947 q 530 1060 504 1035 q 599 1086 556 1086 q 669 1060 643 1086 q 694 990 694 1035 q 669 922 694 947 q 599 896 643 896 m 282 896 q 212 922 238 896 q 186 990 186 947 q 212 1060 186 1035 q 282 1086 238 1086 q 351 1060 325 1086 q 378 990 378 1035 q 351 922 378 947 q 282 896 325 896 z "}}}
